<?xml version="1.0" encoding="UTF-8"?>
<svg width="96px" height="96px" viewBox="0 0 96 96" version="1.1" xmlns="http://www.w3.org/2000/svg" xmlns:xlink="http://www.w3.org/1999/xlink">
    <!-- Generator: Sketch 46.2 (44496) - http://www.bohemiancoding.com/sketch -->
    <title>Group 22</title>
    <desc>Created with Sketch.</desc>
    <defs>
        <polygon id="path-1" points="2.44972524e-16 81.9224727 2.44972524e-16 0.000298181818 81.9224727 0.000298181818 81.9224727 81.9224727 0 81.9224727"></polygon>
    </defs>
    <g id="DR.JUANRIESTRA-All-web" stroke="none" stroke-width="1" fill="none" fill-rule="evenodd">
        <g id="2.-BIOGRAFÃA" transform="translate(-640.000000, -1611.000000)">
            <g id="Group-22" transform="translate(641.000000, 1612.000000)">
                <g id="Group-6">
                    <g id="Page-1" transform="translate(6.000000, 29.000000)">
                        <mask id="mask-2" fill="white">
                            <use xlink:href="#path-1"></use>
                        </mask>
                        <g id="Clip-2"></g>
                    </g>
                    <path d="M54.424561,20.7142857 L39.9152458,20.7142857 C39.3926803,20.7142857 38.5396825,21.2275694 38.5396825,21.7510632 L38.5396825,25.8963166 C38.5396825,26.417954 39.3926803,27.2941562 39.9152458,27.2941562 L41.3594944,27.2941562 L41.3594944,42.8745915 L41.3594944,43.1456202 L41.3594944,68.9054094 C41.3594944,71.7428567 42.7396986,77.1068109 47.5875846,77.1068109 C49.097734,77.1068109 50.5364135,76.5888863 51.4877984,75.5660315 C53.5901269,73.3096251 53.5799169,69.330516 53.5799169,68.8747794 L53.5799169,27.2941562 L54.424561,27.2941562 C54.9461984,27.2941562 55.4594821,26.417954 55.4594821,25.8963166 L55.4594821,21.7510632 C55.4594821,21.2275694 54.9461984,20.7142857 54.424561,20.7142857 L54.424561,20.7142857 Z M51.6994235,27.2941562 L51.6994235,42.717729 C51.2297643,43.6960311 49.8987536,44.4821999 48.6150802,44.6464878 C48.1779073,44.7012504 46.9137256,44.750444 46.339182,43.983767 C45.3079736,42.6063474 44.1793063,42.1571081 43.2390596,42.0373728 L43.2390596,27.2941562 L51.6994235,27.2941562 Z M50.0082789,74.2805018 C49.4207408,74.9088799 48.5566049,75.2142512 47.5810873,75.2142512 C43.4117012,75.2142512 43.2390596,69.1625153 43.2390596,68.9054094 L43.2390596,56.304433 C43.7096471,56.9411647 44.7464245,57.343995 45.6681076,57.343995 C47.3945231,57.343995 48.850838,55.9405863 48.850838,54.2132426 C48.850838,52.4886836 47.3666776,51.0843467 45.6411904,51.0843467 C44.7204355,51.0843467 43.7096471,51.4881051 43.2390596,52.1239087 L43.2390596,43.9726289 C43.7096471,44.1035023 44.2201463,44.4098018 44.7519936,45.1180034 C45.4564825,46.0573219 46.6352715,46.5687493 47.9588567,46.5687493 C48.1853327,46.5687493 48.5918757,46.5538984 48.8294899,46.5232685 C49.8124329,46.3970359 50.760105,46.0220511 51.6994235,45.4790656 L51.6994235,58.0540529 C50.760105,57.5416974 49.9869308,57.2353979 49.0522532,57.2353979 C46.7039569,57.2353979 44.7204355,59.1465212 44.7204355,61.4938893 C44.7204355,63.8412574 46.7410841,65.7514525 49.0884522,65.7514525 C50.024058,65.7514525 50.760105,65.445153 51.6994235,64.9318693 L51.6994235,68.9054094 C51.6994235,68.9286139 51.552771,68.949962 51.5546274,68.9731665 C51.5564837,69.0075092 51.6325945,72.5410918 50.0082789,74.2805018 L50.0082789,74.2805018 Z M44.5385121,54.2132426 C44.5385121,53.5319583 45.0926358,52.9769064 45.7757765,52.9769064 C46.4579891,52.9769064 47.0121128,53.5319583 47.0121128,54.2132426 C47.0121128,54.8963834 46.4579891,55.450507 45.7757765,55.450507 C45.0926358,55.450507 44.5385121,54.8963834 44.5385121,54.2132426 L44.5385121,54.2132426 Z M51.2706042,61.4938893 C51.2706042,62.7970545 50.2087659,63.859821 48.9056007,63.859821 C47.5996509,63.859821 46.539669,62.7970545 46.539669,61.4938893 C46.539669,60.1888677 47.5996509,59.1279576 48.9056007,59.1279576 C50.2087659,59.1279576 51.2706042,60.1888677 51.2706042,61.4938893 L51.2706042,61.4938893 Z M40.4192477,25.414591 L53.5799169,25.414591 L53.5799169,22.5938509 L40.4192477,22.5938509 L40.4192477,25.414591 Z" id="Page-1" fill="#57B6E5"></path>
                    <circle id="Oval" stroke="#B0E1F4" stroke-width="2" cx="47" cy="47" r="47"></circle>
                </g>
            </g>
        </g>
    </g>
</svg>