<?xml version="1.0" encoding="UTF-8"?>
<svg width="96px" height="96px" viewBox="0 0 96 96" version="1.1" xmlns="http://www.w3.org/2000/svg" xmlns:xlink="http://www.w3.org/1999/xlink">
    <!-- Generator: Sketch 46.2 (44496) - http://www.bohemiancoding.com/sketch -->
    <title>Group 16</title>
    <desc>Created with Sketch.</desc>
    <defs>
        <polygon id="path-1" points="2.44972524e-16 81.9224727 2.44972524e-16 0.000298181818 81.9224727 0.000298181818 81.9224727 81.9224727 0 81.9224727"></polygon>
        <polygon id="path-3" points="42.7247034 47.5738128 0 47.5738128 0 -0.000147209393 42.7247034 -0.000147209393 42.7247034 47.5738128"></polygon>
    </defs>
    <g id="DR.JUANRIESTRA-All-web" stroke="none" stroke-width="1" fill="none" fill-rule="evenodd">
        <g id="2.-BIOGRAFÃA" transform="translate(-640.000000, -1098.000000)">
            <g id="Group-16" transform="translate(641.000000, 1099.000000)">
                <g id="Group-11" transform="translate(6.000000, 8.000000)">
                    <g id="Page-1">
                        <mask id="mask-2" fill="white">
                            <use xlink:href="#path-1"></use>
                        </mask>
                        <g id="Clip-2"></g>
                    </g>
                    <g id="Page-1" transform="translate(19.523810, 16.920635)">
                        <mask id="mask-4" fill="white">
                            <use xlink:href="#path-3"></use>
                        </mask>
                        <g id="Clip-2"></g>
                        <path d="M40.8602631,28.3806156 C40.8248906,28.3527342 40.7869914,28.3265426 40.7465656,28.3020408 L32.7826889,23.7125983 L41.0177552,18.8747582 C41.0564965,18.8519461 41.0943957,18.8257546 41.1297683,18.7961834 C42.1412547,17.9597423 43.4938336,15.649813 42.1825227,12.470492 C42.1732585,12.3488278 42.1387281,12.2280085 42.0730362,12.1139484 C42.0014489,11.9905944 41.9256506,11.8799138 41.8515367,11.7624741 C41.7875292,11.6399651 41.7294172,11.5191458 41.6578299,11.3941021 C41.5929802,11.2800419 41.505391,11.1896387 41.4043266,11.1186679 C39.3131352,8.39389769 36.6492454,8.43867686 35.4263658,8.91350504 C35.3834134,8.93040284 35.3421455,8.9506802 35.3017197,8.97349223 L26.8409429,13.9439801 L26.8080969,5.78825692 C27.689884,5.2830127 28.2853219,4.32744211 28.2811109,3.23499933 C28.2752155,1.63055322 26.9748532,0.326043052 25.3712977,0.326043052 C24.8836618,0.328577722 24.4255031,0.452776552 24.023772,0.670758173 C23.3836973,0.354769312 22.6602444,0.197619772 21.8643621,0.0970778613 C21.7599289,0.0522986912 21.644547,0.0835596213 21.5224275,0.0835596213 L21.5190586,0.0835596213 C21.4137832,0.0835596213 21.317772,0.0354008911 21.2158654,0.0387804511 C21.0440558,0.0311764411 20.8705619,-0.00177426901 20.6936992,-8.44890002e-05 C20.5623154,-8.44890002e-05 20.4401959,0.0176582011 20.329025,0.0708862712 C16.9467356,0.538110443 15.6573219,2.88014553 15.4551931,4.18465569 C15.4476133,4.23027975 15.4442444,4.27252426 15.4450866,4.31814832 L15.4821436,13.7395167 L7.41636022,9.08755238 C7.37593445,9.06558524 7.33466648,9.04530788 7.2925563,9.02925497 C6.06630794,8.56541036 3.3998915,8.54090855 1.33143959,11.2842664 C1.23121737,11.3552371 1.1444704,11.4447955 1.08046293,11.5580107 C1.00971783,11.6830545 0.953290196,11.8047186 0.89012493,11.9272277 C0.816853221,12.0455123 0.741897106,12.1570378 0.670309804,12.2829264 C0.606302334,12.3961416 0.573456396,12.5178058 0.564192157,12.6403148 C-0.721852661,15.8289297 0.650096919,18.1287203 1.66832101,18.9575574 C1.70369356,18.9862837 1.74159272,19.0116304 1.78117628,19.0344424 L10.0532995,23.8038464 L2.12563754,28.4600353 C0.929708497,29.1638286 -0.843972176,31.2870372 0.70736676,34.3801795 C0.266052101,34.8955624 -0.00345303455,35.6846897 -8.42203548e-05,36.4172093 C0.00581120448,38.0208105 1.30617348,39.4452951 2.89793819,39.4452951 L2.90972904,39.4452951 C3.64581494,39.4452951 4.31620896,39.0397479 4.82658431,38.5792828 C5.33864407,38.7271386 5.81617348,38.723759 6.22632661,38.723759 C7.05589711,38.723759 7.62606891,38.4863449 7.71702689,38.4508595 C7.75997927,38.4331168 7.80124725,38.3984764 7.84083081,38.3756643 L15.5629951,33.8335357 L15.6000521,43.0740976 C15.6000521,43.1188768 15.6042631,43.1628111 15.6110007,43.2075903 C15.823236,44.5104106 17.1320204,46.9496081 20.5176786,47.3906407 C20.6280073,47.4421789 20.7492846,47.5739818 20.8781417,47.5739818 L20.8815106,47.5739818 C21.0255274,47.5739818 21.1585955,47.5638431 21.2958747,47.557084 C21.4196786,47.5621533 21.5392715,47.5739818 21.6681287,47.5739818 L21.7085544,47.5739818 C21.839096,47.5739818 21.9620577,47.4387994 22.0715442,47.3847264 C25.4538336,46.9175023 26.7440894,44.5163249 26.9462183,43.2109698 C26.9529559,43.1670355 26.9571669,43.0952199 26.9571669,43.0504407 L26.9184256,33.539514 L35.1122239,38.2573797 C35.1518075,38.2801918 35.1930754,38.2962447 35.2351856,38.3131425 C35.6015442,38.4508595 36.0942332,38.5488668 36.6618784,38.5488668 C38.0060353,38.5488668 39.7670829,37.9836354 41.2249373,36.0285599 C41.3116842,35.9609687 41.3891669,35.8807041 41.4464368,35.7801622 C41.5070754,35.674551 41.5517122,35.5740091 41.6056133,35.4709325 C41.6906758,35.3357501 41.7748962,35.1997228 41.8574321,35.0544017 C41.9214396,34.9420314 41.9551277,34.8186774 41.964392,34.6978581 C43.2487524,31.5092433 41.877645,29.2077629 40.8602631,28.3806156 L40.8602631,28.3806156 Z M15.5276226,24.9731742 L15.3743415,24.8836159 L15.3339158,24.8616487 L13.4760148,23.7894833 L15.5175162,22.5897395 L15.5276226,24.9731742 Z M2.7101268,17.5837662 C2.43977946,17.3294544 0.922128665,15.7081104 2.38419402,12.777187 C4.13345079,10.0304496 6.27433221,10.5162614 6.63479533,10.6235624 L15.6590063,15.7292327 L15.8417645,19.0775318 L15.8417645,19.0783767 L15.6792192,20.604248 L14.7654284,21.0478153 L14.7645862,21.0478153 L11.7604461,22.8060314 L2.7101268,17.5837662 Z M2.76402782,37.4834605 L2.62085322,38.3452483 L2.62085322,37.4834605 C2.19469823,37.4834605 1.58073184,36.94949 1.57820523,36.2913207 C1.57567862,35.6314616 2.17280093,35.090732 2.8288775,35.0873524 C3.47653203,35.0873524 3.97174771,35.6230127 3.97427432,36.281182 C3.97764314,36.941886 3.41505117,37.4809258 2.76402782,37.4834605 L2.76402782,37.4834605 Z M7.05084388,36.8286707 C6.89082521,36.8751397 6.38213427,36.9942692 5.73026872,36.8987966 C5.7732211,36.6977128 5.7959606,36.489025 5.79511839,36.2744229 C5.78922297,34.6708217 4.48886069,33.3654666 2.88614734,33.3654666 C2.63769729,33.3671564 2.39851148,33.4017969 2.16858992,33.4634739 C1.13941718,31.2363438 2.66633221,30.1464357 2.99394939,29.9470417 L11.768026,24.7923678 L14.478237,26.3554143 L14.4790792,26.3554143 L15.5360446,26.9637351 L15.5545731,31.833681 L7.05084388,36.8286707 Z M17.1623397,4.39080886 C17.2448756,4.0317306 17.8714751,1.90936692 21.0752174,1.71166266 C21.7009746,1.73700936 22.2627244,1.83924105 22.7629933,2.00990883 C22.5852883,2.38926444 22.4842239,2.81170944 22.4859083,3.25865625 C22.4909615,4.76340535 23.6363584,6.00539365 25.0925283,6.1532494 L25.1270586,14.9502441 L21.3918859,17.1444234 L17.2036077,14.7297278 L17.1623397,4.39080886 Z M25.1447449,19.3081867 L23.1007169,18.1329448 L23.5184499,17.8837022 L23.5184499,17.8828573 L25.128743,16.9416498 L25.1405339,19.0386668 L25.1447449,19.3081867 Z M17.2120297,16.7219784 L19.2577421,17.9014449 L19.2585843,17.9014449 L19.6838971,18.1473079 L17.2238205,19.5937596 L17.2120297,16.7219784 Z M17.2305582,21.5843204 L21.3994657,19.1358292 L25.1531669,21.3004374 L25.1716954,26.1855914 L22.1919793,27.9362035 L21.4373649,28.3789258 L17.2490866,25.9650751 L17.2305582,21.5843204 Z M25.1801175,28.1761522 L25.1902239,30.543534 L23.2699998,29.4367281 L23.1520913,29.368292 L25.1801175,28.1761522 Z M17.5472267,28.2995062 L17.5472267,28.2986613 L17.4015255,27.9564808 L19.8018056,29.3826551 L17.4486889,30.827417 L17.5472267,28.2995062 Z M21.2916637,45.6298899 C18.0559176,45.4727404 17.4032099,43.3461522 17.3164629,42.9777802 L17.2760372,32.8188228 L20.4789373,30.9380976 L20.4797795,30.9380976 L21.4441025,30.3711764 L25.1978037,32.5349397 L25.2390717,42.9465192 C25.1565358,43.3081322 24.5248831,45.4431692 21.2916637,45.6298899 L21.2916637,45.6298899 Z M25.3881417,4.44488182 L25.5186833,4.9873012 C25.5178411,4.98814609 25.650067,4.98814609 25.650067,4.98814609 L25.650067,4.44488182 C24.797757,4.44488182 24.3395983,3.90922155 24.3370717,3.25189713 C24.3337029,2.59203804 24.7952304,2.05130844 25.4504648,2.04877377 C26.0989615,2.04877377 26.5950194,2.58443403 26.5967038,3.24175845 C26.6000726,3.90330732 26.0391651,4.44234715 25.3881417,4.44488182 L25.3881417,4.44488182 Z M26.8485227,15.9353859 L36.0942332,10.5052778 C36.4732248,10.3903728 38.5997888,9.90202634 40.3625208,12.6217273 C41.8473257,15.5365978 40.3490456,17.170615 40.0753294,17.4325309 L31.0679625,22.7223872 L28.0495049,20.9827587 L26.866209,20.3009325 L26.8485227,15.9353859 Z M26.874631,22.2914933 L27.0759176,22.4089331 L27.1938261,22.4765243 L29.3608159,23.7261166 L26.8855796,25.1793274 L26.874631,22.2914933 Z M40.1418635,34.5626757 C38.3934489,37.3068785 36.2525675,36.8210667 35.8937888,36.7129208 L26.9268476,31.5354349 L26.9302164,28.2597963 L26.9302164,28.2589514 L26.9100035,27.1698882 L31.0839643,24.713793 L39.8218261,29.7544067 C40.0930157,30.0087186 41.6056133,31.6309074 40.1418635,34.5626757 L40.1418635,34.5626757 Z M23.8224853,23.3805566 C23.8165899,22.032957 22.7242519,20.9802241 21.375884,20.9802241 C20.7240185,20.9836036 20.1125787,21.264952 19.6535778,21.7313313 C19.1962613,22.1977106 18.9461268,22.7342157 18.9486534,23.3890055 C18.9545488,24.736605 20.047729,25.7538526 21.3859905,25.7538526 L21.3960969,25.7538526 C22.7385694,25.7538526 23.8266964,24.7340703 23.8224853,23.3805566 L23.8224853,23.3805566 Z M21.3885171,24.2127732 L21.3859905,25.074561 L21.3859905,24.2127732 C20.9589933,24.2127732 20.6675908,23.8858008 20.6659064,23.484478 C20.6659064,23.2876187 20.7400204,23.1025877 20.8764573,22.9640258 C21.0120521,22.8271536 21.1914415,22.7502686 21.3851483,22.7494237 C21.7809839,22.7494237 22.1035479,23.0763962 22.1043901,23.4785638 C22.1060745,23.8815763 21.785195,24.2110834 21.3885171,24.2127732 L21.3885171,24.2127732 Z" id="Fill-1" fill="#57B6E5" mask="url(#mask-4)"></path>
                    </g>
                </g>
                <circle id="Oval" stroke="#B0E1F4" stroke-width="2" cx="47" cy="47" r="47"></circle>
            </g>
        </g>
    </g>
</svg>