<?xml version="1.0" encoding="UTF-8"?>
<svg width="96px" height="96px" viewBox="0 0 96 96" version="1.1" xmlns="http://www.w3.org/2000/svg" xmlns:xlink="http://www.w3.org/1999/xlink">
    <!-- Generator: Sketch 46.2 (44496) - http://www.bohemiancoding.com/sketch -->
    <title>Group 20</title>
    <desc>Created with Sketch.</desc>
    <defs></defs>
    <g id="DR.JUANRIESTRA-All-web" stroke="none" stroke-width="1" fill="none" fill-rule="evenodd">
        <g id="2.-BIOGRAFÃA" transform="translate(-640.000000, -1452.000000)">
            <g id="Group-20" transform="translate(641.000000, 1453.000000)">
                <g id="Group-5" transform="translate(29.000000, 27.333333)" fill="#57B6E5">
                    <path d="M41.2980985,10.6928357 C40.0936905,10.6928357 39.1134765,11.6730497 39.1134765,12.8781832 C39.1134765,13.0269203 39.128713,13.1720297 39.1577349,13.3135114 L34.8683012,15.9516002 C34.3451818,15.6026121 33.7183092,15.3980078 33.0442761,15.3980078 C32.3288867,15.3980078 31.6679134,15.6301829 31.1266554,16.0183505 L28.6699533,13.9686803 C28.6808366,13.855495 28.688092,13.7408585 28.688092,13.624771 C28.688092,11.8072758 27.2094273,10.3286111 25.3912066,10.3286111 C23.5744369,10.3286111 22.0957722,11.8072758 22.0957722,13.624771 C22.0957722,13.9077343 22.1356773,14.1819911 22.2031532,14.4439136 L20.0511808,15.934187 C19.5338658,15.5960822 18.9171509,15.3980078 18.254001,15.3980078 C17.6118919,15.3980078 17.0118645,15.5859245 16.5039817,15.9066163 L14.2685714,14.0405094 C14.2910634,13.8837913 14.3549115,13.7256221 14.3549115,13.5630995 C14.3549115,12.5284695 13.9087001,11.6041227 13.173721,10.9990165 L13.173721,5.1017707 C13.9087001,4.83186722 14.6835843,3.99676266 14.6835843,3.01001877 C14.6835843,1.80488524 13.6801528,0.825396825 12.4750193,0.825396825 C11.2706113,0.825396825 10.331028,1.80488524 10.331028,3.01001877 C10.331028,3.91187366 10.9695093,4.68820892 11.7044884,5.02123498 L11.7044884,10.3220812 C11.3366361,10.2872549 11.2648069,10.2669396 11.0638304,10.2669396 C10.3745608,10.2669396 9.70705759,10.480976 9.1774083,10.844475 L6.39928893,7.10718254 C6.7555325,6.71828936 6.96811776,6.20242546 6.96811776,5.63432218 C6.96811776,4.4299142 5.98500161,3.44970024 4.77986808,3.44970024 C3.57618565,3.44970024 2.59379505,4.4299142 2.59379505,5.63432218 C2.59379505,6.83873016 3.57328346,7.81894412 4.77769144,7.81894412 C4.87346364,7.81894412 4.96633366,7.81096311 5.05847812,7.79862881 L8.1347973,11.9574641 C7.86852156,12.4326973 7.7147056,12.9797598 7.7147056,13.5630995 C7.7147056,13.7880191 7.73719755,14.0071343 7.78000483,14.218994 L5.54096686,15.9204017 C5.02800515,15.5917289 4.41999678,15.3980078 3.76627896,15.3980078 C1.94950933,15.3980078 0.523809524,16.875947 0.523809524,18.6941677 C0.523809524,20.2998032 1.78408462,21.6391629 3.25331725,21.9301073 L3.25331725,23.0039168 C1.78408462,23.2948611 0.523809524,24.6342208 0.523809524,26.2391307 C0.523809524,28.0573515 1.97562902,29.5360162 3.79384974,29.5360162 C4.47513835,29.5360162 5.09620656,29.3277842 5.62222812,28.9715406 L7.774926,30.1919107 C7.74155084,30.3791018 7.71760779,30.5706462 7.71760779,30.7672694 C7.71760779,31.6575156 8.07167471,32.4650493 8.64848456,33.0592723 L6.66411358,36.081901 C6.54149614,36.0608601 6.41525097,36.0470748 6.28682915,36.0470748 C5.08242117,36.0470748 4.10148166,37.0272887 4.10148166,38.2316967 C4.10148166,39.4361047 5.08242117,40.4163186 6.2861036,40.4163186 C7.49051158,40.4163186 8.47145109,39.4361047 8.47145109,38.2316967 C8.47145109,37.6918897 8.27337677,37.1999689 7.94905727,36.8183312 L9.88844434,33.8624528 C10.2388835,33.9901491 10.616168,34.0634293 11.0108655,34.0634293 C11.3671091,34.0634293 11.7088417,34.0053856 12.030259,33.9001813 L13.3609122,36.8357443 C13.0452992,37.2152054 12.8544804,37.7013219 12.8544804,38.2316967 C12.8544804,39.4361047 13.8346943,40.4163186 15.0398279,40.4163186 C16.2435103,40.4163186 17.2229987,39.4361047 17.2229987,38.2316967 C17.2229987,37.0272887 16.2435103,36.0470748 15.0398279,36.0470748 C14.9041506,36.0470748 14.7728266,36.0615857 14.6444048,36.0848032 L13.305045,33.1296504 C13.9224855,32.529623 14.3070254,31.6930674 14.3070254,30.7672694 C14.3070254,30.5713717 14.2867101,30.3798273 14.2533349,30.1926362 L16.4118372,28.9715406 C16.9385843,29.3277842 17.5727124,29.5360162 18.254001,29.5360162 C18.9367407,29.5360162 19.5708687,29.3277842 20.0968903,28.9715406 L22.2561181,30.1919107 C22.2227429,30.3791018 22.2024276,30.5706462 22.2024276,30.7672694 C22.2024276,32.5847646 23.6810923,34.0634293 25.4985875,34.0634293 C27.3160827,34.0634293 28.7947474,32.5847646 28.7947474,30.7672694 C28.7947474,30.5713717 28.7737066,30.3798273 28.7403314,30.1926362 L31.0722394,28.8750429 C31.6229295,29.2878791 32.3042181,29.5360162 33.0442761,29.5360162 C33.7204858,29.5360162 34.3495351,29.3306864 34.87338,28.9802472 L36.7743131,30.1251603 C36.726427,30.3043704 36.6988562,30.4922871 36.6988562,30.6860082 C36.6988562,31.8904161 37.6790701,32.8706301 38.8834781,32.8706301 C40.0878861,32.8706301 41.0681001,31.8904161 41.0681001,30.6860082 C41.0681001,29.4816002 40.0878861,28.5013862 38.8834781,28.5013862 C38.4118726,28.5013862 37.9765444,28.6523 37.6195753,28.906967 L35.9022056,27.8737881 C36.178639,27.3912993 36.2294273,26.8348048 36.2294273,26.2391307 C36.2294273,24.61318 34.850888,23.261486 33.3816554,22.9944847 L33.3816554,21.9388138 C34.850888,21.6732636 36.2294273,20.3215696 36.2294273,18.6941677 C36.2294273,18.0970426 36.1220463,17.5376459 35.8427107,17.053706 L39.8992439,14.5766887 C40.2750772,14.8799673 40.765547,15.0628051 41.2835875,15.0628051 C42.488721,15.0628051 43.4761905,14.0833167 43.4761905,12.8781832 C43.4761905,11.6730497 42.5025064,10.6928357 41.2980985,10.6928357 M12.4510763,2.30478711 C12.8399694,2.30478711 13.1570335,2.62112559 13.1570335,3.01001877 C13.1570335,3.39891195 12.8399694,3.71525043 12.4510763,3.71525043 C12.0621831,3.71525043 11.7458446,3.39891195 11.7458446,3.01001877 C11.7458446,2.62112559 12.0621831,2.30478711 12.4510763,2.30478711 M15.744334,38.2316967 C15.744334,38.6205899 15.4279955,38.9369284 15.0398279,38.9369284 C14.6502091,38.9369284 14.3338707,38.6205899 14.3338707,38.2316967 C14.3338707,37.842078 14.6502091,37.526465 15.0398279,37.526465 C15.4279955,37.526465 15.744334,37.842078 15.744334,38.2316967 M25.3912066,11.8080014 C26.3939125,11.8080014 27.2087017,12.6227906 27.2087017,13.624771 C27.2087017,14.6260258 26.3939125,15.4415406 25.3912066,15.4415406 C24.3892262,15.4415406 23.5751625,14.6260258 23.5751625,13.624771 C23.5751625,12.6227906 24.3892262,11.8080014 25.3912066,11.8080014 M19.419955,17.4099496 L19.419955,17.4106751 C19.7878073,17.7393479 20.0112757,18.1935403 20.0112757,18.6941677 C20.0112757,19.6961481 19.2269595,20.5109374 18.2249791,20.5109374 C17.2229987,20.5109374 16.4234459,19.6961481 16.4234459,18.6941677 C16.4234459,17.6921874 17.1859958,16.8773981 18.1872506,16.8773981 C18.6886036,16.8773981 19.0528282,17.0812768 19.419955,17.4099496 M12.8276351,13.5630995 C12.8276351,14.5650799 12.0128459,15.3798692 11.0108655,15.3798692 C10.0088851,15.3798692 9.19409588,14.5650799 9.19409588,13.5630995 C9.19409588,12.5611192 10.0088851,11.7463299 11.0108655,11.7463299 C12.0128459,11.7463299 12.8276351,12.5611192 12.8276351,13.5630995 M4.07173423,5.63432218 C4.07173423,5.245429 4.38879826,4.92909052 4.77696589,4.92909052 C5.16585907,4.92909052 5.48219755,5.245429 5.48219755,5.63432218 C5.48219755,6.02321536 5.16585907,6.33955384 4.77696589,6.33955384 C4.38879826,6.33955384 4.07173423,6.02321536 4.07173423,5.63432218 M1.95023488,18.6941677 C1.95023488,17.6921874 2.76502413,16.8773981 3.76627896,16.8773981 C4.76825933,16.8773981 5.58304858,17.6921874 5.58304858,18.6941677 C5.58304858,19.6961481 4.76825933,20.5109374 3.76627896,20.5109374 C2.76502413,20.5109374 1.95023488,19.6961481 1.95023488,18.6941677 M1.95023488,26.2391307 C1.95023488,25.2378759 2.76502413,24.4230867 3.76627896,24.4230867 C4.76825933,24.4230867 5.58304858,25.2378759 5.58304858,26.2391307 C5.58304858,27.2418367 4.76825933,28.0566259 3.76627896,28.0566259 C2.76502413,28.0566259 1.95023488,27.2418367 1.95023488,26.2391307 M6.2861036,38.9369284 C5.89721042,38.9369284 5.58087194,38.6205899 5.58087194,38.2316967 C5.58087194,37.842078 5.89721042,37.526465 6.2861036,37.526465 C6.67499678,37.526465 6.99206081,37.842078 6.99206081,38.2316967 C6.99206081,38.6205899 6.67499678,38.9369284 6.2861036,38.9369284 M9.19409588,30.7672694 C9.19409588,29.765289 10.0088851,28.9504998 11.0108655,28.9504998 C12.0128459,28.9504998 12.8276351,29.765289 12.8276351,30.7672694 C12.8276351,31.7692498 12.0128459,32.584039 11.0108655,32.584039 C10.0088851,32.584039 9.19409588,31.7692498 9.19409588,30.7672694 M11.0108655,27.4711095 C9.9203684,27.4711095 8.95466538,28.0058376 8.35463803,28.8235291 L6.63799389,27.8534728 C6.90717181,27.3760628 7.11105051,26.8260982 7.11105051,26.2391307 C7.11105051,24.7198354 6.19323359,23.4406961 4.72327542,23.061235 L4.72327542,21.872789 C6.19323359,21.4926024 7.11105051,20.2141887 7.11105051,18.6941677 C7.11105051,18.0694718 6.90934846,17.486132 6.60606982,16.9876813 L8.43082046,15.5917289 C9.03375,16.3622598 9.96390122,16.8592594 11.0173954,16.8592594 C12.1180502,16.8592594 13.0902831,16.3143737 13.6888594,15.4814457 L15.459194,16.9593849 C15.1443066,17.4643656 14.9331725,18.0571375 14.9331725,18.6941677 C14.9331725,20.2998032 16.1129118,21.6391629 17.5821445,21.9301073 L17.5821445,23.0039168 C16.1129118,23.2948611 14.9317214,24.6342208 14.9317214,26.2391307 C14.9317214,26.8260982 15.1014994,27.3767884 15.3706773,27.8534728 L13.6605631,28.8242546 C13.0605357,28.0058376 12.1013626,27.4711095 11.0108655,27.4711095 M16.4379569,26.2391307 C16.4379569,25.2378759 17.2527461,24.4230867 18.254001,24.4230867 C19.2567069,24.4230867 20.0707706,25.2378759 20.0707706,26.2391307 C20.0707706,27.2418367 19.2567069,28.0566259 18.254001,28.0566259 C17.2527461,28.0566259 16.4379569,27.2418367 16.4379569,26.2391307 M25.4985875,32.584039 C24.4966071,32.584039 23.6818179,31.7692498 23.6818179,30.7672694 C23.6818179,29.765289 24.4966071,28.9504998 25.4985875,28.9504998 C26.4998423,28.9504998 27.3153571,29.765289 27.3153571,30.7672694 C27.3153571,31.7692498 26.4998423,32.584039 25.4985875,32.584039 M25.4985875,27.4711095 C24.4080904,27.4711095 23.4423874,28.0058376 22.84236,28.8242546 L21.1249903,27.8534728 C21.3948938,27.3760628 21.5196879,26.8260982 21.5196879,26.2391307 C21.5196879,24.7198354 20.5220608,23.4406961 19.0528282,23.061235 L19.0528282,21.872789 C20.5220608,21.4926024 21.5196879,20.2141887 21.5196879,18.6941677 C21.5196879,18.0810805 21.3636953,17.508624 21.0705743,17.0167031 L22.8837162,15.7665857 C23.4888224,16.4718174 24.3877751,16.9202054 25.3875788,16.9202054 C26.5303153,16.9202054 27.5410023,16.3354145 28.132323,15.4487961 L30.1442648,17.1262607 C29.8903234,17.5927874 29.6421863,18.12679 29.6421863,18.6941677 C29.6421863,20.1916967 30.8095914,21.4570506 31.9109717,21.856827 L31.9109717,23.077197 C30.8095914,23.4769734 29.6429118,24.7423273 29.6429118,26.2391307 C29.6429118,26.7738589 29.8250241,27.2759374 30.0521203,27.7228743 L28.1294208,28.8242546 C27.5279424,28.0058376 26.5890846,27.4711095 25.4985875,27.4711095 M39.5894353,30.6860082 C39.5894353,31.0749013 39.2723713,31.3905143 38.8834781,31.3905143 C38.4953105,31.3905143 38.1782465,31.0749013 38.1782465,30.6860082 C38.1782465,30.297115 38.4953105,29.9807765 38.8834781,29.9807765 C39.2723713,29.9807765 39.5894353,30.297115 39.5894353,30.6860082 M34.8603201,26.2391307 C34.8603201,27.2418367 34.0462564,28.0566259 33.0442761,28.0566259 C32.0415701,28.0566259 31.2267809,27.2418367 31.2267809,26.2391307 C31.2267809,25.2378759 32.0415701,24.4230867 33.0442761,24.4230867 C34.0462564,24.4230867 34.8603201,25.2378759 34.8603201,26.2391307 M33.0442761,20.5109374 C32.0415701,20.5109374 31.2267809,19.6961481 31.2267809,18.6941677 C31.2267809,17.6921874 32.0415701,16.8773981 33.0442761,16.8773981 C34.0462564,16.8773981 34.8603201,17.6921874 34.8603201,18.6941677 C34.8603201,19.6961481 34.0462564,20.5109374 33.0442761,20.5109374 M41.2980985,13.5834148 C40.9092053,13.5834148 40.5921412,13.2670764 40.5921412,12.8781832 C40.5921412,12.48929 40.9092053,12.1729515 41.2980985,12.1729515 C41.6869916,12.1729515 42.0040557,12.48929 42.0040557,12.8781832 C42.0040557,13.2670764 41.6869916,13.5834148 41.2980985,13.5834148" id="Fill-1"></path>
                </g>
                <circle id="Oval" stroke="#B0E1F4" stroke-width="2" cx="47" cy="47" r="47"></circle>
            </g>
        </g>
    </g>
</svg>