<?xml version="1.0" encoding="UTF-8"?>
<svg width="96px" height="96px" viewBox="0 0 96 96" version="1.1" xmlns="http://www.w3.org/2000/svg" xmlns:xlink="http://www.w3.org/1999/xlink">
    <!-- Generator: Sketch 46.2 (44496) - http://www.bohemiancoding.com/sketch -->
    <title>Group 17</title>
    <desc>Created with Sketch.</desc>
    <defs>
        <polygon id="path-1" points="32.4095238 49.4271191 32.4095238 -7.4939875e-05 7.39538242e-05 -7.4939875e-05 7.39538242e-05 49.4271191"></polygon>
    </defs>
    <g id="DR.JUANRIESTRA-All-web" stroke="none" stroke-width="1" fill="none" fill-rule="evenodd">
        <g id="2.-BIOGRAFÃA" transform="translate(-494.000000, -1276.000000)">
            <g id="Group-17" transform="translate(495.000000, 1277.000000)">
                <g id="Group-7" transform="translate(28.000000, 20.666667)">
                    <g id="Page-1" transform="translate(0.730159, 0.619048)">
                        <mask id="mask-2" fill="white">
                            <use xlink:href="#path-1"></use>
                        </mask>
                        <g id="Clip-2"></g>
                        <path d="M27.6314412,44.4938271 L21.6204744,44.4938271 L21.6204744,41.5029767 C21.6204744,41.0810652 21.5502183,41.078817 21.1338582,41.078817 L18.2496591,41.078817 L18.2496591,37.4262475 C26.4888546,37.026818 32.4095978,30.409627 32.4095978,22.3333567 C32.4095978,14.2555876 26.4888546,7.63839663 18.2496591,7.2389671 L18.2496591,4.65578961 C18.9988113,4.30731919 19.8152615,3.43277085 19.8152615,2.40984156 C19.8152615,1.08115758 18.7695545,-0.000224819625 17.4576136,-0.000224819625 C16.1464123,-0.000224819625 15.0518957,1.08115758 15.0518957,2.40984156 C15.0518957,3.50995892 15.6287356,4.43771457 16.7520942,4.72623309 L16.7520942,4.94955392 C7.38954004,5.19235911 7.39538242e-05,12.9096674 7.39538242e-05,22.3678291 C7.39538242e-05,31.8267401 7.38954004,39.5440484 16.7520942,39.7861042 L16.7520942,41.078817 L14.2310083,41.078817 C13.8139087,41.078817 13.3812789,41.0810652 13.3812789,41.5029767 L13.3812789,44.4938271 L8.54469877,44.4938271 C8.12907828,44.4938271 7.76448593,44.7845938 7.76448593,45.2065053 L7.76448593,48.498614 C7.76448593,48.9205255 8.12907828,49.4271191 8.54469877,49.4271191 L27.6314412,49.4271191 C28.0478012,49.4271191 28.3606259,48.9205255 28.3606259,48.498614 L28.3606259,45.2065053 C28.3606259,44.7845938 28.0478012,44.4938271 27.6314412,44.4938271 L27.6314412,44.4938271 Z M9.43140512,21.7248449 C9.56230339,19.0682264 10.2914881,16.7241071 11.21739,14.7382004 C12.7230898,15.329476 14.5046374,15.7581321 16.7520942,15.8555539 L16.7520942,21.7248449 L9.43140512,21.7248449 Z M16.7520942,23.2431268 L16.7520942,28.522641 C14.5046374,28.618564 12.6402615,29.2158348 11.1160732,29.8220984 C10.24046,27.8923966 9.56526154,25.5198002 9.43436328,23.2431268 L16.7520942,23.2431268 Z M11.9110768,13.2836174 C13.1165242,11.0743899 14.3663438,9.52912968 14.7967551,9.03077951 C15.4394138,8.89588773 16.0022024,8.80820808 16.7520942,8.77073814 L16.7520942,14.3252817 C14.8795833,14.2308574 13.2503806,13.7962062 11.9110768,13.2836174 L11.9110768,13.2836174 Z M10.5421916,12.6698598 C9.93355159,12.3708497 9.43658189,12.0808324 9.06829185,11.8462706 C10.0378265,11.0361706 11.1219895,10.3639599 12.2897204,9.85286994 C11.750597,10.6142591 11.1375198,11.5629979 10.5421916,12.6698598 L10.5421916,12.6698598 Z M9.85811869,14.1199464 C8.86639791,16.2632268 8.04920815,18.6890306 7.92126804,21.7248449 L4.19843254,21.7248449 C4.38183802,18.3098348 5.76921176,15.310741 7.92718434,13.038564 C8.35093975,13.3278319 9.00469156,13.6972855 9.85811869,14.1199464 L9.85811869,14.1199464 Z M7.92274711,23.2431268 C8.05216631,25.898996 8.81758838,28.3570239 9.7597601,30.447097 C8.83681638,30.909476 8.15422258,31.3875924 7.75487193,31.6693663 C5.69599747,29.4189219 4.37740079,26.2781917 4.19843254,23.2431268 L7.92274711,23.2431268 Z M10.434219,31.7510508 C11.0776172,32.9733202 11.7483784,34.0149844 12.330395,34.8303303 C11.0650451,34.2832692 9.90027237,33.5413644 8.8700956,32.6458329 C9.23468795,32.4060253 9.76419733,32.086032 10.434219,31.7510508 L10.434219,31.7510508 Z M11.7979275,31.1305486 C13.1579383,30.6007237 14.8795833,30.1465881 16.7520942,30.0521638 L16.7520942,35.8944765 C16.0022024,35.8577559 15.4675162,35.7738233 14.8374297,35.6434279 C14.4469535,35.1960368 13.0802868,33.536868 11.7979275,31.1305486 L11.7979275,31.1305486 Z M18.2496591,35.8944765 L18.2496591,30.0574096 C20.1221699,30.1563303 21.6973864,30.5684996 23.0019318,31.0586063 C21.6441396,33.5833307 20.1295653,35.312943 19.7597962,35.7236136 C19.2717009,35.8075462 18.6238654,35.8659993 18.2496591,35.8944765 L18.2496591,35.8944765 Z M25.4357522,23.2431268 C25.3122493,25.5198002 24.5645761,27.8324447 23.6882233,29.7494067 C22.2180213,29.1821119 20.1221699,28.629805 18.2496591,28.5271374 L18.2496591,23.2431268 L25.4357522,23.2431268 Z M18.2496591,21.7248449 L18.2496591,15.8533057 C20.1221699,15.7558839 22.0996952,15.3841821 23.547711,14.8416174 C24.4780501,16.8027939 25.2893236,19.0682264 25.4305754,21.7248449 L18.2496591,21.7248449 Z M22.3363474,35.0319185 C22.976048,34.1641148 23.7370328,33.0197829 24.455864,31.6626217 C25.2471699,32.0448151 25.857289,32.4172663 26.2536815,32.6803052 C25.0985227,33.6755068 23.7769679,34.4758646 22.3363474,35.0319185 L22.3363474,35.0319185 Z M27.3711237,31.6723639 C26.9562428,31.3763514 26.1908207,30.909476 25.1325415,30.3946391 C26.0717551,28.3195539 26.824605,25.898996 26.9451497,23.2431268 L30.9652796,23.2431268 C30.7848323,26.2781917 29.4514448,29.4174231 27.3711237,31.6723639 L27.3711237,31.6723639 Z M30.9652796,21.7248449 L26.9421916,21.7248449 C26.8046374,18.6890306 25.9904058,16.3606487 24.9986851,14.2458454 C25.9992803,13.7707266 26.7536093,13.3375741 27.2180393,13.0198291 C29.3856259,15.2935049 30.780395,18.3098348 30.9652796,21.7248449 L30.9652796,21.7248449 Z M26.0747132,11.8297838 C25.6502183,12.1003168 25.0526714,12.4480378 24.3049982,12.7987564 C23.6002183,11.5052942 22.8665963,10.4216636 22.2527796,9.60032256 C23.6512464,10.1286487 24.939522,10.8870402 26.0747132,11.8297838 L26.0747132,11.8297838 Z M19.6961959,8.92586368 C19.7457449,8.9783216 21.3246591,10.6944447 22.8207449,13.3892826 C21.545781,13.8509123 19.7479636,14.2308574 18.2496591,14.3230335 L18.2496591,8.77073814 C18.6238654,8.7969671 19.234724,8.85017441 19.6961959,8.92586368 L19.6961959,8.92586368 Z M17.4790602,1.52854863 C17.9590206,1.52854863 18.3494968,1.92423117 18.3494968,2.40984156 C18.3494968,2.89620135 17.9590206,3.29188389 17.4790602,3.29188389 C16.9990999,3.29188389 16.6086237,2.89620135 16.6086237,2.40984156 C16.6086237,1.92423117 16.9990999,1.52854863 17.4790602,1.52854863 L17.4790602,1.52854863 Z M1.50799242,22.3678291 C1.50799242,13.752741 8.13869228,6.71963377 16.7520942,6.47757797 L16.7520942,7.2389671 C16.0022024,7.28243223 15.1073611,7.40158663 14.3005249,7.58443992 C14.2672457,7.58893632 14.2531944,7.5971797 14.2206548,7.60692189 C11.6174802,8.21318547 9.28275794,9.51039471 7.39545635,11.2999589 C7.34073052,11.3389277 7.29340007,11.3838916 7.24902778,11.4393471 C7.24606962,11.4445929 7.24606962,11.4498387 7.2416324,11.4550845 C4.4239917,14.2061273 2.62839286,18.064032 2.62839286,22.3333567 C2.62839286,30.409627 8.88710498,37.026818 16.7520942,37.4262475 L16.7520942,38.2580801 C8.13869228,38.0160243 1.50799242,30.9836665 1.50799242,22.3678291 L1.50799242,22.3678291 Z M14.8795833,44.113882 L20.1221699,44.113882 L20.1221699,42.5963495 L14.8795833,42.5963495 L14.8795833,44.113882 Z M9.26205087,47.9095866 L26.863061,47.9095866 L26.863061,46.012109 L9.26205087,46.012109 L9.26205087,47.9095866 Z" id="Fill-1" fill="#57B6E5" mask="url(#mask-2)"></path>
                    </g>
                </g>
                <circle id="Oval" stroke="#B0E1F4" stroke-width="2" cx="47" cy="47" r="47"></circle>
            </g>
        </g>
    </g>
</svg>