<?xml version="1.0" encoding="UTF-8"?>
<svg width="96px" height="96px" viewBox="0 0 96 96" version="1.1" xmlns="http://www.w3.org/2000/svg" xmlns:xlink="http://www.w3.org/1999/xlink">
    <!-- Generator: Sketch 46.2 (44496) - http://www.bohemiancoding.com/sketch -->
    <title>Group 21</title>
    <desc>Created with Sketch.</desc>
    <defs>
        <polygon id="path-1" points="2.44972524e-16 81.9224727 2.44972524e-16 0.000298181818 81.9224727 0.000298181818 81.9224727 81.9224727 0 81.9224727"></polygon>
        <polygon id="path-3" points="38.9541608 43.9866369 38.9541608 -0.000233153493 -3.71321741e-05 -0.000233153493 -3.71321741e-05 43.9866369"></polygon>
    </defs>
    <g id="DR.JUANRIESTRA-All-web" stroke="none" stroke-width="1" fill="none" fill-rule="evenodd">
        <g id="2.-BIOGRAFÃA" transform="translate(-490.000000, -1611.000000)">
            <g id="Group-21" transform="translate(491.000000, 1612.000000)">
                <g id="Group-2">
                    <g id="Page-1" transform="translate(13.000000, 31.000000)">
                        <mask id="mask-2" fill="white">
                            <use xlink:href="#path-1"></use>
                        </mask>
                        <g id="Clip-2"></g>
                    </g>
                    <g id="Page-1" transform="translate(26.000000, 26.000000)">
                        <mask id="mask-4" fill="white">
                            <use xlink:href="#path-3"></use>
                        </mask>
                        <g id="Clip-2"></g>
                        <path d="M38.3596128,5.25007887 C37.0678407,5.13539253 35.1045777,4.85054657 33.1912443,4.57193356 C32.3059516,2.41283854 31.5121967,0.545445741 31.446904,0.392115091 C31.308637,0.0686248156 30.9290429,-0.0859524257 30.5942576,0.0480560698 C30.2620328,0.18268786 30.1039219,0.554795171 30.2409087,0.878285446 C30.2556315,0.913189984 30.9079188,2.44836638 31.6952724,4.35440349 C30.6665917,4.20730579 29.6705574,4.06955752 28.8102295,3.96671379 C28.807669,3.96671379 28.8051085,3.9660905 28.8031881,3.9660905 C28.4095113,3.91996664 28.0433599,3.88132233 27.7175363,3.85202745 C27.0069977,3.79094451 25.3439532,3.64260022 24.3152724,4.88545111 C23.3723685,6.02421167 23.1047963,7.08630691 23.4735082,8.22880724 C24.0016112,9.86745066 24.8862639,11.7572821 24.9240312,11.8364406 C25.0334926,12.0707996 25.2703388,12.2085479 25.517427,12.2085479 C25.6083247,12.2085479 25.7011429,12.1904723 25.7881998,12.1505814 C26.1165839,12.0053536 26.2612521,11.6276367 26.1108228,11.3091328 C26.106982,11.3016532 25.9571928,10.9806561 25.7485121,10.5007187 L29.5329305,13.4707209 C28.4760843,13.3329727 27.2777705,13.15845 26.1005808,12.9876671 C24.1309165,12.7003279 22.0946792,12.4030161 20.7382545,12.2833433 C19.5476222,12.1780064 18.5291835,12.6249092 17.7123841,13.6115857 C17.0082467,14.4630071 16.9653583,15.6803029 17.1599563,16.5354641 C17.501783,18.0419689 18.4222826,20.2621468 18.4619703,20.3556411 C18.5650304,20.6024661 18.808918,20.7526803 19.0668884,20.7526803 C19.1481842,20.7526803 19.2320406,20.7377212 19.3120562,20.7059331 C19.6462014,20.5737945 19.8075129,20.2029338 19.6718064,19.8781969 C19.6673255,19.8669776 19.4388009,19.3178544 19.1718689,18.5967017 L22.9287619,21.5455119 C21.8539922,21.4065171 20.6255925,21.2276313 19.4221577,21.051862 C17.4537736,20.7651462 15.4188165,20.4684576 14.063032,20.3487849 C12.8711194,20.2446946 11.853961,20.6903507 11.0371616,21.6764039 C10.1512287,22.7472253 10.3899953,24.1857909 10.4840937,24.6009056 C10.8259204,26.1080337 11.7477002,28.3269651 11.7861077,28.4210827 C11.8891678,28.6672843 12.1330554,28.8181218 12.3916659,28.8181218 C12.4736019,28.8181218 12.556178,28.8025394 12.6361936,28.7701281 C12.9703388,28.6386127 13.1316503,28.2683753 12.9959438,27.9423919 C12.9914629,27.9324191 12.7635785,27.383296 12.4972865,26.6621433 L16.2535394,29.6097069 C15.1787697,29.470712 13.95037,29.2924495 12.7462951,29.1166803 C10.777911,28.8293411 8.74295394,28.5326525 7.3871694,28.4129798 C6.19589696,28.3095128 5.17809836,28.755169 4.36257923,29.7418455 C3.47600625,30.8126668 3.71413271,32.2506092 3.80823107,32.6657239 C4.15133802,34.172852 5.07183763,36.3924066 5.11152537,36.4859009 C5.21394536,36.7327259 5.45783294,36.8823167 5.7164434,36.8823167 C5.79773927,36.8823167 5.8809555,36.867981 5.96161124,36.8355696 C6.29447619,36.703431 6.45578767,36.3331936 6.32008119,36.0084567 C6.31624044,35.9966141 6.08835597,35.4481142 5.82142389,34.7269615 L9.57767681,37.6745251 C8.5029071,37.5367768 7.27450742,37.3566445 6.0710726,37.1814985 C4.1020484,36.8947827 2.06773146,36.5980941 0.711946916,36.4784214 C0.353476971,36.4516197 0.0353348946,36.7040543 0.00268852459,37.0530997 C-0.0299578454,37.4033916 0.234413739,37.7125461 0.594163934,37.7443342 C1.91218111,37.8602671 3.92793443,38.1544625 5.87711475,38.4386852 C7.84613895,38.725401 9.88045589,39.0220896 11.2362404,39.1417623 C11.428918,39.157968 11.6913692,39.1816532 11.9928681,39.1816532 C12.8019859,39.1816532 13.888918,39.0146101 14.6385043,38.1089619 C14.7249212,38.0048716 14.7991756,37.9020279 14.8740703,37.7991842 C14.9124778,37.7698893 14.9476846,37.7362313 14.9796909,37.6982103 C15.0385824,37.6246615 15.0782701,37.5430098 15.1006745,37.4594882 C15.6531023,36.5575799 15.7779266,35.6868363 15.4809087,34.7649825 C14.9521655,33.1263391 14.0675129,31.2358844 14.0297455,31.1561026 C13.8799563,30.8375987 13.4920406,30.6967339 13.1649368,30.842585 C12.8371928,30.9890594 12.6931647,31.3655298 12.8429539,31.6852803 C12.8442342,31.6890201 12.8788009,31.7631922 12.9376924,31.8903445 L10.6556472,30.099617 C11.2778486,30.1881249 11.9179735,30.2803726 12.5536175,30.3732436 C14.5213614,30.6612061 16.5563185,30.9572714 17.912103,31.0775674 C18.6220016,31.1386503 20.2863263,31.285748 21.3137268,30.0435204 C22.2572709,28.9047598 22.5248431,27.8420413 22.1561311,26.7001643 C21.627388,25.0615209 20.7427354,23.1710661 20.7056081,23.0912843 C20.5558189,22.7721571 20.1685433,22.632539 19.8401593,22.7777668 C19.5130554,22.9236179 19.3683872,23.3007116 19.5181764,23.6204621 C19.5194567,23.6242018 19.5546635,23.698374 19.6129149,23.8255262 L17.3302295,22.0347987 C17.9537112,22.1233067 18.5938361,22.216801 19.22884,22.3090487 C21.1965839,22.5951412 23.231541,22.8918298 24.5873255,23.0115025 C25.2991444,23.0738321 26.9609087,23.2215531 27.9902295,21.9793255 C28.9324934,20.8393183 29.2000656,19.7772231 28.8313536,18.635346 C28.6201124,17.9790161 28.243719,16.9630447 27.7136956,15.6142336 C27.5843903,15.2870035 27.2067166,15.1237002 26.8712912,15.2483592 C26.593477,15.351203 26.4334457,15.6185966 26.4564902,15.8922233 L24.0067322,13.9699805 C24.630854,14.0578651 25.2709789,14.1507362 25.9072631,14.2442304 C27.8743669,14.5309463 29.9080437,14.8276349 31.2638283,14.9473076 C31.9730867,15.0090138 33.6367713,15.1561115 34.665452,13.9138839 C35.6077158,12.7745001 35.8759282,11.7124048 35.5078564,10.5699045 C35.1724309,9.53087118 34.4727744,7.73515734 33.7468728,5.93819691 C35.4310414,6.18190539 37.084484,6.41314795 38.2418298,6.51599168 C38.6022201,6.54341668 38.9184418,6.28973548 38.9517283,5.93944351 C38.9837346,5.59102142 38.719363,5.28124364 38.3596128,5.25007887 L38.3596128,5.25007887 Z M11.9525402,37.906391 L5.11984699,32.5441813 C5.10768462,32.493071 5.094242,32.4407142 5.08271975,32.3920972 C4.98414052,31.9576604 4.97133802,31.3536872 5.18193911,30.8718799 L13.5426105,37.391549 C13.1591756,37.7898347 12.6233911,37.9132472 11.9525402,37.906391 L11.9525402,37.906391 Z M13.8793162,34.2626065 C13.8985199,34.2775656 13.919644,34.2900315 13.9407681,34.3018741 C14.0463888,34.5848502 14.1462482,34.8696961 14.2345855,35.1464393 C14.3408462,35.473046 14.3971772,35.8376738 14.2345855,36.3020288 L6.06531148,29.9331971 C6.42442155,29.7212767 6.81617799,29.639625 7.27002654,29.6782693 C7.53695863,29.7019546 7.83909758,29.7349892 8.15723966,29.7711404 L13.8793162,34.2626065 Z M18.6290429,29.8415727 L11.7957096,24.4799863 C11.7835472,24.4288761 11.7694645,24.375896 11.7585824,24.3266557 C11.6568025,23.8828694 11.6459204,23.2595741 11.8725246,22.7721571 L20.2203934,29.3242376 C19.8369586,29.7250165 19.3011741,29.848429 18.6290429,29.8415727 L18.6290429,29.8415727 Z M20.5551788,26.1965416 C20.5743825,26.2127473 20.5955066,26.2245899 20.6153505,26.2376791 C20.7209711,26.5200319 20.822751,26.8061245 20.9110882,27.0803744 C21.0160687,27.4076045 21.0723997,27.7703624 20.9104481,28.2334708 L12.776381,21.8490567 C13.1258891,21.6514721 13.5061233,21.5748068 13.9446089,21.6140744 C14.2121811,21.6383829 14.5143201,21.670171 14.8331023,21.7063221 L20.5551788,26.1965416 Z M25.3036253,21.7767545 L18.4715722,16.4145448 C18.4594098,16.3634346 18.4453271,16.3104545 18.434445,16.2612141 C18.3326651,15.8168046 18.3211429,15.1941325 18.5483872,14.7079622 L26.8968962,21.2587961 C26.5128212,21.6601983 25.9757564,21.7829874 25.3036253,21.7767545 L25.3036253,21.7767545 Z M27.2304012,18.1323467 C27.2508852,18.1485524 27.2739297,18.1616416 27.295694,18.1753541 C27.4141171,18.5032074 27.5120562,18.7843136 27.5863107,19.0161795 C27.6919313,19.3415396 27.7482623,19.7055441 27.5863107,20.1680292 L19.4509633,13.7836152 C19.8004715,13.5872772 20.1807057,13.5099886 20.6204715,13.5492562 C20.8874036,13.5729414 21.1901827,13.6047294 21.5089649,13.6427505 L27.2304012,18.1323467 Z M32.2541015,5.72129014 C32.415413,6.11708267 32.5767244,6.51599168 32.7361155,6.91240751 L30.9847338,5.53866461 C31.4033755,5.59725437 31.8277783,5.65896061 32.2541015,5.72129014 L32.2541015,5.72129014 Z M31.918676,13.7106896 L24.8145699,8.13468965 C24.7812834,8.03870217 24.748637,7.94209139 24.7185511,7.8479738 C24.5854052,7.43722218 24.5303544,6.96601091 24.8939454,6.31155082 L33.6124465,13.1540869 C33.2162092,13.6009897 32.6432974,13.726272 31.918676,13.7106896 L31.918676,13.7106896 Z M34.2621733,10.9507379 C34.3626729,11.2636322 34.4183638,11.6101844 34.2807369,12.0458678 L25.7369899,5.34107999 C26.2100422,5.07119311 26.8367244,5.05062437 27.5991132,5.11794026 C27.8666854,5.14100219 28.1694645,5.17403684 28.4876066,5.21143456 L33.5817205,9.2086275 C33.604765,9.22607977 33.6297299,9.24103886 33.6540546,9.25599794 C33.9081842,9.92479383 34.1207057,10.5125613 34.2621733,10.9507379 L34.2621733,10.9507379 Z M7.7289961,39.2795106 C7.63233724,38.9416845 7.27258704,38.7447232 6.92627947,38.8375942 C6.57805152,38.9323351 6.37513193,39.2832503 6.47243091,39.6210764 L7.59008899,43.5222819 C7.67138486,43.8033881 7.93383607,43.9866369 8.21869165,43.9866369 C8.27694301,43.9866369 8.3358345,43.9797806 8.39408587,43.963575 C8.74103357,43.8694574 8.94459329,43.5179188 8.8472943,43.1800927 L7.7289961,39.2795106 Z" id="Fill-1" fill="#57B6E5" mask="url(#mask-4)"></path>
                    </g>
                    <circle id="Oval" stroke="#B0E1F4" stroke-width="2" cx="47" cy="47" r="47"></circle>
                </g>
            </g>
        </g>
    </g>
</svg>