<?xml version="1.0" encoding="UTF-8"?>
<svg width="96px" height="96px" viewBox="0 0 96 96" version="1.1" xmlns="http://www.w3.org/2000/svg" xmlns:xlink="http://www.w3.org/1999/xlink">
    <!-- Generator: Sketch 46.2 (44496) - http://www.bohemiancoding.com/sketch -->
    <title>Group 19</title>
    <desc>Created with Sketch.</desc>
    <defs>
        <polygon id="path-1" points="30.7747302 -0.000223129252 30.7747302 46.3257234 0 46.3257234 0 -0.000223129252 30.7747302 -0.000223129252"></polygon>
    </defs>
    <g id="DR.JUANRIESTRA-All-web" stroke="none" stroke-width="1" fill="none" fill-rule="evenodd">
        <g id="2.-BIOGRAFÃA" transform="translate(-490.000000, -1452.000000)">
            <g id="Group-19" transform="translate(491.000000, 1453.000000)">
                <g id="Group-4" transform="translate(31.000000, 25.333333)">
                    <g id="Page-1" transform="translate(0.031746, 0.222222)">
                        <mask id="mask-2" fill="white">
                            <use xlink:href="#path-1"></use>
                        </mask>
                        <g id="Clip-2"></g>
                        <path d="M20.9487129,18.9970014 L20.9330939,7.83458866 L21.2313433,7.83310113 C21.4299283,7.83235737 21.6262821,7.75054331 21.7661098,7.60774059 C21.9089125,7.46493787 21.9877515,7.27155918 21.9847764,7.07074286 L21.9728762,4.82680635 C21.9691574,4.4229424 21.6523138,4.0971737 21.2536562,4.0763483 L21.2350621,0.752466213 C21.2350621,0.335214512 20.8959057,-0.000223129252 20.4771664,-0.000223129252 L20.4734476,-0.000223129252 L10.3121415,0.0533278912 C10.1090939,0.0540716553 9.91720272,0.134398186 9.77737506,0.277200907 C9.63457234,0.420003628 9.55573333,0.613382313 9.55573333,0.814198639 L9.57432744,4.13584943 L9.43524354,4.1365932 C9.23145215,4.13808073 9.03881723,4.21840726 8.9004771,4.36120998 C8.75693061,4.50475646 8.67809161,4.69813515 8.67809161,4.89895147 L8.69222313,7.1488381 C8.69222313,7.56683356 9.03212336,7.90896508 9.45011882,7.90896508 L9.45383764,7.90896508 L9.59664036,7.9022712 L9.67622313,19.070634 C3.83395556,21.511668 -0.0336181406,27.1813823 -0.000148752835,33.3456998 C0.0266267574,37.9927383 2.40295329,42.8703438 6.05706667,45.7725116 C6.06004172,45.7762304 6.06747937,45.7777179 6.07119819,45.7814367 C6.13144308,45.8268063 6.1954068,45.8632508 6.26755193,45.8885388 C6.28242721,45.8937451 6.33523447,45.8959764 6.34639093,45.900439 C6.41779229,45.9227519 6.60670839,45.9361397 6.60670839,45.9368834 L6.60670839,46.0231601 L6.60670839,46.3258721 L6.53084444,46.3258721 L24.3834159,46.0350603 C24.3871347,46.0350603 24.3908535,45.9361397 24.3945723,45.9361397 C24.4354794,45.9353959 24.4771302,45.8818449 24.518781,45.8736635 C24.5373751,45.8706884 24.5529941,45.8416816 24.5678694,45.8364753 C24.59762,45.8297814 24.6243955,45.8096998 24.654146,45.7992871 C24.6697651,45.7911057 24.6883592,45.7762304 24.7076971,45.7687927 C24.73001,45.7568925 24.7523229,45.7412735 24.7783546,45.7263982 C24.7939737,45.7159855 24.808849,45.7033415 24.8281868,45.6914413 C24.8356245,45.6847474 24.846781,45.6787973 24.8542186,45.6713596 C28.4770939,42.7320036 30.8013569,37.8276227 30.7745814,33.1776091 C30.741112,26.8994957 26.8125497,21.2692009 20.9487129,18.9970014 L20.9487129,18.9970014 Z M19.7244771,1.51705578 L19.7356336,4.08081088 L11.0923501,4.12766803 L11.0774748,1.56391293 L19.7244771,1.51705578 Z M20.4593161,5.59288345 L20.4630349,6.32102857 L10.2035519,6.37606712 L10.1998331,5.64940952 L20.4593161,5.59288345 Z M24.0933478,44.3251465 L6.8015746,44.4196045 C3.60859501,41.7740354 1.54018685,37.4557406 1.51787392,33.3367746 C1.48812336,27.6298721 5.17868118,22.3855909 10.707824,20.288176 C10.7115429,20.2859447 10.7152617,20.2829696 10.7189805,20.2807383 C10.7494748,20.2695819 10.7717878,20.2561941 10.7985633,20.2428063 C10.8171574,20.2323937 10.8357515,20.2227247 10.8550893,20.2108245 C10.8774023,20.196693 10.8922776,20.1803302 10.9153342,20.1647111 C10.9339283,20.1490921 10.9532662,20.1349605 10.9718603,20.1171102 C10.9859918,20.1014912 11.0016109,20.0821533 11.0164862,20.0643029 C11.0321052,20.0449651 11.0469805,20.0271147 11.0618558,20.0062893 C11.0774748,19.9854639 11.0878875,19.9638948 11.0997878,19.9423256 C11.1102005,19.9215002 11.1221007,19.9014186 11.1340009,19.8798494 C11.1406948,19.8582803 11.1481324,19.8337361 11.1563138,19.8114231 C11.1637515,19.7868789 11.1711891,19.7638222 11.1786268,19.739278 C11.1823456,19.7177088 11.1823456,19.6961397 11.1860644,19.6753143 C11.1897832,19.6463075 11.1942458,19.6180444 11.1942458,19.5882939 C11.1942458,19.5830875 11.1979646,19.5786249 11.1979646,19.5734186 L11.1102005,7.88813968 L19.4150712,7.84351383 L19.4306902,19.5265615 C19.4306902,19.5339991 19.4344091,19.540693 19.4344091,19.5481306 C19.4344091,19.5771374 19.4381279,19.6054005 19.4418467,19.632176 C19.4455655,19.6559764 19.4492844,19.6782893 19.4530032,19.6991147 C19.4604408,19.723659 19.4686222,19.7467156 19.4760599,19.7697723 C19.4834975,19.7935728 19.4909351,19.8173732 19.5020916,19.8404299 C19.5095293,19.8605116 19.5251483,19.8805932 19.5363048,19.9006748 C19.5474612,19.9229878 19.5586177,19.9438132 19.573493,19.9653823 C19.589112,19.9847202 19.6032435,20.0018268 19.6188626,20.0204209 C19.6337379,20.039015 19.6530757,20.0576091 19.667951,20.0739719 C19.6872889,20.0910785 19.705883,20.1059537 19.7244771,20.120829 C19.7430712,20.1364481 19.7616653,20.1505796 19.784722,20.1647111 C19.8033161,20.1766113 19.825629,20.1877678 19.8449669,20.1974367 C19.8717424,20.2100807 19.8940553,20.2212372 19.9200871,20.2323937 C19.9275247,20.2361125 19.9357061,20.2398313 19.9424,20.2420626 C25.4834431,22.1669243 29.2268082,27.3688109 29.2610213,33.1857905 C29.2833342,37.309219 27.2602957,41.6483392 24.0933478,44.3251465 L24.0933478,44.3251465 Z M28.495688,31.4357134 L28.4629624,31.1716771 L28.4629624,31.1634957 C28.4584998,31.1456454 28.454781,31.1285388 28.4510621,31.1114322 C28.4436245,31.0801941 28.4391619,31.0496998 28.4287492,31.020693 C28.416849,30.9820172 28.3982549,30.9455728 28.378917,30.9106159 C28.3751982,30.9024345 28.3751982,30.8927655 28.3714794,30.8845841 C28.3685043,30.8838404 28.3685043,30.8830966 28.3685043,30.8823528 C28.3685043,30.878634 28.3647855,30.8749152 28.3610667,30.8704526 C27.5206132,29.3970558 25.0237968,26.9039583 21.5095111,27.9273778 C19.3704454,28.5528834 18.3001687,29.9095093 17.3630259,31.1077134 C16.5530667,32.1393143 15.9126857,32.9537361 14.7345633,33.2222349 C12.1804771,33.805346 10.5947719,32.1839401 8.7904,30.0024798 C7.15263129,28.0203483 5.35941587,26.7700807 5.28429569,26.7180172 C5.27313923,26.7098358 5.25752018,26.7038857 5.24710748,26.6971918 C5.23148844,26.6890104 5.22405079,26.6800853 5.20917551,26.6733914 C5.20173787,26.668185 5.19058141,26.6659537 5.17868118,26.6607474 C5.15636825,26.6488472 5.12959274,26.6384345 5.103561,26.6295093 C5.08496689,26.6220717 5.06265397,26.614634 5.03959728,26.6094277 C5.01282177,26.6027338 4.98679002,26.5975274 4.96075828,26.5938086 C4.93844535,26.5908336 4.9146449,26.5878585 4.89605079,26.586371 C4.86630023,26.5848834 4.84026848,26.5856272 4.81349297,26.5871147 C4.79043628,26.5878585 4.77184218,26.589346 4.74952925,26.5923211 C4.72349751,26.5960399 4.696722,26.6027338 4.66994649,26.6086839 C4.64763356,26.6138902 4.62903946,26.6190966 4.60970159,26.6257905 C4.58366984,26.6347156 4.5576381,26.6451283 4.53532517,26.6570286 C4.5159873,26.6659537 4.49367438,26.6756227 4.47508027,26.6860354 C4.45202358,26.6986794 4.43342948,26.7142984 4.41111655,26.7291737 C4.39177868,26.7425615 4.37318458,26.7574367 4.35384671,26.7730558 C4.33525261,26.7894186 4.3166585,26.8072689 4.30103946,26.825863 C4.28244535,26.8437134 4.26757007,26.8630512 4.25269478,26.8838766 C4.24451338,26.8928018 4.23707574,26.9002395 4.2296381,26.9099084 C4.22220045,26.9225524 4.21476281,26.9359401 4.20732517,26.9485841 C4.19914376,26.9612281 4.19244989,26.9708971 4.18501224,26.9842848 C3.13779229,28.9403846 2.52046803,31.2534912 2.5271619,33.1724027 C2.55021859,36.9879129 4.50111202,41.0667156 7.4992254,43.4497361 C7.63459048,43.5568381 7.79970612,43.6892281 7.97374694,43.6892281 L7.97746576,43.6892281 L23.3287583,43.5315501 C23.5020553,43.5300626 23.6679147,43.434117 23.8032798,43.3255274 C26.7708989,40.9164753 28.6734476,36.8793234 28.6541098,33.0690195 C28.6503909,32.6264798 28.5641143,31.9303166 28.495688,31.4357134 L28.495688,31.4357134 Z M23.0461279,41.9428698 L8.24075828,42.0231964 C5.70229116,39.8982621 4.06452245,36.4501714 4.04518458,33.1642213 C4.03774694,31.7637134 4.44458594,30.0471057 5.12959274,28.5104889 C5.76253605,29.0244299 6.71901678,29.8782712 7.62343401,30.970117 C8.93766531,32.5573098 10.8394703,34.855541 13.7431256,34.855541 C14.1618649,34.855541 14.6058921,34.8071964 15.0692571,34.7015819 C16.7717333,34.313337 17.6791256,33.1597587 18.5530485,32.0441125 C19.4306902,30.9269787 20.2592435,29.8715773 21.9349442,29.3829243 C24.8579374,28.532058 26.6087583,30.941854 26.9776653,31.5152961 L26.9932844,31.6328109 C27.0498104,32.0619628 27.1360871,32.7105252 27.1360871,33.0586068 C27.1554249,36.3400943 25.5585633,39.7971102 23.0461279,41.9428698 L23.0461279,41.9428698 Z M21.8635429,35.0853642 C21.1480417,35.0898268 20.4734476,35.3732009 19.9654567,35.8841669 C19.4604408,36.3951329 19.1859918,37.176829 19.1897107,37.8945615 C19.1971483,39.3709333 20.40279,40.6762395 21.8784181,40.6762395 L21.8940372,40.6762395 C23.3778467,40.6762395 24.5790259,39.3493642 24.5715882,37.8662984 C24.559688,36.3906703 23.35479,35.0853642 21.8635429,35.0853642 L21.8635429,35.0853642 Z M21.780985,38.9507066 L21.6716517,39.7086023 L21.6716517,38.9507066 C21.295307,38.9507066 20.6058376,38.4263528 20.6021188,37.7822531 C20.5976562,37.4683846 20.7716971,37.1731102 20.9940825,36.949981 C21.2120054,36.7275955 21.531824,36.6041306 21.8523864,36.6026431 C22.4964862,36.6026431 22.985883,37.1262531 22.9896018,37.7703528 C22.9933206,38.4174277 22.4288036,38.9469878 21.780985,38.9507066 L21.780985,38.9507066 Z M12.5679782,10.9226975 L12.5716971,10.9226975 L14.2295474,10.8475773 C14.6467991,10.845346 14.9829805,10.5470966 14.9829805,10.1283574 C14.9792617,9.71110567 14.6401052,9.41583129 14.2221098,9.41583129 L14.2176472,9.41583129 L12.5650032,9.34889252 C12.1462639,9.35112381 11.8078512,9.72226213 11.8078512,10.1402576 C11.8115701,10.5575093 12.1507265,10.9226975 12.5679782,10.9226975 L12.5679782,10.9226975 Z M11.8190077,12.4206385 C11.8219828,12.8378902 12.161883,13.1822531 12.5798785,13.1822531 L12.5835973,13.1822531 L15.7096381,13.1577088 C16.1276336,13.1554776 16.46679,12.8319401 16.4630712,12.4124571 C16.4630712,11.9959492 16.1239147,11.6753868 15.7059193,11.6753868 L15.7014567,11.6753868 L12.5716971,11.6761306 C12.1544454,11.6783619 11.8190077,12.0018993 11.8190077,12.4206385 L11.8190077,12.4206385 Z M12.5954975,15.4418086 L14.2481415,15.4842032 C14.6705995,15.4819719 15.0052934,15.1242213 15.0052934,14.7054821 C15.0015746,14.2882304 14.6624181,13.9356862 14.2444227,13.9356862 L14.2399601,13.9356862 L12.5835973,13.9862621 C12.164858,13.9884934 11.8301642,14.2993868 11.8301642,14.7181261 C11.833883,15.1353778 12.1730395,15.4418086 12.5873161,15.4418086 L12.5954975,15.4418086 Z M12.6021914,18.0784526 L12.6059102,18.0784526 L14.0785633,18.0844027 C14.4965587,18.0821714 14.8357152,17.7422712 14.8319964,17.323532 C14.8282776,16.907024 14.4891211,16.5715864 14.0748444,16.5715864 L14.0711256,16.5715864 L12.5984726,16.5842304 C12.1767583,16.5864617 11.8413206,16.9174367 11.8413206,17.3354322 C11.8457832,17.7534277 12.1841959,18.0784526 12.6021914,18.0784526 L12.6021914,18.0784526 Z M12.609629,20.3380082 L12.6133478,20.3380082 L15.7431075,20.30082 C16.1611029,20.2985887 16.5010032,19.9817451 16.4972844,19.5615184 C16.4972844,19.1450104 16.1581279,18.8318857 15.7393887,18.8318857 L15.7356698,18.8318857 L12.6059102,18.8155229 C12.1879147,18.8177542 11.849502,19.162117 11.8532209,19.5808562 C11.8561959,19.9981079 12.1953524,20.3380082 12.609629,20.3380082 L12.609629,20.3380082 Z" id="Fill-1" fill="#57B6E5" mask="url(#mask-2)"></path>
                    </g>
                </g>
                <circle id="Oval" stroke="#B0E1F4" stroke-width="2" cx="47" cy="47" r="47"></circle>
            </g>
        </g>
    </g>
</svg>