<?xml version="1.0" encoding="UTF-8"?>
<svg width="96px" height="96px" viewBox="0 0 96 96" version="1.1" xmlns="http://www.w3.org/2000/svg" xmlns:xlink="http://www.w3.org/1999/xlink">
    <!-- Generator: Sketch 46.2 (44496) - http://www.bohemiancoding.com/sketch -->
    <title>Group 18</title>
    <desc>Created with Sketch.</desc>
    <defs>
        <polygon id="path-1" points="2.44972524e-16 81.9224727 2.44972524e-16 0.000298181818 81.9224727 0.000298181818 81.9224727 81.9224727 0 81.9224727"></polygon>
        <polygon id="path-3" points="41.5591186 -0.000107447963 41.5591186 48.018917 4.523056e-05 48.018917 4.523056e-05 -0.000107447963 41.5591186 -0.000107447963"></polygon>
    </defs>
    <g id="DR.JUANRIESTRA-All-web" stroke="none" stroke-width="1" fill="none" fill-rule="evenodd">
        <g id="2.-BIOGRAFÃA" transform="translate(-640.000000, -1276.000000)">
            <g id="Group-18" transform="translate(641.000000, 1277.000000)">
                <g id="Group-8" transform="translate(5.000000, 5.666667)">
                    <g id="Page-1">
                        <mask id="mask-2" fill="white">
                            <use xlink:href="#path-1"></use>
                        </mask>
                        <g id="Clip-2"></g>
                    </g>
                    <g id="Page-1" transform="translate(20.825397, 16.920635)">
                        <mask id="mask-4" fill="white">
                            <use xlink:href="#path-3"></use>
                        </mask>
                        <g id="Clip-2"></g>
                        <path d="M14.4314742,9.53856271 C14.5551392,9.55308677 14.8347296,9.57984162 15.1926668,9.57984162 C16.0076268,9.57984162 17.2273784,9.44224525 17.9386441,8.70763351 C18.2458864,8.39192628 18.5838528,7.8323677 18.4517387,6.96398171 C18.3872178,6.53972623 17.9916434,6.2461873 17.5607362,6.31039894 C17.1336695,6.37461058 16.8394851,6.77211121 16.904006,7.19713112 C16.9470199,7.48531907 16.8563834,7.57934326 16.8133695,7.62444429 C16.4492875,8.00054104 15.2833033,8.06475268 14.6096747,7.99060353 C14.1849123,7.94091595 13.7924104,8.24745009 13.7432517,8.67552769 C13.6940929,9.10284087 14.0013351,9.48887513 14.4314742,9.53856271 M17.4770127,11.8708212 C16.1289875,11.4098734 14.3838517,12.3952163 14.0474215,12.5970243 C13.6779627,12.8194718 13.5589063,13.2972369 13.7816569,13.664925 C14.0044075,14.034142 14.4844735,14.1526277 14.8562366,13.9317091 C15.4184899,13.5961268 16.4800117,13.1779867 16.9685268,13.3453957 C17.0430331,13.3713861 17.129829,13.4134294 17.1989585,13.5953624 C17.3180149,13.9057187 17.6160398,14.0968247 17.9309631,14.0968247 C18.0239039,14.0968247 18.1183808,14.0800074 18.2097854,14.0448439 C18.6138089,13.8911946 18.8158207,13.4401843 18.6621996,13.0388615 C18.4417533,12.4647789 18.0315849,12.0611629 17.4770127,11.8708212 M40.6208009,26.8336622 C41.0517081,26.1372717 41.4419057,24.8041157 40.4041951,22.6576123 C39.8004642,21.4077786 39.8757385,19.5532853 40.1591695,18.7483465 C40.7037563,17.2003874 38.940186,14.7664604 37.8364183,14.0096804 C37.506901,13.7841752 37.2841504,12.6941062 37.0821387,11.8196048 C36.8639967,10.868661 36.5705804,9.7961737 36.1811508,8.81923946 L36.1811508,8.81923946 C36.1811508,8.81847503 36.153499,8.81771061 36.153499,8.81694618 C36.1427456,8.79324903 36.1204705,8.7672586 36.1089489,8.74356145 C36.0981954,8.72215757 36.0797609,8.70381139 36.0690074,8.68240751 C36.0674712,8.67934981 36.0620945,8.67705654 36.0605583,8.67399884 C35.1733964,6.88906813 33.8176901,6.00310038 33.234698,5.68815757 C32.572591,4.42991519 31.7184576,3.65555339 30.6961091,3.38724046 C29.8857578,3.17320166 29.1575937,3.33831731 28.672151,3.52560126 C28.5538628,3.3444327 28.3871839,3.07764863 28.1582884,2.68473454 C27.332575,1.26672749 25.9999118,1.10466954 24.9990703,1.3836844 C24.2778192,0.445735802 23.4551782,-0.0106254976 22.5480455,7.64424288e-05 C21.2376575,0.0275957168 20.2022512,1.09320317 19.6284763,1.85227649 C16.8725136,0.237047972 13.4774871,2.46534477 12.5826442,3.11969196 C10.660076,3.24658639 9.73758124,4.93749292 9.41958554,5.69274412 C7.55155286,6.5733609 6.82569312,8.0150651 6.56607344,8.74891242 C4.28095945,9.68762545 3.68951818,11.964081 3.69105439,13.4623526 C3.49134695,13.5678431 3.29855245,13.6855645 3.11881576,13.8308051 C1.58183656,15.0798744 1.41285334,17.4381233 1.4067085,18.3195045 C0.276057133,19.62667 0.539517335,21.1302926 1.04569889,22.1515635 C0.783774898,22.3656023 0.514937958,22.6652566 0.311389988,23.0864544 C-0.170212189,24.0817348 -0.0903292121,25.3743763 0.53183628,26.9246287 C0.233043222,27.7693176 -0.227051999,29.456402 0.395881598,30.4998411 C0.273752816,31.0930344 0.518778485,31.7917182 0.759195521,32.4743491 C1.02265572,33.2196627 1.32144878,34.0658804 1.17858115,34.720992 C1.17550873,34.7339873 1.17550873,34.7477469 1.1724363,34.7607421 C1.17090009,34.7683863 1.16936388,34.7760306 1.16859578,34.7836748 C0.836774181,36.4860477 1.99584545,38.4628489 4.14193234,39.8372838 C4.36852348,39.9832888 4.6066362,40.1162987 4.84782134,40.2431931 C4.85473429,42.9125627 9.6208292,44.8595514 10.1769376,45.0758834 C11.220793,45.5406534 12.4897034,46.1628948 12.6947876,46.3341258 C12.719367,46.3593518 12.7431782,46.3922221 12.7715981,46.42815 C13.3952998,47.2269734 14.3876922,47.9730515 17.3978978,48.0181525 C17.4386074,48.018917 17.479317,48.018917 17.5200266,48.018917 C19.567796,48.018917 20.5970574,47.2170359 21.1024709,46.5359338 C21.1846582,46.4243279 21.2537877,46.3127219 21.3160042,46.2026448 C21.8344755,46.8149487 22.900606,47.5801374 25.0059833,47.5801374 C25.476832,47.5801374 26.0006799,47.5419162 26.5798315,47.4547718 C30.2091302,46.9097373 31.7445732,45.0919364 32.2446099,44.3168101 C33.1094968,44.0637857 35.2517431,43.2802508 35.9660813,41.5786423 C36.1634844,41.1085214 36.4161911,40.7370112 36.7088394,40.3074047 C37.390149,39.3090666 38.2327608,38.0653483 38.925592,34.938853 C39.4148752,34.2982654 39.7981599,33.6293942 40.1514884,33.0086816 C40.4080357,32.5584357 40.650757,32.1326514 40.912681,31.7557902 C42.2269096,29.8577247 41.2299086,27.7853705 40.6208009,26.8336622 M1.71011019,23.7881959 C1.85989077,23.4602578 2.1003078,23.2951422 2.23703059,23.2232863 C2.74167593,23.2783249 4.00981819,23.3616471 5.19884557,23.0069542 C5.16965756,23.2553921 5.16351272,23.4396184 5.16274461,23.5045945 C5.15583166,23.9342009 5.49994295,24.2904226 5.93161826,24.2904226 L5.94544416,24.2904226 C6.37097463,24.2904226 6.71969455,23.9556048 6.72814371,23.5305849 C6.74120151,22.8792954 6.95319864,22.1913135 7.11987754,22.0743566 C7.16135524,22.0598326 7.20129673,22.0460729 7.24431064,22.0323133 C7.2665857,22.024669 7.28962887,22.0208469 7.31113582,22.0116738 C8.22979005,21.7211926 9.41036828,21.6218174 10.1300832,21.6027068 C10.3758769,21.8855438 10.7891177,22.2983329 11.3905444,22.7095932 C10.8812904,23.2026469 10.5164403,23.9059172 10.7322779,24.8224619 C10.8167695,25.1809769 11.1378376,25.4240638 11.4934705,25.4240638 C11.5526146,25.4240638 11.6125269,25.417184 11.6724391,25.4034244 C12.0933609,25.3048137 12.3552849,24.8866736 12.2569674,24.4670046 C12.144824,23.993826 12.6126003,23.6735322 12.9190744,23.5183541 C13.5773409,23.7782584 14.3508231,23.988475 15.2518109,24.0924367 C17.2773053,24.3248217 18.6107365,23.8913931 19.4333775,23.4067481 C19.4917536,23.8134219 19.553202,24.2216244 19.6138823,24.6275337 C19.7682716,25.6579777 19.917284,26.6540225 20.0017756,27.5369326 C19.4141749,27.1027396 18.6276348,26.6845995 17.5714897,26.4040558 C17.1536403,26.2939787 16.7242693,26.5408877 16.612894,26.9567345 C16.5015187,27.3725814 16.7503849,27.7998945 17.1682343,27.9107361 C19.0562377,28.4106695 19.7905466,29.4013634 20.0079205,29.7751669 C19.779025,31.7305642 19.8089811,33.5185526 19.8650529,34.5841601 C18.9110658,34.3724146 17.3779271,33.8900628 16.0560175,32.8512102 C16.0813649,32.3145844 16.1827549,31.7825451 16.3033474,31.6235448 C16.6612846,31.4247945 16.8072247,30.9791351 16.6259518,30.6060961 C16.438534,30.218533 15.9715258,30.0541818 15.5805601,30.2414657 C15.1258416,30.4593266 14.8562366,30.9172168 14.6980069,31.4255589 C14.5113572,31.1603037 14.3408378,30.8774667 14.1918253,30.5686393 C12.2446777,26.543181 9.29745676,26.2389401 8.47020709,26.2366469 C7.82346222,25.9874445 5.56139139,25.2436597 3.76018389,26.2825123 C2.81464596,26.8275468 2.22704522,26.5722291 2.0173524,26.4346328 C1.42207061,25.0043949 1.5180838,24.2078648 1.71011019,23.7881959 M1.82916655,28.0460392 C2.4743752,28.2516693 3.4022467,28.2898905 4.54595586,27.6301923 C5.92700963,26.8344267 7.98783681,27.7234521 8.00780755,27.7318608 C8.06157494,27.7555579 8.11995096,27.7716108 8.17909509,27.7830772 C7.69288428,28.5819006 7.53235022,29.5297867 7.51007516,29.672734 C7.44555429,30.0969895 7.73897061,30.4937257 8.16603729,30.5587018 C8.20674689,30.5648172 8.24592027,30.5678749 8.28509365,30.5678749 C8.66453779,30.5678749 8.9978956,30.2919177 9.05857594,29.9074123 C9.14153134,29.375373 9.42880281,28.5085158 9.80671074,28.249376 C9.87891266,28.2004529 9.94727405,28.1889865 10.0309976,28.1973952 C10.8866671,28.6208862 11.9282183,29.4831568 12.7800473,31.2443904 C13.5466166,32.8290419 14.7095284,33.919111 15.9100774,34.6690112 C15.6950078,34.6537227 15.4730253,34.7225209 15.3063464,34.8838144 C15.1880582,34.9977136 14.7479337,35.4517817 14.5413133,36.0556768 C11.6954823,36.4501198 11.1386058,33.8052117 11.0856065,33.5009709 C11.0195494,33.1027058 10.6616122,32.8305708 10.2629654,32.8542679 C10.3021388,32.2213246 10.4465427,31.6854632 10.5917146,31.6021409 C11.0041873,31.4721888 11.2323146,31.0349381 11.1017367,30.6236779 C10.9711587,30.213182 10.5310343,29.986148 10.1193297,30.1161001 C9.11157522,30.4341006 8.80049247,31.6090208 8.71600086,32.5385607 C7.60455214,32.0195166 6.47850941,31.0341737 6.04299357,30.5885143 C5.89858972,30.440216 5.70041849,30.3553649 5.49303,30.3523072 C4.29094482,30.3331966 2.33765242,30.1290953 1.76234136,29.733888 C1.60718404,29.627633 1.61102457,28.9121319 1.82916655,28.0460392 M2.75550183,34.7408671 C2.86610903,33.7555242 2.52276585,32.7671236 2.23703059,31.9583627 C2.18940805,31.8253528 2.13487255,31.6694103 2.08417759,31.5142321 C3.17104693,31.7978336 4.49218847,31.879627 5.15122303,31.9017953 C5.45846525,32.196863 6.02148661,32.6998542 6.71815834,33.1799127 C6.42320581,33.726476 6.16742667,34.5268283 6.3932497,35.4892384 C6.47850941,35.8477534 6.79957753,36.0908404 7.1552104,36.0908404 C7.21435452,36.0908404 7.27426676,36.084725 7.33417899,36.0702009 C7.75586893,35.9723546 8.01702482,35.5526857 7.91870731,35.1337812 C7.80579579,34.6544871 7.92638836,34.247049 8.07232842,33.958861 C8.47327951,34.1415584 8.88959272,34.286799 9.30821024,34.3647703 C9.32203614,34.367828 9.33432583,34.3708857 9.34815173,34.3739434 C9.47104862,34.3953473 9.5939455,34.4121646 9.71684239,34.4213377 C9.85586949,34.8356557 10.092446,35.38757 10.478035,35.9165516 C11.0871427,36.7520674 12.1624904,37.6632611 13.9483358,37.6632611 C14.1941296,37.6632611 14.4568217,37.6410928 14.7302673,37.6044005 C14.8838884,37.8199681 15.1127838,38.0340069 15.4584313,38.2121178 C15.5736472,38.2717429 15.6965441,38.3000266 15.8194409,38.3000266 C16.1021038,38.3000266 16.3755494,38.1463773 16.5145765,37.8795932 C16.7142839,37.4973811 16.5637352,37.0264957 16.1796824,36.8285098 C16.0468002,36.7597116 16.0030182,36.7039086 15.9984095,36.6924423 C15.9692215,36.594596 16.162016,36.2345521 16.3993606,36.0006383 C16.6720381,35.7346186 16.707371,35.3195363 16.5030549,35.0137665 C17.7105168,35.6581762 18.8918631,35.983821 19.6860843,36.1451145 C19.4464353,37.1228132 19.4203197,38.3420699 20.1338898,39.2119847 C20.1070061,39.2922493 20.0724414,39.3832158 20.0340361,39.4787688 C18.4732456,40.4472944 17.1451911,40.850146 16.1627841,40.6613332 C16.0429597,40.5902417 15.9054688,40.5497272 15.7633692,40.5489628 C15.0551759,40.2584816 14.7886433,39.6706393 14.7709769,39.6301248 C14.7663682,39.617894 14.7594553,39.6071921 14.7533104,39.5957257 C14.7417889,39.5712641 14.7302673,39.547567 14.7164414,39.5246343 C14.7033836,39.502466 14.6903258,39.4810621 14.6749637,39.461187 C14.6603697,39.4405476 14.6442395,39.421437 14.6281092,39.4023264 C14.6104428,39.3832158 14.5927764,39.3648696 14.5743419,39.3472878 C14.5559073,39.3312349 14.5374728,39.315182 14.5182702,39.3006579 C14.4982994,39.2853695 14.4775606,39.2716098 14.4552855,39.2570858 C14.4345466,39.2440906 14.4138078,39.2333886 14.3915327,39.2219222 C14.3684896,39.2104559 14.3462145,39.2012828 14.3224032,39.1921097 C14.2993601,39.183701 14.2755488,39.1752924 14.2517375,39.1684125 C14.2271582,39.1615327 14.204115,39.1569462 14.1795356,39.1523596 C14.1541881,39.1477731 14.1280725,39.1447154 14.1027251,39.1424221 C14.0781457,39.1408933 14.0535663,39.1401288 14.0289869,39.1408933 C14.0021032,39.1408933 13.9767557,39.1424221 13.9514083,39.1454798 C13.9252927,39.1485375 13.8999452,39.1538885 13.8730615,39.1592395 C13.8592356,39.1622972 13.8438735,39.1630616 13.8300476,39.1668837 C11.2284741,39.900731 10.6846554,38.7166378 10.6278156,38.5652818 C10.6224388,38.5522866 10.6155259,38.5408202 10.609381,38.527825 C10.6001638,38.502599 10.5894103,38.4789018 10.5771206,38.4559691 C10.565599,38.4338008 10.5533093,38.4123969 10.5402515,38.3925219 C10.5256575,38.3703536 10.5110635,38.3489497 10.4933971,38.3283103 C10.4788031,38.3099641 10.4626729,38.2923823 10.4465427,38.275565 C10.4281081,38.2564544 10.4089055,38.2373438 10.3873985,38.2205264 C10.3705002,38.2060024 10.3528338,38.1930072 10.3351674,38.1807764 C10.3121242,38.163959 10.2883129,38.149435 10.2637335,38.1356753 C10.245299,38.1249734 10.2268645,38.1165647 10.2084299,38.1081561 C10.1815462,38.0959253 10.1546626,38.0852233 10.1262426,38.0760502 C10.10704,38.0699348 10.0878374,38.0645839 10.0670985,38.0607618 C10.0394467,38.0531175 10.0102587,38.0477665 9.9810707,38.0439444 C9.95956374,38.0408867 9.93728868,38.0401223 9.91501362,38.0393579 C9.88736182,38.0385934 9.86047813,38.0385934 9.83205822,38.0401223 C9.80671074,38.0416511 9.78059515,38.0454733 9.75524767,38.0500598 C9.73988556,38.0531175 9.72375534,38.0523531 9.70762512,38.0569396 C7.79811474,38.4987769 5.37704606,36.3201676 4.60509999,35.4441374 C4.46376857,35.2828439 4.26252491,35.1865264 4.04668725,35.1781178 C3.83622634,35.1666514 3.6242292,35.2484448 3.46983999,35.3967431 C3.43066661,35.4357287 3.40378291,35.4517817 3.4022467,35.4571326 C3.26552392,35.4219691 2.97518002,35.1116128 2.75550183,34.7408671 M20.1431071,44.8450273 C20.1346579,45.0147295 19.9841092,46.5084146 17.4224772,46.4594914 C14.7487018,46.4197413 14.2486651,45.7791538 14.00748,45.4710908 C13.9391186,45.3847109 13.8792063,45.3090329 13.8192941,45.2486433 C13.4498353,44.8687245 11.9819856,44.1708051 10.7822048,43.6387658 C8.82199943,42.8728126 6.08831179,41.1918436 6.44548087,40.0161591 C6.44778519,40.0062216 6.44778519,39.9970485 6.45085761,39.9878754 C6.45777056,39.9603561 6.4631473,39.9336013 6.46698783,39.9068464 C6.47082836,39.8823848 6.47466888,39.8579233 6.47620509,39.8334617 C6.4769732,39.8074713 6.47620509,39.7822453 6.47543699,39.7570192 C6.47390078,39.7310288 6.47313267,39.7058028 6.46929214,39.6813412 C6.46545162,39.6568797 6.46007488,39.6339469 6.45393003,39.6094854 C6.44778519,39.5850238 6.44240845,39.5597978 6.43395929,39.5361006 C6.42551013,39.5124035 6.41552476,39.4902352 6.40553938,39.4680669 C6.39478591,39.4458986 6.38403243,39.4229658 6.37174274,39.401562 C6.35945305,39.3793937 6.34485905,39.3587542 6.33026504,39.3381147 C6.31567104,39.3190041 6.30107703,39.2991291 6.28494681,39.2792541 C6.26804849,39.2609079 6.25038206,39.2433261 6.23194753,39.2257444 C6.21274489,39.2081626 6.19354225,39.1913453 6.17357151,39.1752924 C6.15436887,39.1600039 6.13286192,39.1470087 6.11135496,39.1340135 C6.0890799,39.1194894 6.06526863,39.1057298 6.04068925,39.093499 C6.03147198,39.0889124 6.02455903,39.082797 6.01534177,39.0789749 C5.65817269,38.9199747 5.3140614,38.7342196 4.98915276,38.5270606 C4.29632156,38.0829301 3.72638724,37.5554773 3.32543615,37.0150293 C3.5120858,37.0249668 3.69719923,36.998212 3.87616782,36.9401157 C4.78330047,37.8337277 6.92631494,39.6744614 9.17993661,39.6744614 C9.27825412,39.6744614 9.37657163,39.6652883 9.47642535,39.6576441 C9.88736182,40.2164382 10.7361184,40.9594587 12.3460677,40.9594587 C12.7385696,40.9594587 13.1771579,40.9120643 13.6641368,40.8111603 C13.949872,41.2056033 14.4314742,41.6971281 15.1788409,41.9990757 C15.4653443,42.8185385 15.6181973,43.682338 15.5160393,43.889497 C15.2057246,44.1883868 15.1980436,44.6822049 15.4991409,44.9910324 C15.652762,45.1485038 15.85631,45.2280039 16.0613942,45.2280039 C16.2572611,45.2280039 16.4538961,45.1546191 16.605981,45.0086141 C17.2557983,44.3817862 17.1505679,43.2290344 16.9009336,42.2650953 C17.7020676,42.2238164 18.5784761,41.9830228 19.5286226,41.5373634 C19.5048114,41.8010898 19.4886811,42.0961576 19.4833044,42.4233312 C19.4833044,42.4370908 19.4848406,42.450086 19.4848406,42.4638457 C19.4848406,42.4691966 19.4848406,42.4745476 19.4856087,42.4791341 C19.4825363,43.4560684 19.7943871,44.2212571 20.1530924,44.7747003 C20.1492519,44.7983974 20.1438752,44.8205657 20.1431071,44.8450273 M21.4504227,10.944339 C21.2637731,10.5567759 20.7952287,10.3939535 20.4050311,10.580473 C18.0223677,11.7209941 19.0715998,15.3153171 19.4748552,16.4535448 C19.4556526,16.5062901 19.4418267,16.5636219 19.4241603,16.6171316 C17.3664055,15.3955816 13.7808888,17.1698104 13.3215617,17.4075463 C12.938277,17.6055322 12.7877284,18.0756532 12.9866677,18.4578653 C13.1264629,18.7254138 13.3999085,18.8790631 13.6825713,18.8790631 C13.8047001,18.8790631 13.927597,18.8507794 14.0420447,18.7911543 C15.3240129,18.1314561 18.2105535,17.1354113 18.94179,18.2659948 C18.9832677,18.329442 19.0347308,18.3821873 19.0892663,18.4295816 C19.029354,19.2949099 19.0692955,20.2397383 19.1637725,21.2235524 C19.1376569,21.3496824 19.1169181,21.4758124 19.1084689,21.6057645 C19.1061646,21.6424569 19.109237,21.6791493 19.1123094,21.7143128 C18.803531,22.0284912 17.7788782,22.8135549 15.4315476,22.5437131 C12.8960312,22.2524675 11.6509322,20.9934607 11.2868501,20.5531523 C11.2830096,19.7306317 11.4036022,16.8434012 13.2017372,16.4244967 C13.6226591,16.3266504 13.8845831,15.9077459 13.7862656,15.4888414 C13.6879481,15.0699369 13.2670262,14.8100326 12.8453363,14.9071145 C12.4351679,15.0026675 12.0803032,15.1593745 11.7707566,15.3604181 C11.6163674,14.8299076 11.5234266,14.160272 11.7469453,13.569372 C11.9727684,12.973121 12.4950801,12.5412213 13.3438368,12.2484468 C13.7524689,12.1077927 13.9683066,11.6636622 13.8277433,11.2577529 C13.6856437,10.8503148 13.2409106,10.6355116 12.8315104,10.7754012 C12.7961775,10.7883964 12.7662214,10.8021561 12.7316567,10.8143868 C12.6233538,9.88714019 12.581108,8.32465694 13.1502742,7.55182399 C13.3476773,7.28503991 13.6011521,7.14362142 13.9475677,7.1054002 C14.3777068,7.0580059 14.6880215,6.67350048 14.641167,6.24542288 C14.5943126,5.8181097 14.2056512,5.51157556 13.7770483,5.55591217 C12.9966531,5.64076327 12.3429952,6.01227347 11.8875087,6.62992829 C10.6685252,8.28490688 11.1962137,11.2417 11.2730242,11.6315564 C10.8175376,12.0175907 10.4826436,12.4838895 10.2775594,13.0296884 C9.75217524,14.4293493 10.259893,15.9291498 10.5817292,16.6553528 C9.93268005,17.7928162 9.76369683,19.1909482 9.72759587,20.0585698 C8.96563517,20.0960266 7.80272337,20.2106902 6.77423005,20.550859 C6.63981158,20.5829648 6.51461037,20.626537 6.40246696,20.6861621 C6.07755832,20.8168787 5.77262041,20.9720568 5.51223263,21.1601052 C4.71263476,21.7380099 3.32620425,21.7555917 2.57499703,21.69138 C2.31384114,21.2663601 1.89829604,20.3597529 2.45286825,19.5181218 C3.21252463,19.7451558 4.67730191,20.127368 5.99767534,20.1464786 C6.42858255,20.1503007 6.78575163,19.8101319 6.79189647,19.379761 C6.79880942,18.9493901 6.45316193,18.5954617 6.02148661,18.5885819 C4.93615348,18.5725289 3.67799659,18.2514707 2.98286107,18.0481339 C3.02203446,17.2538971 3.21713327,15.7632697 4.10967191,15.0385955 C4.59741893,14.6418593 5.25338107,14.5210802 6.09906527,14.6693785 C6.47850941,16.2586166 7.6268272,16.9244302 8.35115073,17.0559112 C8.39877327,17.0650843 8.44485961,17.0689064 8.49171404,17.0689064 C8.85502797,17.0689064 9.17455987,16.8128242 9.24983422,16.4436073 C9.33509393,16.0285249 9.06318457,15.6195579 8.64687137,15.5255337 C8.50784426,15.4949568 7.29577371,15.154788 7.58227708,12.8997363 C7.63681257,12.4724231 7.33341088,12.0833312 6.90403988,12.0282926 C6.4769732,11.9747829 6.08370316,12.2767305 6.02916767,12.7040437 C6.01226934,12.8355247 6.00382018,12.9601258 5.99537102,13.084727 C5.74727293,13.0579721 5.5068559,13.0442125 5.27642423,13.0526212 C5.35323479,12.1085572 5.75034535,10.6217519 7.44248187,10.0889482 C7.71899987,10.0010394 7.92485215,9.76941885 7.97708333,9.48505301 C7.98015575,9.46823568 8.30276008,7.82319461 10.3343992,6.99302983 C10.5494688,6.90512104 10.7161477,6.85543346 10.7860453,6.63451484 C10.8090885,6.55883684 11.3751823,4.93596407 12.8169164,4.93596407 L12.8445682,4.93596407 C13.0273773,4.93596407 13.2055778,4.744858 13.3484454,4.63019436 C13.3853145,4.60191066 16.8479343,1.79188697 19.0854257,3.4262261 C19.0954111,3.52254356 19.109237,3.60586581 19.1230629,3.73658236 C18.7866327,3.50037526 18.5139552,3.33755288 18.4348403,3.29550955 C18.0523238,3.09828808 17.5799389,3.23817773 17.3802314,3.61962545 C17.180524,4.00030874 17.3287683,4.46660756 17.712053,4.6661223 C18.2474226,4.94590159 19.3504221,5.74013842 19.3404368,6.41588949 C19.3381324,6.53513968 19.3665524,6.64674563 19.4126387,6.74917848 C19.4210878,6.8691931 19.4303051,6.99073656 19.4387543,7.10692905 C19.5854624,9.20756699 19.6046651,9.47740877 20.2360478,9.62570708 C20.5678694,9.70597163 20.9334877,9.54544253 21.1078476,9.25113918 C22.209311,7.39970355 23.2055439,7.25981391 23.2700647,7.25216966 C23.6902185,7.243761 24.0297211,6.90588546 24.0366341,6.48468768 C24.043547,6.05431681 23.6978995,5.70038836 23.2654561,5.69427297 C23.1295014,5.69809509 22.1470944,5.72026339 20.9903275,6.85237576 C20.9442411,6.1926776 20.8912419,5.4657101 20.8259529,4.86028607 C20.7453018,4.11955893 20.6746361,3.6180966 20.6362308,3.27639894 C21.0325733,2.66409509 21.8506057,1.83928128 22.5810741,1.83928128 L22.5979724,1.83928128 C23.1825007,1.83928128 23.7048125,2.34456573 24.0420108,2.88960025 C24.2639933,3.24887967 24.7333058,3.2970384 25.1012284,3.08529287 C25.2817332,2.98209559 26.2088366,2.48063326 26.8025821,3.50190411 C27.3924872,4.51323744 27.755033,5.08732008 28.1836359,5.25549342 C28.9563501,5.96946571 29.5040093,6.77516891 29.4602273,7.02207795 C29.457923,7.0297222 29.4563868,7.03354432 29.4533144,7.04118856 C28.4509366,7.05265493 26.6912068,7.26669373 25.9999118,8.59220544 C25.8002044,8.97441759 25.949985,9.4437741 26.3332696,9.64175999 C26.4492536,9.70214951 26.5729186,9.72966878 26.6935112,9.72966878 C26.9769421,9.72966878 27.2496196,9.5760195 27.3894148,9.308471 C27.6505707,8.80853752 28.56308,8.63195551 29.30507,8.60061411 C29.4318074,9.57219738 29.94567,10.4925642 30.7506446,11.0444786 C30.8865993,11.1369739 31.0409885,11.1813105 31.1938415,11.1813105 C31.4427077,11.1813105 31.6877334,11.0643536 31.8398183,10.8441994 C32.0840759,10.4902709 31.9949756,10.0048615 31.6385747,9.76101018 C30.8896717,9.24655263 30.6945729,8.22222409 30.9380624,7.52889126 C31.25529,6.62610617 30.6308202,5.60483532 29.9825391,4.85034855 C30.0885377,4.8549351 30.1968405,4.86640146 30.308984,4.89697843 C30.928077,5.06668062 31.4772725,5.64229211 31.9442807,6.60775999 C32.0272361,6.77975545 32.1708718,6.91582298 32.3475361,6.98920771 C32.3628982,6.9953231 33.802328,7.63438181 34.6633743,9.37956246 C35.0382098,10.479569 34.2808577,11.1430893 32.5964023,12.2782594 C31.7376603,12.8584574 30.9273089,13.4057852 30.4656775,14.1449835 C29.6077036,15.5209472 28.6383544,15.3069084 27.3640673,14.8536048 L27.2004608,14.796273 C25.3178341,14.1396325 22.2515568,15.2793891 20.9235023,15.8465919 C20.5770867,14.8092682 20.0217464,12.4930626 21.0840364,11.9847204 C21.474234,11.7982009 21.6378405,11.3326665 21.4504227,10.944339 M20.7522148,21.3580911 C21.168528,20.2045748 23.1371825,19.0250681 24.0750393,18.6260386 L23.7747101,17.905951 L23.6817693,17.1323536 C23.5396698,17.1491709 21.9059093,17.8394461 20.630086,18.9837892 C20.6416076,18.4762115 20.6876939,18.0053261 20.7767941,17.587186 C20.8513004,17.5757197 20.9273428,17.5573735 20.9987766,17.5229744 C22.5127127,16.7983002 25.3931085,15.8167794 26.6819896,16.2662609 L26.8371469,16.3220638 C27.0552889,16.3985063 27.3202853,16.491766 27.616774,16.572795 C27.7097148,16.8059444 27.77654,17.2569547 27.3225896,17.8394461 C27.0575932,18.1796149 27.1213459,18.6688464 27.4631529,18.9325728 C27.6052524,19.0426499 27.7742357,19.0953952 27.9416827,19.0953952 C28.1759549,19.0953952 28.4071546,18.9914335 28.5615438,18.7934476 C29.137623,18.0527204 29.2881717,17.3326328 29.2382448,16.7325597 C30.1108127,16.6377711 31.0317713,16.1921117 31.7960363,14.967504 C32.0817716,14.5096139 32.7899649,14.0310843 33.4758831,13.5686076 C34.1364539,13.1221838 34.9045594,12.6023753 35.4775662,11.9518502 C35.4944645,12.0237061 35.5121309,12.0970908 35.5290292,12.1674178 C35.8439525,13.538795 36.1158619,14.7228882 36.9469521,15.2931488 C37.0598636,15.3703556 37.172007,15.4643798 37.2833823,15.5698703 C37.2396003,16.4007995 37.0345161,17.2783586 36.8255914,17.4946907 C36.801012,17.4855176 36.7618386,17.4679359 36.7080712,17.4343012 C34.6126793,16.1408953 31.0202497,18.4853846 30.6169943,18.7575196 C30.2590571,18.9983133 30.1653482,19.4837227 30.4080696,19.8399444 C30.5601545,20.0616275 30.8059482,20.1816421 31.0578869,20.1816421 C31.2084355,20.1816421 31.3612885,20.1380699 31.495707,20.0478678 C32.5049977,19.3667658 34.9060956,18.1559177 35.8823578,18.7590485 C36.6581444,19.2375781 37.259571,19.0457076 37.5491468,18.8882362 C38.0491835,18.6168656 38.3571939,18.0588358 38.5484521,17.4572339 C38.6805663,17.7905229 38.7374061,18.0741243 38.6805663,18.2331246 C38.5515246,18.6000482 38.4608881,19.0617605 38.416338,19.5678094 C36.6013046,19.3705879 33.8284436,20.4476617 32.8291382,21.7318945 C32.2630445,22.4603909 30.3051434,22.2807512 29.4456333,22.0789432 C29.0247115,21.979568 28.6030215,22.2379434 28.5023997,22.6568479 C28.4017779,23.0757524 28.6621657,23.4954214 29.0830875,23.5955609 C29.2582156,23.6368399 30.0808566,23.8195373 31.0425247,23.8195373 C32.1163363,23.8195373 33.3629716,23.5917388 34.0673244,22.6851316 C34.8884292,21.631755 37.565277,20.9109028 38.4247871,21.1348792 C38.4954529,21.8641399 38.6590593,22.5934007 38.9386498,23.2171709 C38.6052919,23.5420512 37.2995125,24.0159943 36.0428918,24.2537303 C35.7679101,24.3064755 35.5482319,24.4822931 35.4560592,24.7452551 C35.3992194,24.8828514 34.828517,26.0684735 32.2361608,25.2520684 C28.2696637,24.0022347 24.4936569,29.3715509 24.334659,29.6008782 C24.0888652,29.9548066 24.1787336,30.4394516 24.5351346,30.6840674 C24.6703211,30.7765627 24.8254785,30.8224282 24.9783315,30.8224282 C25.2271977,30.8216637 25.4722233,30.7039424 25.6235401,30.4853171 C26.5245279,29.1888535 29.3834168,25.9889734 31.7630077,26.7381092 C34.8477196,27.7096925 36.1980492,26.436926 36.6904048,25.7137807 C37.4592785,25.5494294 38.619886,25.2383087 39.4632658,24.7368464 C39.6214956,25.745122 39.2059505,26.1479736 39.1614004,26.1869593 C39.1498788,26.1968968 39.1398934,26.2083632 39.1283718,26.2183007 C39.1183865,26.2274738 39.1053287,26.2160074 39.0953433,26.2259449 C38.8917953,26.422402 38.2742385,27.0003067 37.9032435,27.0003067 L37.8771279,27.0003067 C36.8248233,27.0003067 36.4346257,28.3380492 36.0574859,29.6146378 C35.9806753,29.8753065 35.8961837,30.1696098 35.825518,30.3653024 C34.8623136,30.5564085 31.3766507,29.9800326 30.6415737,29.476277 C29.0884642,28.411434 27.0898536,30.8407744 25.3270514,32.9819268 L25.0121281,33.3633745 C24.2755149,34.2531644 22.3306717,33.6378028 21.3928148,33.2211916 C21.3859018,32.2343198 21.5226246,31.0089477 21.6862311,29.7308303 C21.6885354,29.708662 21.7899253,29.6842004 21.7899253,29.6612677 L21.7899253,29.6597388 C21.7899253,29.1108822 21.7446071,28.4695302 21.6900716,27.7693176 C22.5818422,27.3978074 24.4391214,26.4804982 25.1073732,25.1993231 C25.3070806,24.817111 25.1327207,24.34699 24.749436,24.1482397 C24.3646151,23.9502538 23.8807086,24.0985521 23.6810012,24.4807643 C23.3653098,25.0861883 22.3222225,25.719896 21.4212347,26.1426227 C21.3451922,25.5769487 21.2553239,24.9929285 21.1662236,24.3966776 C21.0164431,23.4021616 20.8574452,22.3617801 20.7522148,21.3580911 M39.6222637,30.8713513 C39.3219344,31.3047799 39.0515613,31.7810162 38.7896373,32.2404352 C37.7772742,34.0169573 36.7303463,35.8546333 33.5227376,36.31711 C32.9758464,36.2972349 32.055656,36.1145375 31.7023274,35.7307965 C32.2169581,34.7798527 32.4496941,33.1256385 30.6746022,31.6074919 C30.3473892,31.3269482 29.8519612,31.364405 29.5708345,31.6908142 C29.2889398,32.0172233 29.326577,32.5087481 29.6537899,32.7900563 C30.9741634,33.919111 30.4049971,34.8998673 30.2260286,35.1444831 C28.2604465,37.0005053 23.3100062,38.2526322 23.2593113,38.2656275 C22.8399256,38.3703536 22.5856827,38.7930802 22.6909132,39.2104559 C22.7792453,39.5643843 23.0987772,39.8005914 23.4490333,39.8005914 C23.512018,39.8005914 23.5757707,39.7929472 23.6402916,39.7768943 C23.8399991,39.7272067 28.1206513,38.6256713 30.6070089,36.8277454 C31.5648365,37.7893911 33.3115085,37.8390787 33.5565342,37.8390787 L33.5688239,37.8390787 C33.6041567,37.8390787 33.6402577,37.8551316 33.6763587,37.8505451 C34.9421966,37.6762563 35.9438062,37.3292077 36.75723,36.8629089 C36.3071202,38.1073916 35.8408801,38.7991956 35.4130453,39.4283168 C35.3362347,39.5406872 35.2609604,39.653822 35.1864542,39.7654279 C34.6295776,40.4083087 33.4321011,40.7484776 33.0127155,40.8241556 C32.5879531,40.900598 32.3052903,41.3057429 32.3805646,41.7284695 C32.4374044,42.0487633 32.6847344,42.2864992 32.9850637,42.3514753 C32.4243466,42.6335478 31.8605572,42.8154808 31.5502425,42.8888656 C31.3182746,42.9431397 31.1201034,43.1082553 31.0179454,43.3222941 C30.9780039,43.404852 30.0017417,45.3640714 26.3470955,45.912928 C23.0135175,46.4159192 22.3928882,45.0644171 22.355251,44.9711573 C22.318382,44.8626091 22.2569335,44.7685849 22.1816592,44.6898492 C22.1770505,44.6852626 22.1701376,44.6799117 22.1647609,44.6745607 C22.1355728,44.6455126 22.1056167,44.6187577 22.0725882,44.5950606 C22.0679796,44.5920029 22.0649071,44.5874163 22.0602985,44.5843586 C22.0318786,44.5644836 21.5679428,44.2304302 21.2791352,43.5829628 C22.5995086,43.9758769 24.7133351,44.5025652 26.5537159,44.5025652 C27.0959985,44.5025652 27.6144697,44.4574642 28.0814779,44.3481515 C29.646877,43.9842856 30.9726271,42.853702 31.4619104,41.4670364 C31.5825029,41.1230455 31.640879,40.7614728 31.6646902,40.4083087 C31.7683845,40.4197751 31.8759193,40.4297126 31.9911351,40.4297126 C32.5249685,40.4297126 33.1747857,40.2837076 33.9290654,39.8487502 C34.3031328,39.6331825 34.4306383,39.1561818 34.2140325,38.7831427 C33.9974268,38.4116325 33.518897,38.2847381 33.1432934,38.5003057 C32.3513766,38.9574314 31.8459631,38.9023929 31.5878797,38.8068399 C31.5855754,38.7892581 31.5825029,38.7686186 31.5809667,38.7510369 C31.5648365,38.6195559 31.5487063,38.603503 31.5479382,38.5408202 C31.5548511,38.1104493 31.2092037,37.8390787 30.7767602,37.8390787 L30.7644705,37.8390787 C30.338172,37.8390787 29.9886839,38.0913387 29.981771,38.5171231 C29.9794667,38.653955 29.9994374,38.7670898 30.0270892,38.987244 C30.0916101,39.5085814 30.199913,40.3593856 29.9833072,40.9739827 C29.7329048,41.6841329 28.919481,42.5639852 27.7243088,42.8422357 C25.9069711,43.2649623 22.6893769,42.4202735 21.0732829,41.8928207 C21.1301227,41.0649492 21.2645412,40.6085879 21.3206129,40.4503521 C21.6478258,39.7531971 21.7753313,39.1775856 21.7807081,39.1500664 C21.8444608,38.8572919 21.7330855,38.5522866 21.4942047,38.3688247 C20.7767941,37.8153816 21.2230635,36.3163455 21.4358287,35.8339938 C21.4419735,35.8232919 21.4435097,35.8110611 21.4481184,35.7995947 C21.4565675,35.7774264 21.4634805,35.7544937 21.4696253,35.7330898 C21.4788426,35.7017484 21.4865237,35.670407 21.4903642,35.6383012 C21.4942047,35.6176617 21.4972771,35.5962578 21.4988133,35.5740895 C21.5011177,35.5404549 21.5011177,35.5068202 21.4988133,35.4724211 C21.4980452,35.4594259 21.5003496,35.4464307 21.4988133,35.4334355 C21.4980452,35.4265557 21.4788426,35.2408006 21.4565675,34.9205068 C22.7754048,35.3852767 24.9844763,35.846989 26.2211262,34.3571261 L26.5383538,33.9726207 C27.2480834,33.1111145 29.116116,30.8423032 29.7882084,30.7880291 C30.4810396,31.2367461 32.1616545,31.6502997 33.7017061,31.8414057 C33.4927814,32.3214642 33.3767975,32.9100709 33.5757368,33.5361344 C33.6817354,33.8678945 33.9897457,34.0804045 34.3223354,34.0804045 C34.4006822,34.0804045 34.4805652,34.0689381 34.5589119,34.0437121 C34.9706165,33.91376 35.199512,33.4757449 35.068934,33.065249 C34.9498777,32.6899167 35.2425259,32.2167381 35.4591316,31.9491896 C35.7871127,31.9423098 36.0774566,31.9147905 36.2955986,31.8605164 C36.7049988,31.7596123 36.9891979,31.5600976 37.1412828,31.2680875 C37.2918315,30.9814284 37.4154965,30.5602306 37.5591322,30.0725279 C37.6781886,29.6719696 37.9116926,28.8815549 38.0945018,28.5849583 C38.6191178,28.5306842 39.0976476,28.2654289 39.4840047,27.9764765 C39.8841877,28.6988575 40.3104863,29.8768353 39.6222637,30.8713513 M23.7939127,41.8202004 C23.9828667,41.9035227 25.1066051,42.3812878 26.2626039,42.3812878 C26.9362325,42.3812878 27.6221508,42.2184655 28.1375496,41.7208252 C28.4470961,41.4211709 28.4555453,40.9281173 28.1536798,40.6192898 C27.8533505,40.309698 27.3571543,40.3028182 27.0468397,40.6024725 C26.5867445,41.0458386 25.214908,40.7415977 24.4322084,40.3968424 C24.0374022,40.2210248 23.5742345,40.3983712 23.3991065,40.7912853 C23.2224422,41.1841994 23.3998746,41.6443828 23.7939127,41.8202004 M24.0450832,23.1086227 C24.3807454,22.9473292 25.7456689,22.4550399 26.2733574,22.9962523 C26.4262104,23.1544881 26.6305265,23.2339883 26.8348426,23.2339883 C27.0314776,23.2339883 27.2281126,23.1606035 27.3801975,23.0138341 C27.6912803,22.7141797 27.6981932,22.2203617 27.3970958,21.9115342 C26.0168102,20.495056 23.6326106,21.5767164 23.3653098,21.7043753 C22.9758803,21.8908948 22.8115057,22.3571936 22.9989235,22.7439923 C23.1863412,23.1323198 23.6541175,23.2959066 24.0450832,23.1086227 M21.5318419,14.6158688 C21.6846949,14.7725758 21.889011,14.8520759 22.0940951,14.8520759 C22.2899621,14.8520759 22.4865971,14.7786912 22.6394501,14.6319217 C23.2516302,14.0394929 25.7579586,12.4869472 26.8333064,13.3690928 C27.1674323,13.6419923 27.6613241,13.5953624 27.9363059,13.2628378 C28.2105196,12.9303133 28.1636652,12.4387885 27.8295393,12.165889 C25.8124941,10.5132037 22.5196256,12.5756204 21.5487402,13.513569 C21.2376575,13.8132233 21.2307445,14.3070414 21.5318419,14.6158688" id="Fill-1" fill="#57B6E5" mask="url(#mask-4)"></path>
                    </g>
                </g>
                <circle id="Oval" stroke="#B0E1F4" stroke-width="2" cx="47" cy="47" r="47"></circle>
            </g>
        </g>
    </g>
</svg>