<?xml version="1.0" encoding="UTF-8"?>
<svg width="96px" height="96px" viewBox="0 0 96 96" version="1.1" xmlns="http://www.w3.org/2000/svg" xmlns:xlink="http://www.w3.org/1999/xlink">
    <!-- Generator: Sketch 46.2 (44496) - http://www.bohemiancoding.com/sketch -->
    <title>Group 14</title>
    <desc>Created with Sketch.</desc>
    <defs>
        <polygon id="path-1" points="0 41.2205697 38.4519654 41.2205697 38.4519654 -7.18117129e-05 0 -7.18117129e-05"></polygon>
    </defs>
    <g id="DR.JUANRIESTRA-All-web" stroke="none" stroke-width="1" fill="none" fill-rule="evenodd">
        <g id="2.-BIOGRAFÃA" transform="translate(-494.000000, -1098.000000)">
            <g id="Group-14" transform="translate(495.000000, 1099.000000)">
                <g id="Group-10" transform="translate(27.000000, 26.000000)">
                    <g id="Group-9">
                        <g id="Page-1" transform="translate(0.126984, 0.523810)">
                            <mask id="mask-2" fill="white">
                                <use xlink:href="#path-1"></use>
                            </mask>
                            <g id="Clip-2"></g>
                            <path d="M38.2335117,35.8888372 L27.6409576,25.42228 C27.5330442,25.3159987 27.3946026,25.2463413 27.2455117,25.2226435 L25.7006459,24.9792018 L25.0354165,24.2890912 C27.3101177,21.7476747 28.7193818,18.3998126 28.764819,14.7323884 C28.8656329,6.71173815 22.4951913,0.102906185 14.5656848,0.000933552272 L14.3796762,-0.000502681992 C6.55098355,-0.000502681992 0.100316883,6.44388046 0.000922943723,14.3639943 C-0.0984709957,22.3853627 6.27126061,28.9934765 14.2007671,29.0954492 L14.3867758,29.0961673 C17.2322823,29.0961673 19.8932,28.242326 22.1352433,26.7780852 L23.0688364,27.7475433 L23.0503775,29.2512806 C23.0482476,29.4293736 23.1100139,29.603158 23.2257368,29.7388821 L32.7874338,40.9666435 C32.9159359,41.1167299 33.0983948,41.2079308 33.2936329,41.2194207 C33.308542,41.2201388 33.3220312,41.2208569 33.3362303,41.2208569 C33.5165593,41.2208569 33.6919186,41.1526358 33.8253905,41.0276834 L38.2178926,36.9516506 C38.3641437,36.8159264 38.4486286,36.6249073 38.4521784,36.4238345 C38.4550182,36.2227617 38.375503,36.0288701 38.2335117,35.8888372 L38.2335117,35.8888372 Z M14.3867758,27.6319264 L14.2199359,27.6312083 C7.08771082,27.5400074 1.35907013,21.5968701 1.44852468,14.3826654 C1.53797922,7.25966152 7.3390355,1.46445627 14.3796762,1.46445627 L14.547226,1.46517438 C21.6794511,1.55637526 27.4073818,7.50023076 27.3179273,14.7137174 C27.2284727,21.8374393 21.4274165,27.6319264 14.3867758,27.6319264 L14.3867758,27.6319264 Z M33.3972866,39.4384902 L24.501529,28.9927584 L24.5206978,27.4624508 C24.5228277,27.2685592 24.4489922,27.0811306 24.3148104,26.942534 L23.3244208,25.9141903 C23.5594165,25.7246073 23.7894424,25.5292795 24.0123688,25.3253342 L24.8323688,26.176303 C24.9417022,26.2897655 25.0851134,26.3644497 25.239174,26.3888657 L26.7953991,26.6330255 L36.6751567,36.396546 L33.3972866,39.4384902 Z M22.7742043,6.27296858 C20.5882476,4.00659091 17.6610961,2.73552359 14.5316069,2.69530903 L14.3796762,2.69459091 C8.00071515,2.69459091 2.74632554,7.94474527 2.66468052,14.3984639 C2.62634286,17.5639242 3.80771082,20.5563183 5.99295758,22.8234141 C8.17820433,25.0897918 11.1053558,26.3608591 14.234845,26.4010737 L14.3860658,26.4025099 C20.7657368,26.4025099 26.0208364,21.1516374 26.1010615,14.6986369 C26.140819,11.5324585 24.9587411,8.54078248 22.7742043,6.27296858 L22.7742043,6.27296858 Z M14.3860658,24.937551 L14.2540139,24.9368328 C11.5093212,24.9016451 8.94424762,23.7878454 7.02878442,21.8008153 C5.11403117,19.8145033 4.07820433,17.1912215 4.11228225,14.4164169 C4.18398788,8.76052633 8.7887671,4.15954986 14.3796762,4.15954986 L14.5131481,4.16026798 C17.2564208,4.1947376 19.8222043,5.30853727 21.7376675,7.29556738 C23.6531307,9.28259748 24.6882476,11.9051612 24.6534597,14.6792477 C24.5824641,20.3358564 19.9769749,24.937551 14.3860658,24.937551 L14.3860658,24.937551 Z M6.7306026,12.8940085 C6.75332121,12.4904267 6.44803983,12.1442943 6.04904416,12.1205964 C5.64507879,12.0947442 5.30784935,12.4056889 5.28442078,12.8099888 C5.12397056,15.6451153 5.92764156,18.4723424 7.54847273,20.7703172 C7.68975411,20.97139 7.91197056,21.0776714 8.13844675,21.0776714 C8.28327792,21.0776714 8.43023896,21.0338662 8.55803117,20.9419472 C8.88319134,20.7071229 8.95915671,20.2496823 8.72629091,19.9207847 C7.29714805,17.8928219 6.5879013,15.3966467 6.7306026,12.8940085 L6.7306026,12.8940085 Z" id="Fill-1" fill="#57B6E5" mask="url(#mask-2)"></path>
                        </g>
                    </g>
                </g>
                <circle id="Oval" stroke="#B0E1F4" stroke-width="2" cx="47" cy="47" r="47"></circle>
            </g>
        </g>
    </g>
</svg>