<?xml version="1.0" encoding="UTF-8"?>
<svg width="509px" height="2396px" viewBox="0 0 509 2396" version="1.1" xmlns="http://www.w3.org/2000/svg" xmlns:xlink="http://www.w3.org/1999/xlink">
    <!-- Generator: Sketch 46.2 (44496) - http://www.bohemiancoding.com/sketch -->
    <title>Columna</title>
    <desc>Created with Sketch.</desc>
    <defs></defs>
    <g id="DR.JUANRIESTRA-All-web" stroke="none" stroke-width="1" fill="none" fill-rule="evenodd" fill-opacity="0.3" opacity="0.5">
        <g id="3.-TRAYECTORIA" transform="translate(-338.000000, -127.000000)" fill="#CCCCCC">
            <g id="Columna" transform="translate(575.500000, 1322.000000) rotate(-8.000000) translate(-575.500000, -1322.000000) translate(262.000000, 121.000000)">
                <path d="M613.768593,798.967107 C601.668797,792.211342 589.059489,786.229979 577.714944,778.3914 C572.491314,774.755758 565.344611,768.556031 572.11707,760.159162 C586.949296,772.979583 601.220156,785.322757 615.49778,797.668181 C614.907106,798.095904 614.343486,798.537133 613.768593,798.967107 M544.801787,819.243409 C543.739927,813.957658 542.693848,808.629135 541.302833,801.781072 C553.821962,805.202852 550.604819,811.832552 544.801787,819.243409 M570.590787,828.031983 C568.660952,816.163806 560.932593,806.119079 551.741077,797.521855 C548.438263,794.41749 539.508267,792.366672 537.165862,794.41749 C533.601529,797.539864 531.976048,804.75712 532.363819,810.056378 C532.774134,815.772103 536.426392,821.231193 538.430625,826.170264 C515.051665,824.432359 491.334532,822.701208 467.6174,820.972309 C467.344608,822.401803 467.076324,823.858311 466.780987,825.303563 C468.314034,826.210785 469.822281,827.874401 471.407181,827.95094 C484.415532,828.425938 497.46221,828.115276 510.443507,829.114796 C516.733507,829.553775 522.798059,833.189416 529.108349,833.664414 C539.282819,834.423058 549.678228,834.726967 559.726446,833.40778 C565.966848,832.583851 566.566539,834.853032 567.608109,839.425162 C569.23359,846.401542 573.129332,853.179819 573.233038,860.084163 C573.348016,867.143836 572.256848,876.913921 567.684762,880.749917 C561.969654,885.603443 554.4194,880.072314 549.804478,873.863583 C547.635668,870.869525 545.584091,867.774164 542.400765,863.208789 C548.738109,863.208789 553.413901,863.598241 557.940898,863.012937 C560.0804,862.747298 561.958382,860.601932 563.924289,859.33002 C562.388987,857.918536 560.813106,855.239641 559.327403,855.27566 C553.31245,855.412982 547.30426,856.448521 541.343414,857.13963 C541.190109,858.353012 541.036805,859.523621 540.876737,860.759514 C538.261539,857.317473 534.942944,854.192847 533.177686,850.341092 C528.686762,840.595771 519.783819,842.500262 512.012625,839.679544 C501.642016,835.915585 492.748091,841.457969 483.308582,838.90289 C479.277572,837.822327 474.617561,839.168528 470.210052,839.404901 C470.182998,840.897428 470.167217,842.371945 470.146927,843.846462 L504.27074,843.846462 C499.047109,850.431139 499.035837,850.257799 467.425769,852.943446 C455.071217,853.974483 442.833898,855.971272 430.528944,857.353491 C418.42464,858.744715 405.898747,862.949904 395.185457,854.192847 C395.318471,853.159559 395.45374,852.115015 395.586754,851.083979 C399.971719,851.768335 404.307084,852.783613 408.655977,852.954702 C410.955547,853.067261 413.329514,851.637767 415.683192,850.944406 C413.669941,849.388847 411.825776,847.628431 409.656966,846.313746 C408.015704,845.275956 406.074597,844.753685 404.516751,841.6133 C409.210579,841.959981 413.924697,842.545285 418.625289,842.583555 C423.463403,842.628579 429.969833,844.103096 427.307292,834.058369 L392.973812,834.058369 C406.692324,829.157568 421.120998,831.732909 434.424686,827.966699 C434.266873,826.620498 434.109059,825.303563 433.9535,824.004637 L397.823199,824.004637 C398.026102,818.464504 398.026102,818.464504 431.103837,812.1162 C424.532027,803.298361 414.975285,810.533626 408.732629,806.076307 C412.319507,795.507057 424.184837,790.050217 438.83445,789.699034 C460.200159,789.242046 481.205152,790.194292 502.237199,794.59083 C512.082514,796.668661 517.644317,788.812073 522.356181,781.340434 C524.912762,777.310837 527.491887,773.278989 529.793711,769.105317 C533.006346,763.272532 537.657339,760.222194 544.213367,762.065904 C550.440242,763.842078 555.528604,765.762327 557.438149,774.188462 C559.942876,785.039109 569.92797,790.779596 579.777794,795.462033 C585.49741,798.190453 591.13812,801.173255 598.803353,805.031763 C588.139661,813.737043 579.130758,821.055602 570.590787,828.031983 M577.926866,942.843981 C577.694654,944.939821 570.890633,946.450357 567.012927,948.064447 C563.667278,949.464676 559.652048,949.923915 556.795622,952.049021 C548.01893,958.539148 539.593937,965.520031 531.173453,972.534682 C525.192317,977.514273 516.812414,977.129323 511.480568,971.818809 C496.900844,957.15918 481.065375,945.786262 458.842962,954.511803 C455.549167,955.79497 451.633134,958.021379 450.158704,960.920888 C445.906754,969.218706 439.605482,972.010159 430.765665,971.060164 C427.009701,970.672963 423.17483,970.805782 419.380539,970.97462 C401.378514,971.706251 384.483439,968.896789 371.071536,955.77471 C379.49202,953.825195 393.269149,956.765225 406.106159,962.982961 C410.718826,965.218374 415.487052,967.422271 420.4424,968.550108 C422.863711,969.090389 425.853152,967.203908 427.64321,964.32691 C409.07531,957.807518 390.523192,951.306134 371.959801,944.784491 C371.982346,944.118144 372.025181,943.424783 372.065762,942.771943 C377.314192,943.593621 382.549095,944.577383 387.82007,945.24373 C401.734722,947.019904 415.671919,948.926646 429.61588,950.180549 C432.411435,950.446187 435.382841,948.064447 439.693407,946.371566 C414.382357,942.645878 391.641414,939.311893 368.744912,935.914875 C368.530737,925.858892 374.712522,927.66208 379.949679,928.094305 C393.625357,929.264914 407.296525,930.566091 421.008274,931.599379 C423.792557,931.819994 426.712109,930.951042 429.543737,930.60211 C429.688023,929.174867 429.780457,927.792648 429.890927,926.363154 C410.955547,924.348356 392.053984,922.367325 373.174966,920.336768 C374.333769,906.411021 379.045633,900.713306 391.860099,900.330607 C410.367127,899.806084 429.027461,899.504427 447.448819,901.017214 C454.002593,901.537235 461.050099,906.609124 466.149733,911.419878 C477.886557,922.443864 499.121507,923.002155 509.84607,911.356845 C511.194249,909.877825 513.279643,907.912552 513.103794,906.39076 C511.329518,890.794644 522.635737,882.591375 530.693249,873.800551 C545.933536,889.284108 562.077869,904.139589 576.064665,920.748732 C580.034805,925.473941 578.724952,935.455636 577.926866,942.843981 M593.908876,1014.98727 C595.964962,1020.98214 596.706686,1027.95177 595.877038,1034.21678 C595.432905,1037.46522 590.610572,1040.71816 587.048493,1042.57763 C585.984378,1043.11791 580.711149,1039.10633 580.276034,1036.66155 C577.448916,1020.46212 563.193837,1008.07393 564.941059,990.336946 C565.150726,988.256864 563.39674,985.827849 562.280772,983.752269 C556.236511,972.534682 562.519747,962.739834 574.116794,962.739834 C581.173317,981.147664 588.049482,997.898631 593.908876,1014.98727 M560.675582,1042.10038 C554.239041,1033.5842 547.788973,1025.1198 541.36145,1016.60587 C540.035815,1017.47482 538.683127,1018.31901 537.343966,1019.16095 C539.677353,1023.47419 541.832636,1027.87073 544.294529,1032.09168 C547.029213,1036.70658 550.007382,1041.19541 551.100805,1047.08448 C544.846876,1038.94199 538.565894,1030.75448 532.291676,1022.58498 C531.504862,1022.84161 530.73383,1023.08024 529.937998,1023.31886 C530.643651,1026.55154 530.585034,1030.18268 532.178952,1032.86833 C535.975496,1039.37196 540.669324,1045.37134 544.801787,1051.76241 C546.086841,1053.71193 546.679769,1056.1567 547.581561,1058.36285 C545.009199,1057.6042 541.654532,1057.58394 539.995235,1055.92033 C532.316475,1048.11777 525.140464,1039.84696 517.666862,1031.85305 C516.39759,1030.48884 514.515099,1029.66491 511.552711,1030.14216 C520.007013,1041.32373 528.497385,1052.55933 536.942668,1063.75665 C535.779357,1064.72916 534.629572,1065.70842 533.448224,1066.66066 C524.019987,1057.43086 514.57597,1048.20556 505.16126,1038.97576 C504.360919,1039.50028 503.580869,1039.99554 502.778274,1040.49755 C504.000203,1043.09765 504.818579,1045.95664 506.491403,1048.20556 C511.401661,1054.79249 516.834959,1060.98321 521.598676,1067.65793 C522.949109,1069.56242 522.671808,1072.61501 520.890769,1076.01878 C515.63783,1071.68753 510.391654,1067.309 505.129697,1062.93272 C504.16478,1063.97727 503.193099,1065.05783 502.237199,1066.09112 C506.52522,1071.59523 510.80197,1077.1016 515.962475,1083.76507 C505.751934,1084.46068 505.3326,1086.97299 508.493382,1096.72506 C511.800704,1107.03543 507.417995,1119.93689 505.792514,1131.5912 C505.693317,1132.28231 499.254522,1133.57899 497.239016,1132.28231 C487.066801,1125.78768 483.38298,1110.66657 488.608866,1099.70561 C494.427679,1087.49301 492.856306,1079.95608 483.38298,1074.27863 C473.900636,1068.5629 461.050099,1071.46692 454.433199,1080.90608 C452.665686,1083.46341 451.373869,1086.32015 449.683009,1088.88423 C442.362711,1099.96675 430.308005,1104.43307 417.319944,1101.09008 C395.361306,1095.46666 373.312489,1096.37388 350.884919,1098.46972 C339.411869,1099.53452 327.266984,1095.91689 315.791679,1092.94985 C312.714314,1092.12367 308.297787,1084.76459 309.273977,1082.51116 C311.097851,1078.41853 316.217776,1073.76536 320.447181,1073.24534 C326.962629,1072.37639 333.850066,1075.23763 340.631543,1075.80042 C344.878984,1076.1471 349.239149,1075.1926 353.558733,1074.84592 C353.491099,1073.58977 353.434737,1072.34037 353.371611,1071.07296 C343.025801,1068.86906 332.657446,1066.66066 322.334181,1064.45227 C322.397306,1063.50227 322.462686,1062.55003 322.519048,1061.61354 C330.673504,1060.98321 338.839231,1060.33262 346.984668,1059.72931 C346.993686,1058.21877 346.993686,1056.74425 347.029758,1055.26974 C339.567428,1054.09688 332.123134,1052.96904 324.676586,1051.79843 C324.791565,1050.46123 324.890762,1049.07001 324.978686,1047.70355 C332.578539,1047.70355 340.203192,1048.1808 347.730901,1047.46493 C351.092332,1047.19253 354.248604,1044.50238 357.479274,1042.92656 C353.978066,1041.83475 350.528711,1040.0203 346.984668,1039.84696 C341.898561,1039.6286 336.713256,1041.08285 331.629403,1040.75418 C329.546263,1040.64613 327.657009,1037.7061 325.682084,1036.07625 C326.529769,1034.64675 327.399998,1033.26454 328.245428,1031.83504 C348.828833,1035.53147 369.396457,1039.19862 389.979862,1042.87704 C390.234618,1041.75145 390.446539,1040.58309 390.685514,1039.41474 C379.570927,1035.99296 368.560045,1032.19973 357.330478,1029.28221 C351.743876,1027.82345 345.607181,1028.50106 339.966471,1027.19988 C336.681694,1026.48626 333.83203,1023.82312 330.790737,1022.04695 C334.512884,1018.92457 338.622801,1012.85992 341.873762,1013.29214 C361.765041,1015.93952 381.439891,1020.04791 401.171102,1023.7781 C413.187482,1026.02927 426.114672,1026.44123 437.057919,1031.22948 C465.277249,1043.57715 485.680296,1031.24749 505.569321,1013.51051 C512.950489,1006.9731 521.458898,1001.55228 529.717059,996.057173 C534.16064,993.063115 538.608729,992.851505 541.954378,998.391638 C548.291722,1008.87759 555.091235,1019.01462 561.079134,1029.6469 C562.875955,1032.78729 562.562582,1037.09828 563.268235,1040.88025 C562.388987,1041.2742 561.539048,1041.70418 560.675582,1042.10038 M318.102522,1119.63523 C318.298661,1118.11569 318.494801,1116.6029 318.688686,1115.08336 C347.861661,1114.05008 377.021109,1113.00328 406.185066,1111.96999 C417.504812,1111.57604 429.543737,1113.46252 439.878274,1110.10152 C447.805027,1107.54644 453.673439,1098.46972 460.319647,1092.12367 C462.486203,1090.04583 463.782529,1086.19183 466.233149,1085.3679 C470.300231,1084.0307 474.973769,1084.46068 479.388041,1084.11625 C479.581927,1087.84419 481.412565,1092.94985 479.649561,1094.99391 C469.657704,1106.63922 459.679375,1118.58844 448.048511,1128.55437 C425.889224,1147.61729 400.025826,1145.01719 374.130866,1137.91249 C358.985267,1133.75458 343.932102,1129.22973 328.935299,1124.61482 C325.174826,1123.47123 321.702927,1121.31911 318.102522,1119.63523 M513.976278,1193.44214 C508.78421,1196.3439 505.361909,1202.27799 500.374998,1205.78081 C492.452754,1211.37948 486.627177,1208.99098 484.516984,1199.53156 C482.629984,1191.21573 481.762009,1182.7018 479.983224,1174.3387 C479.534582,1172.14831 477.437916,1170.3091 476.130317,1168.2943 C474.191464,1169.79809 471.770152,1170.93943 470.48059,1172.84617 C467.957826,1176.63715 466.120425,1180.88511 463.854672,1185.21861 C465.123944,1188.03033 466.544267,1191.27877 468.94078,1196.69058 C463.342905,1195.00445 460.033328,1194.02745 456.710224,1193.05719 C456.065443,1193.66051 455.436443,1194.26382 454.800679,1194.86938 C460.215941,1199.94353 465.635711,1205.00866 471.059991,1210.0783 C470.41521,1211.02829 469.808754,1211.98504 469.1775,1212.93504 C463.45112,1210.31692 457.729249,1207.73708 452.020905,1205.09871 C451.342306,1206.09373 450.647927,1207.08649 449.951292,1208.08376 C454.681192,1211.8117 459.607231,1215.31678 464.019249,1219.38914 C465.926539,1221.1248 466.780987,1223.98153 468.106622,1226.32275 C465.256959,1226.64467 461.990217,1228.05616 459.688392,1227.10391 C455.138851,1225.19942 451.112349,1222.03202 446.894217,1219.38914 C446.026242,1220.39317 445.128959,1221.42645 444.231676,1222.43948 C446.655242,1224.62762 449.358364,1226.59965 451.450522,1229.09169 C454.239314,1232.4707 459.420109,1238.36652 458.576934,1239.53038 C454.49407,1245.12454 448.817289,1249.53908 443.390754,1253.9964 C443.052582,1254.2823 439.118514,1251.80827 438.712708,1250.1424 C436.776109,1242.77882 435.258844,1235.28917 434.154149,1227.75225 C432.914185,1219.34637 433.263629,1210.57356 431.169217,1202.43557 C427.199077,1186.77642 405.946091,1182.04896 396.024124,1194.31109 C389.253919,1202.65168 383.399034,1211.93777 378.358016,1221.47148 C373.991088,1229.74003 369.313041,1232.99072 360.484496,1228.05616 C342.937876,1218.1555 323.483966,1215.09841 304.005256,1211.02829 C288.733407,1207.82713 274.507636,1199.64187 260.214231,1192.66099 C269.117174,1189.15591 273.614862,1190.41207 292.877142,1201.4383 C298.028629,1204.35582 301.595217,1205.00866 303.822643,1197.86344 C289.200084,1190.9501 274.778174,1184.12905 260.376554,1177.33501 C260.505059,1176.50883 260.647091,1175.68715 260.798142,1174.86097 C263.347959,1175.03656 266.039808,1174.73491 268.422794,1175.46429 C276.935711,1178.06664 285.254744,1181.38036 293.875876,1183.61578 C296.468529,1184.26186 299.723998,1182.26958 302.672858,1181.53795 C300.348489,1179.75727 298.267604,1177.41605 295.643389,1176.38276 C288.451597,1173.3707 280.763819,1171.48421 273.876382,1167.97464 C271.349109,1166.67346 270.562296,1161.99553 268.294289,1157.58098 C278.529629,1157.83761 285.678586,1172.97674 293.488106,1157.20503 C291.801754,1156.49141 290.699314,1155.67424 289.52022,1155.53692 C283.194149,1154.9336 274.983332,1156.21902 274.983332,1146.74834 C274.983332,1136.54603 283.225711,1130.02889 292.345084,1128.45307 C305.443615,1126.17263 313.798719,1135.35741 324.385758,1139.21142 C356.007099,1150.73292 388.313801,1159.8344 422.606701,1155.28478 C426.552041,1154.74225 430.488364,1152.81075 434.021134,1150.84322 C446.179547,1143.95914 457.999787,1136.37269 470.41521,1129.99062 C472.750851,1128.77274 478.617009,1130.59619 480.54459,1132.88563 C492.288177,1147.09727 502.981177,1162.12159 514.85778,1176.20717 C520.532306,1182.96744 524.477647,1187.60035 513.976278,1193.44214 M440.615489,1311.39452 C435.506837,1313.68622 430.177246,1311.39452 427.798769,1305.1115 C421.93712,1289.53565 415.550177,1274.09711 410.324292,1258.32766 C409.251159,1255.06121 412.301471,1250.47332 413.446747,1246.45948 C414.598787,1246.76339 415.726027,1247.04704 416.878066,1247.3667 C425.172299,1264.46435 433.804704,1281.44269 441.490228,1298.78346 C443.052582,1302.38534 442.525034,1310.50531 440.615489,1311.39452 M407.255944,1328.13424 C404.990192,1330.19406 400.316654,1330.86491 396.99355,1330.43268 C381.358729,1328.3526 365.787034,1325.82003 350.201812,1323.17265 C343.871231,1322.08984 337.678174,1319.79139 331.304758,1319.18583 C322.539339,1318.40692 316.170432,1322.96104 312.207056,1330.57901 C309.217615,1336.38478 306.358934,1342.23783 303.894787,1348.25296 C299.399353,1359.2972 295.187984,1361.42231 285.360704,1355.70658 C269.160009,1346.30344 251.829819,1342.27384 233.207812,1341.78084 C205.858711,1341.01994 185.645041,1317.86889 187.410299,1290.1232 C187.748471,1284.8217 207.321869,1257.52849 212.234382,1257.07376 C216.357826,1256.70681 220.934421,1258.09129 224.882016,1259.71888 C240.325206,1265.95913 255.202522,1273.92603 271.044754,1278.61972 C280.948686,1281.56875 292.286468,1280.46118 302.911833,1279.81284 C305.556339,1279.68227 307.898744,1274.39877 310.369654,1271.45874 C309.862396,1270.61005 309.364156,1269.78612 308.852389,1268.98921 C323.549346,1267.4314 338.201213,1265.65522 352.916206,1264.5634 C355.116579,1264.39231 358.468991,1266.88211 359.726991,1269.068 C364.368966,1277.08442 368.115912,1285.59835 372.717306,1293.59451 C373.909927,1295.64308 377.077471,1296.57731 379.320679,1298.00906 C379.431149,1295.49675 380.416357,1292.50269 379.460457,1290.46989 C375.769873,1282.47823 371.461561,1274.79273 367.376443,1267.01943 C367.987407,1266.0852 368.609643,1265.15096 369.225116,1264.26175 C372.295719,1266.34183 376.144116,1267.87938 378.279109,1270.67308 C382.747489,1276.63644 386.043539,1283.45523 390.412722,1289.47262 C391.835299,1291.44914 395.162912,1292.02544 397.595496,1293.24333 C398.256059,1292.42165 398.885059,1291.59772 399.545622,1290.80081 C394.730052,1282.63356 389.96859,1274.4438 385.166547,1266.26079 C386.043539,1265.69349 386.902496,1265.13295 387.770471,1264.52964 C393.332274,1271.97426 398.885059,1279.38287 405.152514,1287.69869 C407.213109,1284.14184 408.297514,1282.20133 409.456317,1280.20679 C410.358109,1280.90241 411.02769,1281.13878 411.237357,1281.58901 C412.030934,1283.45523 412.418704,1285.49029 413.349805,1287.26422 C425.260224,1309.22665 425.06183,1311.93481 407.255944,1328.13424 M393.771898,1355.52874 C387.941812,1366.35688 381.088192,1376.66949 374.250353,1387.71149 C361.907073,1382.82195 350.147704,1358.34271 353.937486,1346.56683 C354.561977,1344.66459 357.871554,1342.23783 359.747281,1342.36389 C369.99164,1343.27111 380.287851,1344.489 390.349597,1346.67714 C392.182489,1347.0891 394.806704,1353.62875 393.771898,1355.52874 M380.154837,1457.10385 C377.943192,1459.31675 372.620364,1460.06864 369.299514,1459.16367 C353.013149,1454.64107 336.983794,1449.22025 320.758299,1444.45902 C318.427167,1443.76116 315.435471,1444.55132 312.993869,1445.34598 C308.753192,1446.75522 304.722181,1448.74525 300.591973,1450.43813 C285.599679,1456.65587 282.238249,1454.46773 278.50483,1439.23855 C277.31221,1434.41654 272.749142,1428.30461 268.323597,1426.78507 C252.968332,1421.59612 237.387618,1423.97111 228.685324,1440.55549 C224.730966,1448.09241 219.741801,1455.32768 213.970332,1461.57018 C210.845622,1464.90641 204.999754,1467.67986 200.547156,1467.46149 C176.609084,1466.24361 152.677776,1464.32111 128.798321,1462.00465 C115.826041,1460.75075 108.420073,1452.14902 108.999475,1439.49519 C120.068973,1444.17312 130.234425,1449.22025 140.898116,1452.73433 C149.300565,1455.48526 157.806719,1455.00801 164.022321,1442.90346 C140.095522,1452.73433 125.770554,1439.17552 110.620446,1427.91066 C110.834622,1426.95841 111.082615,1426.00842 111.323844,1425.09895 C119.802944,1426.39787 128.331643,1427.67429 136.853579,1428.92819 C137.288694,1428.30461 137.735081,1427.6923 138.167941,1427.08898 C136.614604,1425.65499 135.304751,1423.53663 133.478622,1422.97384 C129.219909,1421.67491 124.262306,1421.99458 120.501833,1419.96177 C117.724314,1418.46925 116.412206,1414.31358 114.446299,1411.31727 C115.242131,1410.63067 116.022181,1409.9328 116.802231,1409.23944 C125.984729,1411.15294 135.192027,1413.01241 144.379034,1414.89664 C144.859238,1413.31631 145.28759,1411.75625 145.745249,1410.17368 C142.557414,1408.93779 139.457504,1406.94775 136.179489,1406.68436 C122.298654,1405.52051 119.726292,1403.17479 121.399116,1389.66326 C122.298654,1382.455 124.632041,1375.43135 126.322901,1368.30864 C132.482142,1371.03481 138.546694,1374.0964 144.879529,1376.3926 C157.727812,1381.04352 170.621185,1385.7057 183.769314,1389.3616 C186.393529,1390.11799 190.230654,1386.50036 193.526704,1384.89978 C191.062557,1382.29967 189.031271,1378.3151 186.066629,1377.41013 C174.753647,1374.04688 163.165618,1371.6854 151.667769,1368.92096 C152.069066,1367.31362 152.479382,1365.71529 152.903224,1364.08544 C168.551572,1368.65307 184.903317,1371.64938 199.667909,1378.18903 C222.420124,1388.23376 245.397787,1394.87922 270.363901,1393.86619 C272.465077,1393.73788 274.886389,1394.38396 276.554704,1393.54653 C292.965066,1385.11814 300.037371,1397.16191 307.873944,1407.55332 C308.886206,1408.91753 309.819561,1410.34927 310.849858,1411.71123 C311.030217,1411.97011 311.476604,1412.01289 314.959776,1413.62022 C313.365858,1407.77618 312.691769,1403.74658 311.142941,1400.06592 C309.569314,1396.383 307.116439,1393.04001 306.985679,1388.32606 C315.435471,1399.90834 323.885263,1411.4726 332.298984,1423.04138 C333.696762,1422.1319 335.087776,1421.24494 336.476536,1420.32871 C329.733385,1409.04584 322.985726,1397.8125 316.260611,1386.50036 C316.941464,1385.77098 317.624572,1384.98307 318.321206,1384.29421 C320.889059,1386.3923 324.090421,1388.10319 325.932332,1390.7078 C334.359579,1402.70429 342.351711,1414.9169 350.661726,1426.97642 C351.507156,1428.24383 353.231833,1428.90793 354.561977,1429.86017 C355.407407,1429.30413 356.261855,1428.73459 357.098267,1428.1763 C347.861661,1412.72876 338.649855,1397.24295 329.045769,1381.21911 C333.252629,1378.70905 337.279131,1376.19224 342.471199,1373.05186 C344.175586,1376.52317 345.607181,1379.67931 347.275496,1382.7274 C349.836586,1387.45486 351.484611,1394.62484 355.423188,1396.28845 C368.388704,1401.79482 369.788737,1413.74404 373.770149,1424.38758 C376.491306,1431.6386 378.944181,1439.0472 380.774819,1446.58188 C381.606722,1450.00816 382.055364,1455.19936 380.154837,1457.10385 M306.954116,1545.34302 C323.308116,1541.57006 337.556432,1547.37358 349.284238,1557.08288 C365.275267,1570.3783 365.692346,1586.18377 352.557744,1602.77716 C348.114163,1608.40959 342.775554,1613.38918 337.450471,1618.24496 C328.385206,1626.47524 322.582174,1625.34741 316.001346,1614.60031 C314.405174,1612.00696 312.865364,1609.37985 309.720364,1604.07609 L336.733547,1604.07609 C330.723102,1594.57164 326.421554,1587.94194 315.89764,1588.41919 C304.005256,1588.95947 292.009167,1588.84691 280.132565,1588.09727 C276.915421,1587.92168 273.898927,1584.32656 270.799016,1582.26448 C271.044754,1581.37752 271.297256,1580.46805 271.556522,1579.60135 C280.310668,1578.51854 289.028744,1577.08904 297.812199,1576.42269 C305.901274,1575.79012 314.048966,1576.02874 320.643321,1571.2495 C320.402091,1570.15768 320.165371,1569.09513 319.924142,1568.03483 C307.497446,1568.90378 294.971554,1569.07712 282.653073,1570.81052 C272.291482,1572.30305 262.277081,1576.66357 251.892944,1577.65634 C245.113722,1578.31143 237.863314,1575.68206 231.020966,1573.7393 C222.904837,1571.4431 215.239604,1567.30095 207.008496,1565.71837 C188.756224,1562.23806 180.57697,1567.39325 174.442529,1584.9749 C172.206084,1591.38398 170.213124,1598.06096 168.961887,1604.72893 C167.444622,1612.7566 162.491529,1615.81595 155.094579,1615.3387 C146.886016,1614.80067 138.641382,1613.95648 130.541034,1612.5675 C118.375858,1610.46941 106.370751,1607.53614 94.232629,1605.33224 C66.0155538,1600.21983 53.5099516,1581.24921 59.5632312,1552.83492 C61.3510341,1544.50108 62.4715108,1536.02992 64.0180842,1526.89242 C65.927629,1527.75012 68.1415287,1528.4007 69.9383495,1529.63885 C87.1738513,1541.39672 107.141783,1545.18544 127.037572,1549.02369 C129.382231,1549.45366 132.308547,1547.13946 134.944034,1546.10392 C132.660246,1543.51957 130.798045,1539.53725 127.995726,1538.71332 C119.836762,1536.20326 110.956364,1535.93988 103.018339,1533.03587 C92.467371,1529.17961 82.2342849,1524.164 72.4633674,1518.57884 C69.4942168,1516.88146 68.4751918,1511.72628 67.8484462,1507.35 C79.8174821,1519.30822 93.3421093,1524.94065 109.806579,1524.54445 C115.544231,1524.41838 121.333737,1526.30486 127.080407,1527.32239 C155.538711,1532.45732 182.795378,1529.2539 209.795034,1518.35598 C223.533837,1512.80909 238.722271,1510.21799 253.520679,1508.17393 C269.985149,1505.92276 280.112274,1516.92873 289.028744,1528.92298 C292.511916,1533.64819 295.959016,1538.36664 299.960719,1542.58759 C301.556891,1544.28047 304.907048,1545.83828 306.954116,1545.34302 M192.954066,1603.99504 C191.650977,1598.66652 191.078339,1591.68789 193.486124,1587.35663 C195.774421,1583.20322 202.830944,1578.73915 207.150529,1579.34246 C216.682471,1580.64364 228.218647,1582.07314 232.254167,1592.55684 C233.69478,1596.36582 229.738167,1604.15713 225.964167,1607.74099 C212.205073,1620.62445 204.458679,1636.33087 199.809941,1654.26145 C195.774421,1669.87333 184.777066,1672.16952 173.355869,1660.56023 C161.752059,1648.73933 161.752059,1648.73933 147.677339,1643.88355 C154.411471,1643.88355 161.298909,1644.79077 167.825629,1643.6922 C189.721142,1639.94625 198.290421,1625.523 192.954066,1603.99504 M164.874514,1747.08401 C164.552124,1744.54469 165.388536,1741.30075 166.871984,1739.24768 C170.332611,1734.50221 174.507909,1730.30152 178.410414,1725.8397 C182.768324,1730.77427 189.333371,1735.02448 191.021977,1740.74246 C195.037206,1754.33953 183.629536,1780.91011 170.808306,1786.95676 C163.650332,1790.3155 154.411471,1789.29798 146.101457,1790.25022 C145.790339,1789.03459 145.495002,1787.82571 145.195156,1786.60783 C155.723579,1775.39024 167.165066,1764.73995 164.874514,1747.08401 M265.557349,1607.93234 C247.501217,1618.02209 242.275332,1632.55566 248.935066,1652.30744 C252.862371,1663.91898 257.804192,1673.34238 269.293023,1680.31201 C278.180185,1685.68781 283.701407,1696.49118 291.111884,1704.5031 C293.233349,1706.82406 296.705249,1707.90012 299.536876,1709.55022 C300.298891,1708.51469 301.045124,1707.42737 301.793611,1706.34456 C296.434711,1699.71486 291.044249,1693.04914 285.678586,1686.39918 C286.544306,1685.32087 287.401009,1684.23355 288.246439,1683.15074 C291.90997,1685.51221 296.355805,1687.19834 299.072453,1690.38375 C305.294819,1697.72707 310.502668,1705.88757 316.531149,1713.38622 C317.863547,1715.05209 320.913858,1715.35374 323.175102,1716.28798 C322.969944,1713.53255 323.677851,1710.20306 322.374762,1708.16801 C317.829729,1700.99802 312.581299,1694.30304 307.637224,1687.37168 C308.710357,1686.13354 309.819561,1684.9089 310.912984,1683.67076 C313.602579,1685.05298 317.19622,1685.73508 318.819446,1687.8917 C324.541317,1695.52317 329.350124,1703.88177 335.065231,1711.54701 C336.873324,1713.97153 340.442167,1715.09936 343.224195,1716.83051 C342.710174,1713.32319 343.224195,1709.24407 341.560389,1706.45711 C336.920668,1698.68157 331.356611,1691.49358 326.148762,1684.0422 C326.897249,1683.13048 327.636719,1682.2165 328.351389,1681.30703 C331.043238,1683.03818 334.503866,1684.21329 336.235306,1686.6378 C339.619281,1691.31574 341.704676,1696.92115 345.030034,1701.66437 C346.168547,1703.3595 349.345109,1703.60038 351.604099,1704.48509 C352.039213,1702.03356 353.522661,1699.11154 352.665959,1697.26783 C350.621145,1692.82627 347.482909,1688.93625 344.119224,1683.80132 C357.283134,1686.6378 363.620478,1697.72707 361.232984,1711.8014 C360.207195,1717.86605 358.859016,1723.97348 356.960744,1729.77925 C351.178002,1747.79763 339.445686,1753.5111 319.861016,1749.35544 C300.095987,1745.15475 280.285869,1740.51959 260.257066,1738.53406 C252.425002,1737.72814 240.095249,1741.2152 236.636876,1746.92868 C231.562041,1755.20848 234.693514,1766.94834 241.249543,1775.82021 C243.274066,1778.58015 245.506002,1781.84435 248.434572,1783.19505 C263.435884,1790.03411 272.465077,1803.02562 282.506532,1815.0041 C283.097206,1815.71998 284.188375,1816.01938 285.960396,1817.03691 C286.686339,1813.89653 287.283776,1811.21313 288.088625,1807.65853 C294.236593,1812.68765 299.960719,1817.33857 305.675826,1821.98273 C306.814339,1820.87516 307.961869,1819.79234 309.091364,1818.70503 C302.420357,1810.60756 295.720041,1802.48534 288.214876,1793.36584 C298.580977,1790.37854 304.048091,1791.98362 308.710357,1800.81947 C312.581299,1808.13578 319.838471,1813.68492 325.607686,1820.00621 C326.973901,1819.00669 328.371679,1818.01842 329.742403,1817.02115 C325.639249,1810.37119 321.542858,1803.67621 317.19622,1796.61653 C326.324611,1797.39319 335.065231,1797.01049 343.145289,1799.08832 C355.993572,1802.46958 362.427858,1821.35016 359.240023,1838.75846 C356.895364,1851.23896 349.854622,1857.12577 337.962238,1858.12529 C323.549346,1859.25088 309.125181,1859.94874 294.701016,1860.85596 C294.268156,1859.12256 293.855586,1857.38691 293.440762,1855.6355 C302.648059,1852.31952 311.735869,1848.59158 321.119016,1845.82714 C326.324611,1844.26033 332.123134,1844.73532 337.405382,1843.30808 C340.218973,1842.57645 342.439636,1839.71971 344.944364,1837.78821 C342.169099,1835.69012 339.305909,1831.66052 336.650131,1831.79109 C314.991339,1832.74108 295.039188,1838.85076 277.001091,1851.58789 C271.533977,1855.46216 263.780819,1857.28561 256.915927,1857.79437 C243.533332,1858.77588 241.736511,1856.52471 240.812174,1843.78533 C240.478511,1838.97683 240.834719,1833.78563 239.055934,1829.53541 C236.950249,1824.6031 233.805249,1818.66901 229.456357,1816.4336 C221.432661,1812.34097 216.163941,1807.48519 214.132654,1798.5683 C213.296242,1794.79308 210.097134,1791.61668 207.495464,1787.43175 C199.622819,1798.34543 204.916339,1817.36333 215.868604,1824.77419 C219.624568,1827.30225 226.061109,1829.8866 226.279794,1832.82438 C226.814106,1840.46935 225.616977,1848.59158 223.243009,1855.98218 C219.644858,1867.02417 207.486446,1872.97627 195.305489,1869.68956 C177.362081,1864.85404 159.529142,1859.47374 142.014084,1853.31679 C136.019421,1851.20969 131.039274,1846.16707 125.637539,1842.45039 C124.323177,1843.43865 123.024597,1844.43592 121.746306,1845.41518 C124.120274,1850.30472 125.182134,1857.34639 129.091403,1859.71012 C139.153149,1865.81755 150.378206,1870.07451 161.350762,1874.62863 C166.263274,1876.65919 171.6605,1877.51013 176.859332,1878.89235 C177.229066,1880.0382 177.576256,1881.25608 177.943737,1882.46496 C162.926643,1889.39857 147.914059,1896.3772 132.863149,1903.23427 C122.073206,1908.15083 110.827858,1912.18042 100.427941,1917.8106 C85.2755789,1925.99811 69.9947115,1930.63553 50.8068297,1925.31151 C75.4032097,1915.73502 104.675382,1921.01627 118.105321,1892.8226 C95.3508513,1909.03779 70.2427043,1914.3528 43.4594785,1912.1444 C43.2295215,1911.18315 42.9589839,1910.19489 42.7087366,1909.24039 C51.3095789,1906.89692 59.9194391,1904.77182 68.4143208,1902.18072 C70.5696039,1901.53238 72.334862,1899.61889 74.2985143,1898.27944 C71.762224,1897.67387 69.0703746,1896.24663 66.6873889,1896.64959 C58.9770663,1897.95077 51.3749588,1899.96557 43.2633387,1899.88452 C51.6432419,1895.28763 63.1388369,1898.62837 70.3103387,1888.3 L38.9708082,1888.3 C38.8693566,1887.23519 38.7498692,1886.14562 38.6416541,1885.11234 C43.053672,1884.44374 47.4251093,1883.55678 51.8483996,1883.16057 C56.6459337,1882.68557 61.524629,1882.96922 66.2973638,1882.27136 C67.6410341,1882.08226 68.6532957,1879.5632 69.8211165,1878.09769 C67.9656792,1877.44935 66.1305323,1876.31926 64.2683315,1876.27424 C55.1354319,1876.11891 46.0386039,1876.35753 36.9057043,1876.11891 C35.791991,1876.1009 34.3062885,1874.15138 33.7291416,1872.76916 C29.5425717,1862.71318 25.5543961,1852.60542 21.4534964,1842.45039 C36.4615717,1838.72245 51.2464534,1835.58206 65.7202168,1831.44216 C87.7397258,1825.15914 107.908306,1815.28775 126.018547,1800.94554 C129.587389,1798.09105 136.116364,1798.34543 141.254324,1798.39271 C152.740901,1798.5683 164.234242,1800.06083 175.723073,1799.80419 C179.506091,1799.73891 184.213446,1796.91819 186.815116,1793.88811 C197.943231,1780.8921 206.476439,1766.59941 204.905066,1748.44822 C204.765289,1746.80036 205.423597,1745.15475 205.838421,1742.89908 C246.157547,1742.6447 256.514629,1735.97673 255.714289,1711.4187 C255.094306,1693.04914 245.021289,1684.94492 223.569909,1686.44645 C222.124787,1691.9213 222.334453,1696.92115 229.668278,1696.92115 C238.381844,1696.95042 243.704672,1701.58333 242.872769,1709.07298 C242.207697,1714.96204 238.253339,1722.30761 233.392679,1725.57406 C222.363762,1733.09298 205.739224,1728.60639 195.943507,1719.63998 C189.182321,1713.38622 180.752819,1706.84657 172.120414,1705.13568 C156.188002,1701.96828 140.963496,1717.15243 139.599536,1733.74356 C138.900647,1742.21472 137.710281,1750.87723 134.935016,1758.82612 C132.660246,1765.36127 127.725188,1770.97569 119.002604,1768.00865 C99.1992491,1761.31591 79.4409839,1767.50663 59.6398835,1767.79028 C46.1783817,1767.94561 32.656009,1765.45582 19.2305789,1763.64813 C17.0820591,1763.34872 15.3032742,1760.36367 10.9566362,1756.4804 C16.1306685,1757.30658 18.3490771,1757.19627 20.1819695,1757.99769 C40.4114211,1766.88306 60.158414,1759.10977 79.9933315,1756.16073 C80.8274892,1756.05042 80.9920663,1751.3995 81.4700161,1748.84442 C77.9214642,1748.27488 74.2985143,1747.08401 70.8423961,1747.40592 C59.5835215,1748.44822 48.3945358,1751.04832 37.1559516,1751.17889 C21.7984319,1751.35223 14.9853925,1743.51365 15.3032742,1728.56812 C15.6189014,1714.09984 15.8127867,1699.58654 16.1825215,1685.10025 C16.5500018,1669.56942 21.5166219,1666.49207 34.8022742,1673.51572 C62.7803746,1688.3712 92.0300018,1689.77819 122.731514,1684.0422 C134.477357,1681.8293 143.558403,1676.41973 153.232378,1670.695 C155.973826,1669.09442 162.491529,1669.52439 164.498016,1671.64725 C176.133389,1684.0422 196.290697,1680.42232 205.761769,1664.71814 C208.875206,1659.56071 209.653002,1653.02331 212.671751,1647.75557 C218.395876,1637.82115 224.762529,1628.20639 231.289249,1618.72221 C234.486102,1614.0893 239.412142,1610.48742 242.178389,1605.66316 C250.389206,1591.16787 255.560984,1589.7834 269.017977,1599.61651 C270.124927,1600.41568 271.125916,1601.34767 273.053496,1602.96851 C270.287249,1604.80997 268.032769,1606.57038 265.557349,1607.93234 M302.485737,2108.57263 C309.267213,2127.46446 304.816869,2146.71197 303.211679,2166.11932 C295.76964,2161.95916 294.903919,2130.84572 302.485737,2108.57263 M300.630299,1914.95612 C308.115174,1914.38657 316.084762,1920.28464 325.443109,1923.87526 C317.723769,1928.85485 312.062769,1932.02225 307.136729,1936.00682 C304.697382,1937.99461 303.581414,1941.63925 301.856737,1944.54101 C304.947629,1945.45049 308.279751,1947.59135 311.084324,1947.06908 C318.025869,1945.73188 324.633751,1942.63652 331.564023,1941.3376 C335.554453,1940.59246 339.9304,1942.00394 344.139514,1942.16153 C348.781489,1942.35738 353.434737,1942.19754 358.216489,1940.89862 C396.2135,1956.76037 388.667754,1976.33656 370.235124,2003.77159 C359.986256,1993.01099 356.090514,1980.06225 353.491099,1966.39088 C352.753884,1962.51887 351.092332,1958.74365 349.854622,1954.93467 L345.054833,1954.93467 C343.817124,1960.3735 342.257023,1965.76731 341.452174,1971.26467 C340.532346,1977.46215 338.906866,1984.04682 340.004797,1989.97866 C342.426109,2003.32135 350.769941,2012.3508 363.424339,2017.96522 C373.048715,2022.20643 382.652801,2026.95865 391.310005,2032.82971 C391.472328,2032.75317 391.607597,2032.67213 391.769919,2032.59559 C391.785701,2032.78018 391.792464,2032.96478 391.8105,2033.15163 C392.002131,2033.28445 392.209543,2033.397 392.403428,2033.53207 C405.508722,2042.77989 414.080256,2055.55754 415.27964,2072.1014 C416.316701,2086.45937 418.27359,2101.08523 408.937787,2113.88764 C389.267446,2090.8379 394.161923,2061.61094 391.8105,2033.15163 C391.648177,2033.03682 391.476837,2032.93777 391.310005,2032.82971 C379.931643,2038.27304 381.4196,2047.09538 380.860489,2053.56975 C378.831457,2076.69829 381.847952,2098.46487 394.283665,2119.70917 C404.915794,2137.79508 412.301471,2158.78501 402.329905,2179.93476 C395.273382,2164.57952 388.473869,2148.60296 380.601224,2133.13516 C376.283894,2124.66625 370.277959,2117.09106 364.869461,2109.15793 C358.216489,2099.48014 355.299192,2088.69703 360.538604,2078.08051 C368.133948,2062.61721 361.167604,2048.88732 356.352034,2035.41856 C353.001876,2026.01316 345.961134,2017.8279 339.9304,2009.53233 C332.876131,1999.87706 322.550611,1995.51654 311.118142,1992.75435 C297.530389,1989.45864 283.563884,1986.5096 270.941048,1980.74886 C255.937482,1973.95257 247.048066,1961.10738 245.625489,1944.039 C245.494729,1942.41591 245.113722,1940.79506 244.845439,1939.08417 C237.353801,1941.72255 232.398453,1953.50743 236.702256,1960.7607 C249.442324,1982.28866 263.647805,2001.54518 291.738629,2005.84942 C301.692159,2007.3487 312.768421,2014.44889 319.337977,2022.33475 C333.414952,2039.09922 345.507984,2057.59485 339.012826,2082.02906 C333.773414,2101.75158 343.521787,2118.62861 352.557744,2134.83029 C363.566371,2154.44475 373.964034,2173.68326 373.012643,2197.37234 C372.611346,2207.31351 377.943192,2217.42577 371.549486,2227.15083 C370.138181,2229.25793 368.877927,2231.46408 367.552292,2233.62295 C366.461124,2233.62295 365.385737,2233.60494 364.294568,2233.58918 C362.396296,2224.24907 361.115751,2214.74238 358.457719,2205.62063 C354.316238,2191.30993 348.689056,2177.40895 344.791059,2163.07124 C342.937876,2156.21867 344.270274,2148.55343 342.849952,2141.54103 C342.211934,2138.5087 338.262084,2136.12922 335.822737,2133.43681 C334.185984,2136.25753 330.986876,2139.24259 331.216833,2141.92373 C332.731844,2159.59768 333.559238,2177.20859 340.031851,2194.38728 C346.461629,2211.41064 344.35369,2229.43127 339.033116,2246.92963 C335.389876,2258.8811 332.788206,2271.14323 329.609389,2283.22977 C328.840611,2286.08425 328.089869,2289.11883 326.606421,2291.62664 C317.744059,2306.48887 309.882686,2322.05797 296.207009,2333.51419 C292.868124,2336.3304 289.754686,2340.01782 288.020991,2343.95287 C278.583737,2365.3525 258.543661,2374.55529 240.275608,2385.70985 C236.483572,2388.00604 231.257686,2388.05332 226.712654,2389.13163 C223.948661,2378.6029 228.502711,2369.07819 238.178941,2363.83071 C263.199163,2350.21563 280.675894,2329.35402 290.80302,2303.52408 C296.468529,2289.0558 297.410901,2272.57272 299.329464,2256.81902 C300.945927,2243.5236 300.925636,2230.03458 301.615507,2216.64687 C302.672858,2216.60184 303.748246,2216.56357 304.787561,2216.5208 C306.478421,2228.81895 310.502668,2241.38274 309.210851,2253.33871 C307.943833,2265.08082 315.088281,2267.71469 322.611482,2274.60553 C323.819884,2269.88932 325.131991,2266.9583 325.237952,2263.95299 C325.792554,2249.58601 326.520751,2235.21003 326.171306,2220.8498 C325.990948,2213.09452 323.208919,2205.41127 322.539339,2197.59295 C321.484242,2185.33082 319.881306,2172.87509 320.889059,2160.6895 C323.168339,2133.08788 316.855794,2106.92477 309.783489,2080.82919 C309.014711,2078.01747 306.023016,2075.77981 302.896052,2071.75246 C300.504048,2076.17827 297.095274,2079.66533 297.812199,2081.54056 C301.335952,2090.79062 298.287894,2098.56392 295.880109,2107.44929 C291.986622,2121.87255 291.143446,2137.08146 288.952091,2151.93244 C288.686063,2153.75364 288.117934,2155.53206 285.254744,2157.00658 C286.163299,2142.57432 287.062837,2128.15332 287.998446,2113.74807 C286.521762,2113.60399 285.056349,2113.4284 283.606719,2113.30234 C282.671109,2120.33275 281.697174,2127.32939 280.795382,2134.35529 C279.895844,2141.41272 279.070704,2148.47239 276.130862,2155.53206 C276.762116,2141.54103 277.370826,2127.59502 278.011099,2113.64902 C277.140869,2113.49369 276.241332,2113.41039 275.375611,2113.30234 C272.749142,2126.50096 270.147471,2139.71758 267.525511,2153.06028 C256.602554,2152.40969 252.862371,2145.95558 252.222099,2137.59248 C251.633679,2129.71788 252.596342,2121.69696 252.251407,2113.79309 C252.066539,2109.22772 252.179263,2103.42195 249.566321,2100.38737 C239.004081,2088.30308 231.257686,2071.97308 211.733887,2071.06586 C207.743457,2078.83915 211.086851,2082.95429 217.106314,2086.69799 C231.940794,2095.9278 238.298428,2110.91835 235.128629,2128.1173 C234.889654,2129.40947 234.486102,2130.80069 233.771432,2131.86099 C230.802281,2136.12922 204.720199,2143.57159 199.584493,2142.27041 C192.313794,2140.4132 184.874009,2139.13228 177.497349,2137.68703 C176.133389,2137.43039 174.169737,2138.03371 173.452812,2137.28857 C169.043048,2132.78623 164.888041,2128.07002 160.645109,2123.39209 C165.099962,2122.00537 169.584124,2119.55609 174.063776,2119.48856 C186.576142,2119.31522 199.093016,2120.50383 211.605382,2120.26971 C215.023174,2120.18642 218.395876,2116.9785 221.791124,2115.18657 C221.552149,2113.82011 221.324446,2112.41087 221.094489,2111.04666 C204.492496,2106.14811 187.881486,2101.27658 171.284002,2096.38703 C156.221819,2091.91846 139.716769,2088.9154 131.528496,2073.74925 C126.424353,2064.30784 124.287106,2053.20056 121.293156,2042.73486 C120.084754,2038.49816 120.12759,2033.89676 119.915668,2032.03955 C132.101134,2024.51838 143.109762,2017.74686 156.528428,2009.4648 C155.563511,2017.04675 154.650446,2022.80749 154.19955,2028.61326 C154.032719,2030.95673 154.866876,2033.33847 155.245629,2035.72021 C157.639887,2033.7707 161.580719,2032.16561 162.130812,2029.78613 C163.249034,2024.85156 162.011324,2019.42848 162.804901,2014.3656 C163.544371,2009.76871 165.645547,2005.40144 167.144776,2000.89459 C168.596661,2001.21651 170.016984,2001.54518 171.426034,2001.89186 C170.276249,2010.08162 169.137737,2018.30515 168.010496,2026.35984 C174.647686,2026.01316 175.024185,2026.05819 176.969801,2010.98884 C177.889629,2003.7986 177.118597,1996.34497 177.118597,1989.02866 C178.586263,1988.98364 180.026876,1988.90035 181.492289,1988.85307 C182.757052,2000.54566 184.015052,2012.24049 185.363231,2024.6512 C191.522471,2026.40712 191.826826,2026.40712 191.545016,2019.01427 C191.161754,2008.75343 189.484421,1998.46783 189.831611,1988.24751 C190.077349,1980.87942 192.737636,1973.56087 194.322536,1966.24231 C195.348324,1966.37287 196.369604,1966.49894 197.399901,1966.62951 C198.225041,1978.32209 199.566457,1990.01693 199.710744,2001.72077 C199.848267,2013.10945 198.743572,2024.56791 198.18897,2035.97685 C199.167414,2036.19521 200.121059,2036.41808 201.099504,2036.67021 C202.095984,2031.21337 203.861242,2025.8038 203.962694,2020.31995 C204.332428,2001.13321 203.723719,1981.90146 204.404572,1962.71022 C204.666091,1955.09 206.097686,1947.00605 209.231414,1940.11971 C215.444762,1926.53839 223.569909,1913.84629 230.227389,1900.48784 C235.606579,1889.70248 245.573636,1887.09787 255.657927,1886.21091 C267.683324,1885.11234 271.644446,1894.24984 274.440002,1905.83437 C267.805066,1907.67358 261.005554,1909.32369 254.388654,1911.52983 C251.861382,1912.38078 247.958876,1914.43159 247.839389,1916.14474 C247.469654,1921.08156 248.384973,1926.21648 249.803041,1930.93493 C250.030744,1931.63054 256.111077,1931.24785 259.082482,1930.18079 C262.186901,1929.07547 264.547342,1925.80451 267.66078,1924.69919 C278.540901,1920.97125 289.454841,1915.7778 300.630299,1914.95612 M301.473475,2369.03317 C300.265073,2368.09893 299.027364,2367.1737 297.791909,2366.22146 C309.643711,2351.48529 309.515206,2327.62512 335.899389,2323.98948 C324.417321,2339.01605 312.957797,2354.02236 301.473475,2369.03317 M101.020869,2009.14513 C87.3339194,1997.38952 86.2698047,1987.90083 97.6278763,1973.88053 C106.855464,1962.45359 115.886912,1951.12794 129.350668,1943.54374 C141.563188,1936.63265 152.145719,1926.86707 163.880289,1918.98346 C167.372478,1916.68502 172.327826,1916.51168 176.588794,1915.34782 C176.719554,1919.82765 178.518629,1925.21921 176.651919,1928.64324 C167.748977,1944.66933 158.056966,1960.28346 148.283794,1975.81429 C138.510622,1991.34287 128.295572,2006.56304 117.715296,2022.80749 C111.019489,2017.31463 105.935636,2013.34807 101.020869,2009.14513 M22.4635036,1810.77865 C50.5069839,1800.36248 79.4409839,1794.08171 109.362446,1793.63373 C109.946357,1794.84036 110.518995,1796.04924 111.120941,1797.31215 C107.385267,1799.77718 103.548142,1802.20394 99.9003925,1804.82205 C78.1288763,1820.44518 52.3173315,1823.90523 26.9769731,1828.0654 C21.6383638,1828.97037 15.4024713,1824.38023 9.58816667,1822.34968 C13.8491344,1818.36735 17.4517939,1812.64262 22.4635036,1810.77865 M38.3282814,1640.07682 C39.4645394,1658.22351 49.0844068,1664.20037 63.7385287,1666.66766 C84.3850591,1670.15472 103.654102,1672.83812 122.420396,1658.57245 C127.483959,1654.71619 139.020134,1659.30408 147.600686,1660.04471 C147.501489,1661.16354 147.418073,1662.28913 147.339167,1663.46199 C124.87778,1679.79874 99.6005466,1678.57861 73.4327939,1676.84971 C58.7065287,1675.91547 47.4251093,1669.18447 35.1832814,1663.38095 C34.5768262,1663.07704 33.6953244,1662.90145 33.4135143,1662.38143 C30.820862,1657.85657 27.0942061,1653.41726 26.474224,1648.62677 C26.2284857,1646.67726 32.8498943,1643.88355 38.3282814,1640.07682 M114.856615,1654.17816 C99.1992491,1665.93603 77.1639588,1666.06209 55.7869767,1655.14616 C75.5700412,1654.17816 94.1018692,1647.86587 114.856615,1654.17816 M269.658249,1471.52711 C270.494661,1471.44607 271.159733,1471.27047 271.815787,1471.33576 C287.998446,1471.96834 290.358887,1483.19943 291.003668,1496.0041 C291.251661,1501.03096 292.115127,1506.03081 292.631403,1510.47237 C280.698439,1504.2794 268.596389,1498.01889 255.432478,1491.15282 C259.549159,1485.50013 264.626249,1478.45846 269.658249,1471.52711 M266.003737,1446.06186 C265.025292,1459.18168 257.263116,1468.6321 250.456841,1479.32967 C233.232611,1506.26719 209.154762,1497.60693 186.132009,1493.81371 C167.893263,1490.84891 149.956618,1486.04266 131.88245,1482.05584 C153.1174,1483.31424 174.43802,1483.59564 195.537701,1486.13271 C218.447729,1488.86113 232.605866,1481.08783 239.522611,1458.7337 C242.383547,1449.53091 248.641984,1443.59007 256.773894,1439.47718 C263.269052,1436.14319 266.556084,1438.78157 266.003737,1446.06186 M80.3179767,1498.18998 C119.210016,1488.68779 156.212801,1499.29981 193.310274,1509.99738 C177.806213,1519.26095 160.604529,1518.96154 143.831195,1518.09934 C127.788314,1517.2484 111.747686,1514.49972 95.9482885,1511.3796 C89.8521738,1510.16847 84.4278943,1505.61885 78.7150412,1502.58877 C79.2470986,1501.11425 79.7881738,1499.64199 80.3179767,1498.18998 M240.377059,1249.58411 C251.135439,1253.61145 261.905091,1257.59603 272.649944,1261.59636 C272.352353,1262.53285 272.032217,1263.4018 271.752661,1264.30677 C260.931156,1260.62836 250.129941,1256.94544 239.301672,1253.2175 C239.662389,1252.01312 240.034378,1250.79299 240.377059,1249.58411 M252.458819,1198.48702 C268.467884,1206.24455 283.401561,1213.47757 298.094009,1220.60027 C276.338274,1223.78793 253.586059,1213.66892 252.458819,1198.48702 M525.456091,750.954121 C525.262206,751.798311 525.327586,752.532193 524.987159,753.052213 C518.462694,762.191969 513.622324,775.615705 504.796034,779.172556 C496.659615,782.486281 484.275754,775.104689 473.733805,772.587879 C470.893159,771.91703 467.912737,771.7617 461.990217,770.982794 C467.957826,767.45746 471.698009,765.444912 475.253324,763.099192 C483.721152,757.604082 491.066249,751.883855 491.992841,740.060702 C492.409919,735.07886 498.548869,730.556256 502.945106,724.617666 C511.401661,734.509313 518.462694,742.741848 525.456091,750.954121 M534.478522,701.68273 C530.138647,702.936633 525.230643,706.011733 521.846668,704.823115 C518.519056,703.670515 516.710962,698.175405 513.744066,693.8419 C529.978579,690.719525 530.113848,690.7668 534.478522,701.68273 M405.745443,760.114138 C400.945654,747.120376 394.624091,733.586333 394.52264,720.196365 C394.414425,702.06543 399.545622,697.22316 421.921339,694.638815 C445.906754,691.908144 467.076324,682.925969 487.844597,673.743441 C504.462371,666.415878 521.765507,664.081413 538.534332,658.716871 C542.1415,657.544011 548.654694,659.576819 551.114332,662.46282 C553.526625,665.252022 553.339504,671.190612 552.586507,675.474592 C551.741077,680.346127 549.008647,684.879986 548.185762,686.912794 C536.464719,686.912794 525.649977,686.608886 514.85778,687.018599 C506.725869,687.340517 505.303292,692.828873 507.715586,699.382033 C509.102091,703.175257 511.049962,707.225115 513.915407,709.949032 C518.401823,714.282537 522.789041,719.228361 530.431729,712.724727 C535.865027,708.094067 543.61593,706.189576 551.100805,702.716018 C547.349349,717.339628 556.984998,726.285784 566.704063,735.682174 C569.019414,737.935596 569.867099,744.472999 568.252891,747.1654 C566.566539,749.997373 560.483952,752.752807 557.390805,751.843334 C543.415281,747.852007 530.785683,741.467685 521.765507,729.052474 C512.738568,716.646267 502.832382,704.904157 493.21026,692.954939 C492.207016,691.676273 490.527428,690.937889 487.932522,689.071668 C486.908987,692.497951 486.144719,695.143077 485.166274,698.303722 C483.227421,696.78193 481.252496,695.226371 478.125532,692.828873 C476.950948,696.653613 476.017593,699.685941 475.048167,702.763293 C473.853292,701.986639 472.423952,701.140198 468.586826,698.796729 C469.698285,706.509242 470.557242,712.42307 471.490597,718.87943 C468.510174,717.798867 465.581604,716.707049 461.667826,715.304569 C464.984167,726.197988 468.379414,735.297223 470.282195,744.691362 C470.926977,747.852007 468.737876,753.137758 466.075335,755.177319 C451.608335,766.394907 434.293927,766.917178 417.01559,766.045975 C413.025159,765.809602 406.870428,763.146466 405.745443,760.114138 M485.439066,666.053439 C471.208787,670.713364 458.290615,674.916301 444.671299,679.393881 C451.944253,667.415398 457.776593,658.064031 463.342905,648.552832 C467.141704,642.076211 474.994059,642.884382 479.971952,651.087651 C482.505987,655.247816 483.439342,660.400747 485.439066,666.053439 M387.869668,662.719454 C384.785539,650.135405 379.956443,636.839986 391.925478,625.052852 C400.068661,617.040933 407.379941,607.966461 414.150145,598.716397 C426.040274,582.474194 454.681192,580.396363 471.470306,594.990708 C473.920927,597.115814 476.926149,598.635355 479.419604,600.683921 C489.161213,608.729608 504.013729,611.025803 502.929324,630.018937 C502.311597,640.257265 515.604013,640.045655 524.736912,639.46035 C532.210514,639.001111 537.806134,636.425771 538.762034,627.52689 C539.093443,632.288118 539.404561,637.013327 539.593937,639.99838 C532.472034,644.419681 526.689292,648.248924 520.683357,651.740491 C506.52522,659.923499 491.977059,655.848879 484.138231,641.646237 C483.635482,640.730011 483.27702,639.440089 482.505987,639.046134 C472.423952,634.239883 461.841421,629.904127 464.736174,615.309782 C464.810572,614.900069 462.001489,613.601143 460.448152,613.297235 C457.334715,612.664655 454.124335,612.453045 447.933532,611.71241 C447.37893,616.995909 446.756694,623.168622 445.981152,630.687535 C445.128959,626.831278 444.549557,624.100607 443.728927,620.246601 C435.299425,625.750715 439.118514,633.112046 439.03059,639.091158 C438.911102,645.851426 440.225464,652.627452 439.479231,659.576819 C436.951959,647.01303 434.460758,634.460498 431.926722,621.894459 C430.982095,622.153343 430.098339,622.371707 429.18302,622.626089 L429.18302,671.093812 C428.85612,671.141087 428.511185,671.208622 428.177522,671.271655 C425.012231,658.102301 421.840177,644.914939 418.688414,631.729827 C417.085478,632.031484 415.509597,632.333141 413.893134,632.61904 C414.359812,636.619372 414.641622,640.669229 415.360801,644.631291 C416.625565,651.956603 418.505801,659.209878 419.488754,666.589218 C420.31164,672.966787 417.504812,675.866296 410.367127,675.299 C400.618754,674.520095 390.523192,673.612873 387.869668,662.719454 M382.634765,599.128361 C370.814525,594.304101 364.391511,581.785336 366.763224,568.615983 C370.365884,548.64584 384.370715,536.863208 404.068109,537.777184 C418.816919,538.425521 433.90841,536.908232 448.219851,539.566865 C463.466901,542.455118 478.073679,549.168112 492.748091,554.152206 C488.906457,560.295653 484.305063,564.413045 484.516984,568.224279 C484.744686,572.429467 488.575048,577.929079 492.409919,580.027171 C498.100228,583.167555 505.122934,584.597049 511.685726,584.991004 C513.593016,585.119321 516.875539,579.358573 517.644317,575.891769 C518.30488,572.904464 516.293884,569.349864 515.315439,565.450835 C525.859643,563.291962 536.41512,559.386179 546.882672,559.642813 C553.456737,559.818404 560.335156,565.624176 566.241894,570.047728 C570.953758,573.570811 569.698013,578.169954 565.506934,582.38865 C561.0115,586.933765 557.586944,584.991004 554.060937,581.546712 C551.761367,579.250517 549.639901,576.742712 545.753177,572.474491 C544.801787,577.586901 544.312565,580.092455 543.739927,582.973954 C533.123579,578.232987 524.358159,581.823606 515.37631,587.071087 C510.729826,589.754483 505.037263,591.100684 499.608475,591.850324 C491.632124,592.960151 483.51374,586.742416 482.352683,578.919595 C481.412565,572.575793 483.928565,563.976318 472.009127,567.03566 C471.238095,567.22701 469.409711,563.463051 468.106622,561.511285 C465.601894,557.785596 463.137747,554.041898 460.637529,550.266684 C459.366002,550.854239 458.108002,551.435042 456.872547,552.024849 C458.980486,557.911662 461.122242,563.764708 463.2144,569.651521 C462.549328,570.30211 461.868475,570.999973 461.185367,571.650562 C454.539159,565.259486 447.883934,558.863908 441.230962,552.459325 C440.658324,552.756479 440.069905,553.060387 439.479231,553.346286 C440.78683,556.943658 442.089919,560.516267 444.40978,566.815045 C439.07117,562.071827 435.660142,559.084522 431.040711,555.009902 C430.454547,560.084043 430.132156,563.024073 429.823292,565.65119 C425.965876,567.272033 422.557102,568.699276 418.643324,570.369645 C417.085478,568.206269 415.369819,565.84479 413.669941,563.49907 C416.32121,575.373999 411.386152,583.800134 402.647787,591.528406 C400.553375,589.146667 398.655102,587.023812 396.790647,584.898706 C396.089504,585.119321 395.361306,585.333182 394.633109,585.551546 C395.534901,590.05614 396.400622,594.560734 397.439937,599.841983 C386.746937,601.492091 388.667754,586.456517 378.520339,585.375954 C379.866263,589.835525 381.151317,594.211803 382.634765,599.128361 M425.012231,524.436742 C419.414357,524.846455 415.369819,525.64337 411.467314,525.258419 C408.103629,524.909488 404.915794,523.151323 401.673851,522.007728 C403.707392,518.372086 404.915794,513.169628 408.03374,511.569045 C410.955547,510.076519 416.699962,511.157081 419.671367,513.252922 C422.385762,515.157413 423.035052,519.929896 425.012231,524.436742 M349.552522,515.074119 C348.404991,504.984369 347.029758,494.719027 347.730901,484.665295 C348.508697,474.078035 354.843787,466.021092 365.336138,462.621823 C374.103812,459.756082 383.117224,457.552185 392.121618,455.472103 C403.245224,452.917023 407.540009,461.340907 411.124633,468.940862 C417.464231,482.238532 425.08212,485.358655 438.11978,478.600639 C449.908457,472.495461 466.668263,481.963889 467.635435,495.324592 C468.65897,508.712309 476.017593,515.378028 488.534468,519.754305 C499.714435,523.610562 506.063052,522.309385 510.653174,511.004001 C511.480568,509.058989 518.519056,508.097739 521.961647,509.097259 C528.853593,511.157081 532.059464,517.09342 528.686762,523.693855 C526.720855,527.511842 521.375482,532.750318 518.363496,532.27307 C509.537206,530.89085 501.087414,526.991821 492.53617,523.995512 C490.617608,523.306654 488.254912,521.100506 486.999167,521.658796 C473.733805,527.246204 469.941769,516.726479 464.440837,508.946431 C463.726167,507.971673 462.391514,507.431392 458.723475,504.81328 C459.568905,512.428993 460.114489,517.374817 460.754762,523.151323 C448.691038,523.479994 450.742615,510.1373 443.160797,504.71873 C442.806844,510.82841 442.540815,515.679685 442.243224,520.580485 C441.363977,521.267092 440.500511,521.962704 439.628027,522.676326 C433.640127,501.429769 412.389396,495.756817 401.540837,479.474093 C400.706679,479.904067 399.895066,480.334041 399.069927,480.773019 C399.816159,483.328099 400.618754,485.883178 401.335679,488.438258 C401.987224,490.707439 402.586916,493.05316 403.937349,498.098035 C398.321439,494.41737 395.293672,492.422832 390.327052,489.169889 C391.163464,496.841881 391.860099,503.079878 392.534188,509.297613 C391.957041,509.398916 391.370876,509.493465 390.791475,509.61728 C388.408489,505.808297 386.011977,501.972301 383.61321,498.179077 C382.368737,498.7036 381.119754,499.223621 379.866263,499.748144 C381.566142,505.369319 383.606446,510.873433 384.819357,516.598163 C385.502464,519.864612 384.832884,523.416961 384.78103,526.861253 C382.120744,524.819441 378.944181,523.198597 376.944457,520.663778 C374.311224,517.309533 372.577529,513.216903 370.471844,509.443939 C369.473109,509.837894 368.499174,510.222845 367.491421,510.634809 C369.890188,517.80479 372.264156,524.956762 374.680959,532.230297 C359.510561,534.936206 351.150948,529.177709 349.552522,515.074119 M444.157278,462.896466 C423.463403,473.648061 422.311364,473.035743 413.944987,447.048219 C423.307844,451.964777 432.641392,456.863327 444.157278,462.896466 M334.585027,425.801662 C334.769894,419.439851 334.131876,412.98124 334.686478,406.655448 C335.489073,397.342352 338.859522,390.712652 350.237884,390.071068 C356.376833,389.679364 362.698396,386.316114 368.181292,383.047413 C379.913608,375.985488 386.580106,376.053023 396.585489,384.918136 C397.113038,385.390882 397.541389,385.949173 398.095991,386.316114 C411.776177,395.960133 411.985844,400.984747 400.553375,412.652569 C396.488547,416.792474 394.188977,422.681538 391.041722,427.769186 C396.644106,430.529122 399.816159,432.129705 404.23945,434.31109 C407.346124,428.44904 410.696281,422.643268 413.534672,416.616882 C416.192704,410.984451 419.339959,408.589205 425.562324,411.902929 C428.826812,413.631829 432.713536,414.192371 436.33874,415.124356 C444.486432,417.186429 453.323995,417.222447 449.637919,430.828528 C447.455582,438.777415 456.275109,442.953338 462.855937,443.732243 C468.41774,444.382832 477.196686,445.314817 476.290385,433.448892 C483.908274,435.546984 490.635643,436.715342 496.738522,439.428003 C498.864496,440.398258 500.480959,445.143728 500.305109,448.025227 C500.122496,451.253407 498.420364,455.863806 495.990034,457.201002 C486.737647,462.322417 476.98702,463.420989 467.804522,456.552665 C462.118722,452.313709 456.667389,449.060766 448.909722,452.487049 C446.655242,453.459555 441.300851,451.253407 439.605482,448.91444 C429.365633,434.687036 414.21778,436.325889 400.303127,437.433465 C387.806543,438.40372 375.562461,442.698955 363.248489,445.618725 C347.568579,449.364674 334.021407,444.986146 334.585027,425.801662 M314.405174,347.663499 C314.991339,336.941169 316.855794,327.3917 327.332364,319.74447 C336.302941,313.272352 344.673826,310.084693 354.672446,312.493446 C358.432919,313.380408 363.379249,317.747681 364.066866,321.28202 C365.081382,326.520496 362.806611,332.436575 361.929618,338.048745 C359.269332,336.878136 355.508858,336.439158 354.151661,334.404099 C350.528711,329.120599 347.960858,323.105469 344.531794,316.523043 C335.822737,327.92973 335.347041,336.986193 342.257023,345.795027 C347.927041,353.030292 355.37359,356.710957 364.628231,353.399484 C373.087041,350.39417 379.866263,335.320326 378.723242,321.979883 C391.325787,329.316451 404.23945,335.320326 415.293167,343.76447 C426.552041,352.359443 432.993091,365.053799 436.406375,379.780963 C426.766217,381.795761 418.895826,379.558097 411.539457,373.698297 C406.275246,369.452588 400.706679,365.335195 394.675944,362.370402 C386.956604,358.532155 378.955453,358.379075 371.229349,363.732361 C360.006547,371.483145 347.861661,374.862153 334.206274,370.292275 C326.879213,367.847503 314.024167,354.741182 314.405174,347.663499 M301.838701,287.55722 C301.252536,280.700151 300.695679,273.545928 302.028077,266.916228 C303.029066,262.026684 305.982435,255.761673 310.002174,253.48799 C322.931618,246.110901 336.713256,239.893165 354.561977,245.350005 C350.830812,249.116215 348.447826,252.254348 345.399769,254.534785 C336.431446,261.292802 336.1564,269.910286 339.380306,279.464258 C342.405819,288.491456 349.291002,291.694873 358.261579,292.930766 C366.535522,294.078864 371.265421,290.553529 372.025181,283.077388 C372.911192,274.304573 372.232593,265.405692 372.232593,255.50504 C383.399034,253.445218 388.031991,262.548955 391.431747,270.734215 C395.273382,279.955013 396.389349,290.28564 399.320174,299.972431 C400.384289,303.563049 403.211407,306.595377 405.238185,309.888841 C406.692324,306.559358 408.329077,303.324425 409.481116,299.929658 C410.098844,298.043177 409.871142,295.882052 410.20255,291.483263 C419.380539,295.855038 427.514704,299.738309 435.581235,303.673357 C443.122471,307.356273 442.200389,314.654571 439.839948,319.74447 C436.893342,326.007229 430.308005,324.56873 424.371959,322.364834 C403.646522,314.699595 383.211912,305.7737 361.907073,300.359632 C351.441776,297.676236 338.719744,299.83736 328.013217,303.085801 C313.731084,307.419306 303.071901,302.529761 301.838701,287.55722 M363.566371,272.922354 C363.546081,276.062738 361.178876,280.175628 358.577206,281.904528 C357.210991,282.793741 352.025686,280.175628 350.420496,277.877182 C348.630439,275.24106 347.482909,270.560875 348.641711,267.897739 C350.280719,264.122524 354.316238,261.421118 359.704446,255.69864 C361.559884,263.372884 363.588916,268.154372 363.566371,272.922354 M311.553256,211.778284 C314.024167,199.646721 322.809876,199.518404 332.731844,199.993401 C337.926167,200.236528 343.305357,198.133934 348.490661,196.74271 C361.591446,193.26465 373.858073,195.536082 383.897274,204.133306 C386.767228,206.580329 386.383966,213.428393 386.580106,218.272914 C387.098636,231.266676 388.960837,233.65742 403.060357,235.991885 C403.319622,240.3434 403.603686,245.003325 403.917059,249.937893 C388.936038,248.290035 386.075102,245.257707 384.677324,232.054586 C384.411296,229.517516 382.747489,227.138028 379.431149,225.030931 C378.085224,229.364436 376.773116,233.722704 375.420428,238.053958 C374.505109,238.069716 373.54921,238.116991 372.6384,238.162014 C372.480586,234.67495 372.403934,231.187885 372.122124,227.696318 C371.829041,223.95262 371.373636,220.22468 370.994884,216.494489 C361.027826,229.819173 361.027826,229.5828 343.911812,230.361705 C338.165142,230.600329 331.994629,231.403998 326.831869,233.756472 C318.364041,237.637491 312.443776,232.770459 309.339357,227.504969 C307.226909,223.905345 310.468851,217.11131 311.553256,211.778284 M401.811375,226.284834 C399.678636,226.030451 395.760349,226.012442 395.685952,225.427137 C395.122332,221.615904 395.401887,217.6696 395.401887,213.76832 C397.126565,213.76832 398.885059,213.76832 400.618754,213.795334 C400.997507,217.971257 401.389787,222.129171 401.811375,226.284834 M318.034887,172.16667 C319.015586,162.743267 320.165371,153.25683 322.334181,144.099064 C322.897801,141.591259 327.769733,137.928603 330.024213,138.338316 C348.490661,141.591259 367.588364,143.642076 384.925317,150.14346 C400.242256,155.904207 406.744177,170.410757 405.274256,187.569186 C391.598579,181.826447 391.835299,181.808438 390.557009,167.313145 C390.241382,163.82608 387.932794,160.582142 386.544034,157.205385 C385.385231,157.552065 384.210647,157.853722 383.047335,158.155379 C382.48597,163.677503 381.911077,169.181617 381.261787,175.671745 C374.060977,169.913248 384.551073,156.554796 370.537224,153.346877 L370.537224,173.229223 C368.01897,167.124046 366.645991,163.724777 365.257231,160.316504 C364.368966,160.453825 363.455901,160.618161 362.556364,160.755482 C361.027826,167.076772 359.488016,173.404815 357.936934,179.721602 C357.165901,179.557267 356.394869,179.399685 355.637364,179.244354 C354.672446,174.546159 353.727819,169.850215 352.774174,165.172281 C352.048231,164.951666 351.322289,164.740056 350.616636,164.519441 C349.426271,167.166819 347.221389,169.805192 347.230407,172.421053 C347.327349,185.286498 337.342256,182.587343 330.260934,183.318974 C322.789586,184.095628 317.151131,180.939486 318.034887,172.16667 M329.803274,88.3668111 C340.004797,70.5667979 344.236457,70.6320819 364.432091,73.9007829 C382.258267,76.8047942 397.113038,85.8409966 410.561013,97.0315702 C414.100547,99.9806049 416.828468,106.997506 415.965002,111.351272 C414.652894,117.780618 409.174507,121.116854 401.540837,117.478961 C397.974249,115.750061 393.568995,115.813094 389.537984,115.054449 C390.394686,114.338577 391.260407,113.624955 392.108091,112.929343 C391.140919,108.039799 391.720321,101.73877 388.843604,98.5488598 C383.117224,92.2050585 375.562461,87.4640913 368.544263,82.3516808 C367.588364,81.65832 364.456891,82.131066 363.976686,82.9572459 C362.946389,84.7987042 362.037833,87.6374315 362.763776,89.3663312 C366.869185,99.0306105 371.461561,108.535057 377.228522,121.0133 C365.34741,121.726922 354.183224,123.998354 343.521787,122.636395 C327.278256,120.556312 321.141561,103.451911 329.803274,88.3668111 M350.181522,24.0328317 C360.725726,13.7832478 380.928124,13.0516171 394.860812,22.5110397 C390.423995,29.5527042 374.376604,21.4957614 376.527378,35.8334727 C377.118052,39.9463631 382.120744,44.8449123 386.241934,46.402723 C388.875167,47.3999919 393.564486,42.9584306 399.588457,39.7279994 C440.516292,45.9614933 436.083984,44.2776171 468.794238,73.5788654 C446.587608,58.0930566 422.144532,63.9641119 397.764582,64.5066442 C383.290819,64.8105524 368.560045,58.8562037 354.178715,54.8896396 C349.304529,53.5254296 346.540536,27.5851803 350.181522,24.0328317 M447.216608,407.130446 C437.842478,403.542078 431.15569,400.984747 424.486937,398.470189 C424.858927,397.515692 425.215134,396.565698 425.575851,395.631461 C434.23531,393.661686 441.776547,394.595923 447.216608,407.130446 M448.609876,373.864884 C463.890744,378.416753 484.593636,369.16894 489.939009,393.423062 C480.8016,400.401694 467.238647,400.766384 456.536629,394.228982 C449.117134,389.724387 446.905489,384.614228 448.609876,373.864884 M481.065375,495.324592 C486.426529,498.383934 491.510382,501.305954 496.598744,504.1807 C480.69564,507.444899 480.053113,507.044191 481.065375,495.324592 M578.797095,667.289332 C564.65474,665.035909 552.027396,645.155814 557.438149,632.893683 C570.171453,641.520172 579.79583,657.37067 578.797095,667.289332 M432.206278,117.431686 C433.748342,114.928384 438.351991,112.929343 441.526299,113.01939 C446.8604,113.194982 452.41093,114.532178 457.379805,116.589748 C464.810572,119.604067 469.506654,125.254507 469.765919,134.455045 C469.121138,137.23074 468.604862,140.657023 467.468604,143.862691 C465.405754,149.686472 461.257511,151.242031 456.374306,147.306984 C448.479116,140.913656 440.615489,134.374003 433.516131,127.140989 C431.581787,125.171214 430.846826,119.685109 432.206278,117.431686 M420.87526,181.414483 C433.002109,182.668386 445.304808,182.889 452.253116,194.061565 C454.771371,198.133934 455.400371,205.105812 453.605805,209.439317 C452.550708,211.953876 444.759224,213.38337 440.500511,212.604464 C420.929367,208.923799 418.345733,204.547521 420.87526,181.414483 M618.516529,784.388521 C606.473095,774.28076 591.552944,765.874886 587.032711,750.170714 C583.127952,736.569135 573.67717,728.750817 565.062801,719.329664 C562.388987,716.452667 561.958382,711.184925 561.27302,706.900946 C560.540314,702.504408 561.153532,697.889506 560.454643,693.49522 C558.628514,682.185334 561.681081,678.441636 572.888102,678.869358 C575.978995,679.00668 579.153303,679.247555 582.167543,678.743293 C589.6434,677.502897 595.23902,674.063107 590.950998,665.600954 C584.904482,653.514414 578.017045,641.857848 571.397891,630.099979 C570.590787,628.69975 569.623615,627.364805 568.543719,625.9128 C556.349235,616.021152 558.184382,592.786811 574.026615,585.691118 C574.941934,582.48545 576.445672,579.482387 578.594192,576.954322 C578.600955,571.49298 578.357471,566.07441 577.631529,560.687357 C571.019138,552.686693 559.259769,550.854239 550.758124,545.156524 C549.303984,544.190772 545.933536,544.620745 544.312565,545.699057 C528.709306,555.836082 513.385604,555.054925 497.840962,545.525716 C492.258869,542.144457 486.24617,539.508335 480.411575,536.514277 C480.738475,535.699353 481.087919,534.875424 481.412565,534.049244 C483.673808,534.308129 486.063557,534.177561 488.203059,534.828149 C497.901833,537.878487 507.429267,542.84232 517.3084,543.709021 C523.826102,544.296577 533.405389,540.951336 537.059901,536.016768 C542.475163,528.675698 542.024267,518.43737 536.227998,509.873913 C530.711285,501.688654 523.327862,496.799109 513.115066,496.533471 C510.073772,496.450178 506.705579,496.101246 504.090382,494.737036 C491.458529,488.044303 478.921364,481.076927 466.544267,473.886685 C464.375457,472.653043 463.194109,469.812065 461.868475,466.865282 C475.665894,475.921745 489.600837,471.498193 503.468145,468.468116 C511.370099,466.68969 512.950489,461.57728 513.027142,453.869268 C513.146629,437.890453 506.164504,429.263964 490.480084,426.024528 C484.075106,424.7211 478.281091,420.392097 469.581052,416.09461 C476.849496,413.80742 481.130754,412.047004 485.57659,411.079 C499.91283,407.956625 505.037263,399.384164 498.645812,386.602013 C492.748091,374.77886 483.439342,365.373465 469.808754,364.054279 C458.696421,362.973716 451.243109,358.642462 445.550547,349.39465 C442.576887,344.498352 438.16036,340.511527 434.176694,335.835844 C439.07117,333.197471 444.759224,331.567623 448.219851,327.866697 C453.777145,321.932609 452.372604,306.514335 445.697088,301.703581 C441.140783,298.425876 436.286887,295.5894 431.383392,292.818207 C430.867116,292.847473 430.355349,292.894747 429.816529,292.894747 C418.5554,292.894747 411.492113,286.409122 408.606378,278.266635 C406.647235,276.726834 404.694855,275.173525 402.704149,273.674245 C403.547324,272.244751 404.372464,270.817508 405.193095,269.388014 C405.837876,269.644648 406.487167,269.883272 407.138711,270.12865 C406.97188,263.656532 409.136181,257.141641 413.595543,252.506479 C412.450267,243.377979 415.969511,233.556118 424.184837,228.731857 C423.303335,227.655797 422.424088,226.581988 421.551604,225.505928 C422.433106,224.756288 423.307844,223.997643 424.184837,223.254757 C426.7324,224.193495 429.252909,225.152494 431.793708,226.064219 C433.155414,225.841353 434.56221,225.695027 436.079475,225.695027 C440.696651,225.695027 444.608174,226.800352 447.818554,228.648564 C455.781378,227.723332 462.299081,222.957602 466.828332,214.38289 C471.770152,205.067542 466.756188,187.046914 456.818439,181.067803 C450.742615,177.434412 444.069353,174.354809 437.285622,172.450318 C425.460873,169.154603 416.862285,162.056659 408.804772,153.25683 C401.712177,145.510549 393.433726,138.878597 385.784274,131.866198 C400.956927,129.173797 415.714754,133.469032 429.291235,142.647058 C434.109059,145.922513 438.435407,149.925096 442.795572,153.821874 C458.229744,167.752123 475.774109,162.459619 480.26278,142.469216 C480.328159,142.192322 480.45441,141.924432 480.546844,141.654292 C480.41383,136.206457 480.141038,130.785636 479.415095,125.344554 C472.423952,119.36094 470.48059,111.274732 472.076762,103.875132 C471.028428,104.118258 469.968823,104.347878 468.929507,104.597758 C459.886787,106.738622 444.202367,101.583439 439.224475,94.0465168 C438.44217,92.920931 437.842478,91.3180969 436.764837,90.9061325 C428.05578,87.3335233 419.238507,83.9545149 410.822532,79.2315571 C424.464392,74.7697351 437.598995,74.3127473 450.266919,81.0077314 C452.97455,82.4349741 455.436443,84.4160051 458.108002,85.9535552 C469.898934,92.6170229 476.651102,91.4464137 482.832887,81.65832 C488.793733,72.2169067 487.175016,64.5494165 476.283622,57.271379 C469.324041,52.6497239 462.073633,48.451289 454.658647,44.185319 C445.38597,43.0394727 439.438651,37.1459057 436.823453,29.8903799 C425.686321,23.8279751 416.431679,16.489156 408.698812,8.17557957 C390.058769,6.88340712 371.806496,3.36482605 353.335539,0.890788566 C351.849837,1.69895914 350.21083,2.39231996 348.4095,2.93710347 C338.350009,5.99419438 334.145403,21.2819001 332.27193,33.0487736 C334.136385,38.7577445 333.976317,45.1938439 331.807507,50.7790004 C332.391418,51.3260351 332.988855,51.8820744 333.566002,52.402095 C330.346604,56.6117858 327.341382,60.5445824 324.392522,64.4053415 C324.728439,68.7095814 323.524547,73.3830135 320.181152,78.114976 C315.857059,84.2381625 312.926235,92.5517389 311.713324,100.876571 C313.557489,106.198341 314.294704,111.893804 313.690504,118.059763 C314.179726,119.115563 314.682475,120.157855 315.043192,121.332967 C315.563977,123.028099 315.563977,125.427848 314.729819,126.900114 C304.415572,145.22465 305.741206,164.803088 307.898744,184.604393 C308.254952,187.954136 307.562826,192.807662 305.360199,194.8022 C290.915744,207.971553 290.839091,223.081416 297.627332,239.737834 C298.725263,242.448245 300.163622,246.889806 298.883077,248.382333 C291.686776,256.997566 291.871643,266.90047 291.81979,276.769606 C293.321274,279.907739 294.044962,283.712219 293.648174,288.198804 C292.135418,305.508061 302.219708,320.921833 303.044848,338.206327 C303.4236,346.234005 302.763038,354.167133 301.942407,362.086755 C306.101923,372.874369 311.706561,382.507132 324.318124,386.856395 C312.170984,422.55097 321.229486,452.871999 345.898009,460.498969 C331.365629,490.561113 330.010686,519.150991 355.461514,545.138515 C343.025801,575.373999 346.984668,593.435148 371.858349,618.321849 C373.932471,620.401932 374.200754,625.007829 374.130866,628.434112 C373.303471,661.069345 375.161163,663.147177 385.610679,683.92549 C384.465403,682.223604 383.247984,680.762594 381.992238,679.420895 C383.468923,682.372181 384.379733,685.825478 384.427077,689.846071 C384.715651,713.703986 388.694808,736.411553 393.735826,759.582862 C398.343984,765.856877 403.118973,771.982314 407.702332,778.137017 C403.732192,782.371471 396.260844,787.182224 393.702009,793.856948 C387.301539,810.423319 377.142851,826.386376 380.438901,845.512329 C380.957432,848.497383 381.088192,851.687293 382.226704,854.413461 C388.996909,871.000093 397.333977,875.549711 416.267102,873.469628 C440.669597,870.806492 465.123944,868.487786 489.472332,865.284369 C498.499271,864.11376 507.271453,860.777523 518.383787,857.828489 C516.875539,862.792322 516.681654,868.271673 513.892862,871.371536 C507.733622,878.194837 504.070091,885.450363 502.462647,894.520333 C501.779539,898.457632 497.976231,902.838412 494.373572,904.87122 C492.660167,905.83247 488.054263,901.775859 484.839375,899.853358 C477.322937,895.346513 470.252887,889.82664 462.287808,886.292301 C439.540102,876.198048 415.509597,882.222183 392.053984,882.528342 C385.166547,882.65891 378.342235,887.11623 371.529195,889.67131 C370.329812,890.146307 368.64797,890.794644 368.282744,891.776155 C360.031346,913.943441 352.316514,935.932884 357.186192,960.621482 C359.726991,973.468918 369.114647,978.660119 378.279109,980.242693 C398.724991,983.752269 419.739002,985.591476 440.464439,985.051195 C448.844342,984.830581 457.79012,977.514273 465.16678,971.773786 C475.568952,963.651559 484.593636,963.959969 492.978048,974.565238 C495.286636,977.514273 498.016812,980.096367 500.122496,982.347538 C493.994819,988.17357 487.995647,993.504344 482.352683,999.197557 C467.804522,1013.99001 450.321027,1014.11607 431.516407,1010.65377 C411.665708,1007.00912 391.641414,1004.51933 371.718572,1001.2934 C365.336138,1000.27812 358.985267,998.74282 352.688504,997.155745 C336.251088,992.986575 335.466529,992.754704 324.189618,1002.01152 C323.323898,1003.0223 322.347708,1003.99705 321.202432,1004.92229 C317.297672,1008.08068 313.850572,1011.66454 310.545504,1015.39474 C304.546332,1025.6128 300.675389,1043.00986 299.904357,1050.85294 C299.847995,1051.49452 299.723998,1052.11359 299.622547,1052.74167 C300.600991,1056.08241 300.905346,1059.63701 300.533357,1063.11507 C300.641572,1063.11507 300.763314,1063.10381 300.869274,1063.10381 C300.600991,1064.26992 300.2786,1065.44503 299.935919,1066.61564 C299.708217,1067.54763 299.410625,1068.46385 299.081471,1069.36207 C293.920966,1085.28911 285.290815,1101.81946 306.954116,1115.69793 C303.908314,1115.04735 300.749787,1114.67365 297.812199,1113.65387 C283.151314,1108.59099 266.948364,1114.52507 259.993292,1128.36077 C256.638625,1135.03325 254.693009,1142.40133 251.886181,1149.35295 C249.095134,1156.21902 246.299579,1163.12336 243.010292,1169.75081 C238.381844,1179.19223 232.732116,1187.80971 232.504414,1199.29519 C232.297002,1209.42996 236.030421,1215.88632 243.416099,1221.81816 C258.845762,1234.19735 276.901894,1235.82945 295.293944,1234.19735 C318.941188,1232.12177 341.603224,1234.0105 363.879744,1242.95441 C376.006593,1247.82594 389.519948,1240.244 395.162912,1228.5289 C398.4026,1221.83842 402.24198,1215.31678 406.777995,1209.47724 C410.281457,1204.92537 416.521858,1205.98567 417.238783,1211.07782 C418.233009,1217.87186 417.590482,1225.97607 414.652894,1232.03848 C412.116604,1237.32198 405.880711,1241.47989 400.384289,1244.51222 C393.702009,1248.17262 386.205862,1252.01312 378.831457,1252.48587 C366.222149,1253.28278 353.468554,1251.44583 340.780339,1250.88529 C336.650131,1250.68268 331.929249,1249.84074 328.470876,1251.44583 C312.581299,1258.80716 298.028629,1253.17248 283.507522,1247.67962 C269.531998,1242.35109 256.079514,1235.59308 241.950686,1230.75531 C232.982364,1227.70947 223.254281,1226.32275 213.765174,1225.53484 C209.837869,1225.19942 204.528568,1227.18495 201.663124,1230.00567 C179.052941,1251.96585 161.253819,1276.39556 164.691901,1310.44453 C165.974701,1323.21543 179.650378,1346.45877 197.323249,1350.4591 C221.671636,1355.91819 245.539819,1363.54516 269.559052,1370.37072 C299.820941,1379.01296 309.979629,1369.70212 319.924142,1347.04183 C321.022073,1344.52502 320.920622,1341.06496 322.679116,1339.41486 C325.443109,1336.89129 329.239654,1334.30695 332.720572,1334.16062 C334.749604,1334.05031 338.025364,1338.20823 339.001554,1341.01994 C345.607181,1360.25845 337.786389,1366.22631 320.424636,1371.90827 C296.730048,1379.59827 271.635428,1386.97986 246.364959,1380.87243 C229.034769,1376.66949 212.755167,1368.27037 195.882636,1362.0729 C180.522862,1356.40445 164.572414,1352.09345 149.749206,1345.33093 C147.866715,1344.47099 146.013532,1343.44896 144.18064,1342.3909 C141.950959,1343.08201 139.586009,1343.35891 137.146661,1343.10453 C136.477081,1343.02574 133.539493,1343.03474 131.699837,1342.90192 C127.964163,1348.61089 122.341489,1352.60672 115.785461,1353.7188 C113.086848,1359.33547 110.453615,1364.95215 108.559851,1370.77818 C107.1756,1375.06216 104.785851,1378.10349 101.929425,1380.39743 C100.2814,1392.12379 96.241371,1403.19505 91.9691308,1414.23929 C91.9014964,1426.74905 91.5159803,1437.44212 92.1043996,1448.01137 C93.0422634,1464.7781 98.7754068,1468.76042 114.482371,1474.7778 C120.31922,1477.03347 126.050109,1479.57505 131.830597,1482.04683 C131.846378,1482.04683 131.862159,1482.05359 131.875686,1482.05584 L131.857651,1482.05584 C131.846378,1482.05584 131.839615,1482.04683 131.830597,1482.04683 C116.777432,1478.30989 102.702711,1478.03074 86.914586,1482.92704 C74.3548763,1486.7833 66.1215143,1493.92851 57.2275896,1501.55548 C54.9956541,1503.49374 53.7714713,1507.20367 53.117672,1510.34406 C49.291819,1528.31741 45.9010806,1546.42133 42.1315896,1564.40144 C41.6220771,1566.88223 40.6436326,1569.25496 39.6494068,1571.7155 C43.5676935,1581.54186 45.569672,1592.24618 47.0937007,1602.54529 C48.1623244,1609.7783 46.9539229,1616.91452 43.2746111,1622.43664 C49.2512384,1624.30511 55.7238513,1625.02774 62.219009,1624.47845 C72.3123172,1623.6095 83.0188441,1627.36445 93.204586,1629.98257 C99.0572168,1631.49535 104.391317,1634.91939 110.088389,1635.56998 C88.4205789,1634.22603 66.7414964,1632.77627 45.0669229,1631.58765 C39.7869301,1631.27249 34.3919588,1631.1014 29.1480376,1631.71372 C28.4559122,1631.84879 27.7592778,1631.94334 27.046862,1632.00637 C18.1687186,1633.4989 14.1174176,1639.76391 11.7411953,1647.50794 C11.9576254,1649.08601 12.0365323,1650.74962 11.9350806,1652.5348 C10.3727258,1679.26972 11.2902993,1706.65747 2.66916667,1732.05068 C2.4933172,1733.2438 2.2994319,1734.41216 2.08976523,1735.54 C-3.65239606,1765.69444 5.53235663,1778.81202 35.5214534,1780.11545 C44.4221416,1780.48014 53.3679194,1779.89483 62.2843889,1779.81379 C71.2188943,1779.74851 80.1759444,1779.81379 89.6470161,1781.30407 C85.0253315,1782.67053 80.4802993,1784.29137 75.7819624,1785.37193 C60.3365179,1788.95129 44.7918763,1792.10969 29.3825036,1795.92092 C6.96169713,1801.47006 -6.60351075,1821.95797 4.26308423,1840.75525 C6.44316667,1844.56424 6.6686147,1849.54383 9.06738172,1853.19072 C21.7014892,1872.24689 22.8580376,1893.90316 23.4148943,1915.5887 C23.6989588,1926.86707 27.0062814,1933.97627 38.0780341,1939.86308 C49.1813495,1945.75214 59.1100806,1948.6539 71.0791165,1945.49551 C73.879181,1944.73236 77.0219265,1945.36494 78.6135896,1945.36494 C73.9986685,1956.61855 68.4751918,1967.49621 65.0190735,1979.01771 C58.4540269,2000.6312 69.645267,2026.58271 90.5555717,2035.7022 C102.272106,2040.78085 105.719206,2045.98556 104.362009,2059.28097 C102.245052,2080.07505 117.580027,2094.21465 130.139737,2108.57263 C135.455801,2114.63728 141.937432,2119.70917 150.290281,2127.46446 C149.938582,2127.51398 149.604919,2127.56576 149.255475,2127.61754 C154.815023,2134.30577 160.108543,2141.21236 165.792088,2147.80379 C166.944127,2149.13648 168.127729,2150.44892 169.297805,2151.77261 C170.465625,2152.37142 171.637955,2153.03326 172.799013,2153.80091 C174.018686,2154.61809 176.151425,2154.12283 177.869339,2154.18811 C196.058486,2154.88373 214.793217,2161.59447 232.605866,2148.01765 C238.415661,2165.0185 252.425002,2172.229 266.504231,2179.74566 C276.956002,2185.33082 286.057339,2192.39049 285.795819,2206.36352 C285.475683,2222.52468 285.651532,2238.74437 285.692113,2255.92306 C287.092145,2273.07698 283.604464,2289.58933 275.567242,2303.13688 C277.068726,2313.21987 271.712081,2322.92017 260.354009,2327.60486 C238.704235,2336.54426 228.306572,2356.77329 213.830554,2372.84215 C211.957081,2374.92674 212.996396,2379.40207 212.552263,2383.04221 C213.684013,2385.68058 214.353593,2388.53507 214.558751,2391.42782 C216.414188,2392.59393 218.249335,2393.82307 220.039392,2395.28183 C220.670647,2395.79735 221.759561,2396.91843 222.979235,2398.16558 C226.989955,2398.5933 230.371676,2399.90574 233.164977,2401.82598 C237.912912,2401.1844 242.645066,2400.4235 247.386238,2399.67386 C247.954367,2399.40823 248.527005,2399.14034 249.099643,2398.86119 C249.52574,2398.15883 249.996927,2397.53075 250.398224,2396.79687 C252.373149,2393.24677 258.209998,2391.51337 262.558891,2389.67416 C269.011213,2386.92323 275.720547,2384.75535 282.326174,2382.37586 C282.418608,2382.47717 282.511041,2382.58072 282.603475,2382.67977 C299.002565,2376.79746 316.021636,2369.9584 330.736629,2361.01675 C337.511342,2352.71443 343.562367,2343.70974 349.225622,2334.61951 C355.896629,2323.94896 362.033324,2312.92722 368.156493,2301.89423 C372.739851,2264.05429 394.633109,2231.09939 411.999371,2197.12471 C412.948507,2192.16087 414.037421,2187.22631 415.550177,2182.4088 C418.92288,2171.6392 419.923869,2160.1222 422.0025,2148.92037 C422.076898,2148.60296 422.103952,2148.18649 421.993482,2147.90509 C416.551167,2134.91133 421.441134,2124.53568 426.552041,2111.99666 C431.48259,2099.95739 427.846113,2084.25097 427.460597,2070.1969 C426.92403,2050.66574 413.669941,2036.34154 405.359927,2020.1286 C402.081912,2013.73302 394.567729,2009.49181 387.617167,2002.97467 C388.936038,1999.20396 390.868127,1993.20234 393.158679,1987.33353 C405.795041,1955.28135 385.189091,1940.07919 361.819149,1928.42713 C353.391901,1924.22419 345.681579,1918.24283 336.920668,1915.08443 C323.578654,1910.27368 309.643711,1907.24586 295.945489,1903.47514 C292.259414,1902.4351 286.330131,1902.50264 285.297579,1900.26497 C282.177378,1893.6015 280.948686,1886.06233 279.000815,1878.84733 C285.297579,1877.18146 291.598851,1874.06584 297.866306,1874.10186 C311.871138,1874.21667 325.869206,1876.74923 339.869529,1876.57589 C346.256471,1876.49485 352.656941,1872.40222 358.978504,1869.9507 C366.503959,1867.04218 366.697844,1860.37872 369.017704,1853.74676 C369.75041,1851.68694 371.058009,1849.78695 372.647418,1847.99277 C371.646428,1832.14452 369.863134,1816.38632 367.913009,1800.5966 C367.486912,1800.00455 367.045034,1799.43725 366.632464,1798.74164 C363.588916,1793.69451 357.429676,1788.73293 351.809256,1787.34846 C336.1564,1783.62052 320.057156,1781.58996 304.104453,1779.24649 C288.907002,1776.99307 273.583299,1775.5163 258.469263,1772.88018 C254.974819,1772.27687 251.200819,1768.80781 249.192077,1765.6179 C247.663539,1763.20239 247.469654,1758.3196 248.975647,1756.09545 C250.438805,1753.95233 255.213794,1752.3495 257.914661,1753.03836 C275.136636,1757.34935 292.529952,1761.3812 309.217615,1767.33104 C331.629403,1775.39024 352.352586,1768.42061 362.556364,1747.40592 C373.585281,1724.6871 377.467496,1701.12409 367.588364,1677.19639 C365.732927,1672.72556 358.432919,1668.36054 353.209289,1667.70995 C329.068314,1664.76317 304.796579,1662.68308 280.538371,1661.30312 C272.586819,1660.86189 268.63697,1657.95788 266.296819,1650.94097 C259.377819,1630.36527 266.592156,1617.24544 287.795543,1613.38918 C290.73764,1612.86691 294.775414,1614.8637 297.442464,1616.83347 C302.648059,1620.75051 307.127711,1625.65131 312.128149,1629.85425 C323.894281,1639.80893 337.101027,1638.61806 349.854622,1633.0149 C363.327396,1627.05379 372.827776,1617.50207 374.074504,1601.43096 C374.712522,1593.38077 376.450726,1585.15049 379.214719,1577.56854 C385.982668,1559.20574 371.968819,1544.62715 357.871554,1540.71011 C345.625217,1537.26582 333.473568,1533.50861 321.119016,1530.54382 C314.233833,1528.92298 310.511686,1525.84788 309.515206,1518.48429 C307.680059,1505.23165 304.731199,1492.15009 302.767547,1478.93346 C302.451919,1476.64402 304.145034,1473.30328 305.982435,1471.66443 C308.994421,1468.95177 312.802238,1467.06754 316.456751,1465.16305 C322.138041,1462.21401 327.212876,1461.70074 331.043238,1468.47677 C336.354794,1477.90017 344.815858,1481.49079 355.441224,1480.88523 C358.022604,1480.70964 360.930884,1481.36022 363.273289,1482.55335 C380.993504,1491.3059 391.465565,1487.48116 398.790371,1468.96302 C399.250285,1463.89338 400.136296,1458.24069 400.733733,1452.55874 C394.592529,1437.75053 391.909697,1420.75419 392.254633,1402.50844 C392.268159,1401.7678 392.416955,1401.13297 392.480081,1400.41935 C391.197281,1390.13375 396.112048,1380.32089 400.242256,1370.73315 C401.540837,1367.6558 402.24198,1364.30381 403.373729,1361.16342 C404.307084,1358.6286 404.990192,1354.53598 406.66978,1354.03847 C416.287392,1351.07367 421.961919,1344.50701 426.524987,1336.0381 C427.365909,1334.46228 432.04621,1334.11335 434.780894,1334.52756 C452.706267,1337.01736 459.52607,1333.438 465.716873,1317.0247 C466.607392,1314.72851 465.856651,1311.26621 464.765482,1308.85745 C462.747722,1304.54421 458.930887,1300.90857 457.632306,1296.45125 C455.75207,1290.1232 452.153919,1280.52646 455.005837,1277.25551 C459.864242,1271.6591 462.964152,1264.49137 467.479876,1258.50325 C468.410977,1256.65954 469.59007,1254.83834 471.114099,1253.08918 C485.698332,1236.38549 509.178744,1218.19377 533.177686,1208.8289 C545.130941,1195.46144 543.803052,1175.15588 528.988862,1162.77218 C526.094109,1160.34542 522.200622,1158.42517 520.572887,1155.30505 C518.796357,1151.8585 518.196665,1147.17832 518.753522,1143.28604 C519.853708,1135.40244 522.329127,1127.69218 523.826102,1119.80857 C525.507944,1110.79713 525.386203,1101.13736 528.679998,1092.77651 C530.826263,1087.27464 535.103013,1082.62372 539.179113,1077.87375 C542.07612,1071.29358 547.946787,1066.18792 556.671625,1065.1929 C558.139292,1064.27442 559.737719,1063.50227 561.50974,1062.93948 C565.076328,1059.58974 569.896407,1057.34757 576.1075,1057.16297 C576.100737,1056.98063 576.100737,1056.80278 576.08721,1056.61594 C580.711149,1056.61594 582.760471,1056.69698 584.791758,1056.61594 C598.742482,1055.92033 605.753916,1049.41894 608.950769,1035.86464 C609.356575,1034.08621 610.244841,1032.34831 611.322482,1030.6892 C611.214267,1017.78773 606.509167,1006.88756 600.482941,995.49438 C599.263267,993.193683 598.53507,990.926753 598.088683,988.698093 C592.24507,979.538076 591.850536,968.723448 592.495317,957.478847 C593.228023,943.989827 591.230554,930.300453 589.6434,916.784419 C589.291701,913.470695 586.626905,909.337544 583.802041,907.59964 C578.017045,904.056296 575.025349,898.811066 578.815131,894.045336 C581.132737,891.139073 584.095124,888.163025 587.325794,885.82856 C588.685246,878.044009 589.508131,869.741688 591.241826,861.878346 C590.637625,857.81273 589.848557,853.900194 589.46755,850.825094 C588.809242,845.622637 589.726815,841.376927 591.645378,837.995668 C592.195471,832.752689 594.966228,827.424166 600.101934,822.971349 C604.139708,819.479782 608.556235,815.817126 613.446203,813.957658 C627.62012,808.518828 630.510364,794.41749 618.516529,784.388521 M552.897625,924.495132 C548.826034,920.620866 545.083597,916.271602 540.479948,913.167237 C538.870249,912.066414 535.125557,914.03844 532.363819,914.59448 C530.749611,923.671203 535.2225,927.509451 536.642823,933.936545 C554.660629,938.772062 553.427428,935.71272 552.897625,924.495132 M565.220615,927.901154 C565.608385,939.1345 548.916213,950.06844 540.355952,944.724159 C524.092131,934.629906 519.853708,930.426969 523.720142,911.976367 C525.658995,902.579977 534.607027,897.967327 542.1415,903.725824 C550.201267,909.943559 556.984998,917.802399 564.197081,925.060176 C565.053783,925.922375 565.103382,927.52746 565.220615,927.901154 Z M536.385361,841.456844 C540.702691,835.140057 558.420651,834.462454 561.610741,840.504598 C562.223959,841.67971 561.885787,844.009672 561.049375,845.101491 C560.244526,846.11902 558.05768,846.812381 556.723028,846.528733 C549.92577,845.036207 543.193891,843.196999 536.385361,841.456844 Z" id="Fill-42"></path>
            </g>
        </g>
    </g>
</svg>