<?xml version="1.0" encoding="UTF-8"?>
<svg width="87px" height="16px" viewBox="0 0 87 16" version="1.1" xmlns="http://www.w3.org/2000/svg" xmlns:xlink="http://www.w3.org/1999/xlink">
    <!-- Generator: Sketch 46.2 (44496) - http://www.bohemiancoding.com/sketch -->
    <title>DOCTORALIA</title>
    <desc>Created with Sketch.</desc>
    <defs>
        <polygon id="path-1" points="0 0.0940723702 0 8.65751811 9.63025888 8.65751811 9.63025888 0.0940723702 4.19036434e-21 0.0940723702"></polygon>
        <polygon id="path-3" points="6.62829128 7.42066355 0.0189536115 7.42066355 0.0189536115 0.0574019245 6.62829128 0.0574019245"></polygon>
        <polygon id="path-5" points="6.62422537 7.42066355 0.0148877062 7.42066355 0.0148877062 0.0574019245 6.62422537 0.0574019245 6.62422537 7.42066355"></polygon>
        <polygon id="path-7" points="0 15.674915 85.470739 15.674915 85.470739 0.154597157 0 0.154597157"></polygon>
    </defs>
    <g id="Symbols" stroke="none" stroke-width="1" fill="none" fill-rule="evenodd">
        <g id="HEADER" transform="translate(-787.000000, -86.000000)">
            <g id="REDES" transform="translate(695.000000, 86.000000)">
                <g id="DOCTORALIA" transform="translate(92.746114, 0.000000)">
                    <g id="Group-3" transform="translate(0.000000, 0.060602)">
                        <mask id="mask-2" fill="white">
                            <use xlink:href="#path-1"></use>
                        </mask>
                        <g id="Clip-2"></g>
                        <path d="M-6.18388629e-05,7.13380852 L0.939888877,4.11916396 L5.80892635,5.34481022 L6.20964218,0.0940723702 L9.24515736,0.0940723702 L9.63025888,4.84793496 C9.63025888,4.84793496 5.62402815,6.09027771 3.43616918,8.65751811 L-6.18388629e-05,7.13380852 Z" id="Fill-1" fill="#FEFEFE" mask="url(#mask-2)"></path>
                    </g>
                    <path d="M5.06933355,15.5757254 L1.74116594,13.2898519 C1.74116594,13.2898519 5.60856843,5.14041732 14.5609806,4.19629248 L15.4854716,7.19439515 C15.4854716,7.19439515 8.89066608,8.05565591 5.06933355,15.5757254" id="Fill-4" fill="#FEFEFE"></path>
                    <path d="M11.0786951,9.66238417 L13.4361472,13.7371014 L11.0786951,15.5757254 L8.61333424,12.6190548 C8.61333424,12.6190548 9.21409879,10.9378107 11.0786951,9.66238417" id="Fill-6" fill="#FEFEFE"></path>
                    <path d="M24.3323867,7.40577584 L24.3323867,9.19570173 L24.3323867,10.8648872 L24.3323867,12.5343819 L24.3323867,14.3239986 L26.2057951,14.3239986 C27.2031013,14.3239986 27.9770147,14.0211428 28.5273806,13.4152765 C29.0775918,12.8094103 29.3527748,11.9625271 29.3527748,10.8743177 C29.3527748,9.78208875 29.0754275,8.9308768 28.5211967,8.32083642 C27.9668113,7.71095063 27.1950623,7.40577584 26.2057951,7.40577584 L24.3323867,7.40577584 Z M23.2195964,6.40414086 L24.749799,6.40414086 L26.2800017,6.40414086 C27.6030442,6.40414086 28.6355986,6.79589006 29.3775103,7.57892466 C30.1194221,8.36211386 30.4903007,9.45635254 30.4903007,10.8617953 C30.4903007,12.2673926 30.1201951,13.3627135 29.3804477,14.1479125 C28.6405457,14.9329568 27.6072183,15.3256336 26.2800017,15.3256336 L23.2195964,15.3256336 L23.2195964,6.40414086 Z" id="Fill-8" fill="#FEFEFE"></path>
                    <path d="M24.5642824,14.0921029 L26.2057951,14.0921029 C27.1435814,14.0921029 27.8466893,13.8197027 28.3556231,13.259288 C28.8634748,12.7004193 29.120879,11.89806 29.120879,10.8743177 C29.120879,9.84671036 28.8613104,9.04017699 28.3494392,8.47682495 C27.8363313,7.91208153 27.1350786,7.63767158 26.2057951,7.63767158 L24.5642824,7.63767158 L24.5642824,14.0921029 Z M26.2057951,14.5558944 L24.100491,14.5558944 L24.100491,7.17388011 L26.2057951,7.17388011 C27.2584471,7.17388011 28.0951269,7.50719158 28.6927995,8.16484789 C29.2845974,8.81632031 29.5846705,9.72797974 29.5846705,10.8743177 C29.5846705,12.0167907 29.2866072,12.9241214 28.6989834,13.5712651 C28.1054849,14.2245927 27.2666407,14.5558944 26.2057951,14.5558944 L26.2057951,14.5558944 Z M23.4514921,15.0937379 L26.2800017,15.0937379 C27.534403,15.0937379 28.5208875,14.7219317 29.2117822,13.988832 C29.9062326,13.2517127 30.2584049,12.1996791 30.2584049,10.8617953 C30.2584049,9.52422069 29.9054596,8.47326921 29.209154,7.73831433 C28.516095,7.00706977 27.5305381,6.6360366 26.2800017,6.6360366 L23.4514921,6.6360366 L23.4514921,15.0937379 Z M26.2800017,15.5575294 L22.9877006,15.5575294 L22.9877006,6.17224513 L26.2800017,6.17224513 C27.6630279,6.17224513 28.7617499,6.59182181 29.5458666,7.41953499 C30.3262731,8.24338324 30.7221964,9.40162514 30.7221964,10.8617953 C30.7221964,12.3218108 30.3275099,13.4808257 29.5492678,14.3069929 C28.7673154,15.1367159 27.667202,15.5575294 26.2800017,15.5575294 L26.2800017,15.5575294 Z" id="Fill-10" fill="#FEFEFE"></path>
                    <path d="M36.4750504,13.829566 C36.8171739,13.392829 36.9881583,12.7806243 36.9881583,11.993261 C36.9881583,11.2018781 36.8171739,10.5889004 36.4750504,10.1540186 C36.1329269,9.71913679 35.6467188,9.50177318 35.0159624,9.50177318 C34.3853606,9.50177318 33.8989979,9.71913679 33.5568744,10.1540186 C33.2147509,10.5889004 33.0437665,11.2018781 33.0437665,11.993261 C33.0437665,12.7806243 33.2147509,13.392829 33.5568744,13.829566 C33.8989979,14.266303 34.3853606,14.4849034 35.0159624,14.4849034 C35.6467188,14.4849034 36.1329269,14.266303 36.4750504,13.829566 M32.7685835,14.5187601 C32.2183722,13.9028451 31.9433439,13.0609089 31.9433439,11.993261 C31.9433439,10.9215935 32.2183722,10.0788844 32.7685835,9.46466986 C33.3187948,8.85060996 34.0679726,8.54358 35.0159624,8.54358 C35.9639522,8.54358 36.71313,8.85060996 37.2633413,9.46466986 C37.8135525,10.0788844 38.0887355,10.9215935 38.0887355,11.993261 C38.0887355,13.0609089 37.8135525,13.9028451 37.2633413,14.5187601 C36.71313,15.1349844 35.9639522,15.4430965 35.0159624,15.4430965 C34.0679726,15.4430965 33.3187948,15.1349844 32.7685835,14.5187601" id="Fill-12" fill="#FEFEFE"></path>
                    <g id="Group-16" transform="translate(31.692417, 8.254251)">
                        <mask id="mask-4" fill="white">
                            <use xlink:href="#path-3"></use>
                        </mask>
                        <g id="Clip-15"></g>
                        <path d="M3.32362245,1.47938658 C2.76289856,1.47938658 2.34517704,1.66366639 2.04664993,2.04304781 C1.73915618,2.43417862 1.58316765,3.00464213 1.58316765,3.73897863 C1.58316765,4.46975939 1.73931078,5.03929532 2.04695912,5.43228129 C2.34564083,5.81351788 2.76320775,5.99872528 3.32362245,5.99872528 C3.88403714,5.99872528 4.30144947,5.81351788 4.60013117,5.43228129 C4.90777952,5.03929532 5.06392265,4.46975939 5.06392265,3.73897863 C5.06392265,3.00464213 4.90793411,2.43417862 4.60044037,2.04304781 C4.30191326,1.66366639 3.88434634,1.47938658 3.32362245,1.47938658 M3.32362245,6.46251675 C2.62113296,6.46251675 2.06875732,6.21206935 1.68195523,5.71828603 C1.30875769,5.24181759 1.11937618,4.57581304 1.11937618,3.73897863 C1.11937618,2.89827929 1.30875769,2.23103796 1.68226443,1.75627009 C2.06891192,1.26480572 2.62113296,1.01559511 3.32362245,1.01559511 C4.02595733,1.01559511 4.57817838,1.26480572 4.96482587,1.75627009 C5.3383326,2.23103796 5.52771412,2.89827929 5.52771412,3.73897863 C5.52771412,4.57581304 5.3383326,5.24181759 4.96513506,5.71828603 C4.57833297,6.21206935 4.02611193,6.46251675 3.32362245,6.46251675 M3.32362245,0.521193396 C2.43638936,0.521193396 1.75770784,0.797149322 1.24892859,1.36513928 C0.740613142,1.93266544 0.482745083,2.73146895 0.482745083,3.73897863 C0.482745083,4.74293257 0.740613142,5.5408085 1.24908319,6.11003523 L1.24923779,6.11003523 C1.75786244,6.67988035 2.43654396,6.95691846 3.32362245,6.95691846 C4.21070093,6.95691846 4.88922786,6.67988035 5.3978525,6.11003523 C5.90663175,5.5406539 6.16449981,4.74293257 6.16449981,3.73897863 C6.16449981,2.73146895 5.90663175,1.93282004 5.3981617,1.36513928 C4.88938245,0.797149322 4.21070093,0.521193396 3.32362245,0.521193396 M3.32362245,7.42070993 C2.31101107,7.42070993 1.49674784,7.08368813 0.903403948,6.41892035 C0.316553139,5.76219163 0.0189536115,4.86042641 0.0189536115,3.73897863 C0.0189536115,2.61366592 0.316553139,1.71081852 0.903558545,1.05563577 C1.49705703,0.393341547 2.31116566,0.0574019245 3.32362245,0.0574019245 C4.33592463,0.0574019245 5.15003326,0.393341547 5.74353175,1.05563577 C6.33053715,1.71097312 6.62829128,2.61382052 6.62829128,3.73897863 C6.62829128,4.86042641 6.33069175,5.76203703 5.74368635,6.41892035 C5.15049705,7.08368813 4.33623383,7.42070993 3.32362245,7.42070993" id="Fill-14" fill="#FEFEFE" mask="url(#mask-4)"></path>
                    </g>
                    <path d="M45.2728963,10.7012307 L44.7350528,10.7012307 L44.1970547,10.7012307 C44.1104803,10.371475 43.9220263,10.0890259 43.6313837,9.85419286 C43.3408956,9.61920518 42.9564125,9.50171134 42.4783981,9.50171134 C41.8807255,9.50171134 41.4056484,9.72433125 41.0531669,10.1695711 C40.70084,10.6145017 40.5245992,11.2141841 40.5245992,11.9684636 C40.5245992,12.7394396 40.7019222,13.3514898 41.0564134,13.8047686 C41.4109047,14.2582021 41.884745,14.4849961 42.4783981,14.4849961 C42.9275028,14.4849961 43.301628,14.383735 43.6004643,14.1818311 C43.8993006,13.9800818 44.0981125,13.6914489 44.1970547,13.3163962 L45.2728963,13.3163962 C45.1779737,13.926282 44.88965,14.4333607 44.4073068,14.837323 C43.9249637,15.2412854 43.2841585,15.4430347 42.484582,15.4430347 C41.5529795,15.4430347 40.8099856,15.1290479 40.2557548,14.5003012 C39.7013694,13.8718638 39.4241767,13.0279179 39.4241767,11.9684636 C39.4241767,10.9298799 39.7002872,10.099384 40.2525082,9.4769758 C40.8048839,8.85472224 41.5467956,8.54351816 42.4783981,8.54351816 C43.2903424,8.54351816 43.9362493,8.75454328 44.4165827,9.17721191 C44.8966068,9.59972594 45.1821478,10.1075776 45.2728963,10.7012307" id="Fill-17" fill="#FEFEFE"></path>
                    <g id="Group-21" transform="translate(39.113081, 8.254251)" fill="#FEFEFE">
                        <path d="M3.36530184,0.521162477 C2.49507444,0.521162477 1.82381358,0.801137929 1.31302458,1.37670315 C0.802080971,1.95257756 0.542976136,2.7390133 0.542976136,3.71421216 C0.542976136,4.71059084 0.803317749,5.51063113 1.31658031,6.09268943 C1.82922448,6.67428393 2.50141292,6.95688754 3.37148573,6.95688754 C4.11154232,6.95688754 4.70844194,6.77137095 5.14548811,6.40528488 C5.51404773,6.09639976 5.75398252,5.73093208 5.87379531,5.29404051 L5.2544791,5.29404051 C5.12848242,5.64172952 4.91467455,5.91892222 4.61707502,6.11974393 C4.28067161,6.34731095 3.85939435,6.46264043 3.36530184,6.46264043 C2.69945188,6.46264043 2.15959861,6.20384478 1.76058335,5.69336497 C1.37517263,5.20050923 1.17960723,4.53450468 1.17960723,3.71421216 C1.17960723,2.90999775 1.37439965,2.25636097 1.75826439,1.77138969 C2.15542449,1.26987651 2.69605075,1.01556419 3.36530184,1.01556419 C3.89572469,1.01556419 4.33277085,1.15145509 4.66407256,1.41968116 C4.94111066,1.64353784 5.13884043,1.91052713 5.25324232,2.21508353 L5.87394991,2.21508353 C5.75630147,1.78824078 5.51791266,1.42045414 5.15028062,1.09703689 C4.7160172,0.714872715 4.11556184,0.521162477 3.36530184,0.521162477 M3.37148573,7.42067901 C2.37448866,7.42067901 1.56610012,7.07700953 0.968736707,6.39941019 C0.37848476,5.73031369 0.079184664,4.8268479 0.079184664,3.71421216 C0.079184664,2.62213784 0.377557178,1.73212201 0.965953958,1.06890021 C1.56161681,0.397639348 2.36892316,0.0573710051 3.36530184,0.0573710051 C4.23166431,0.0573710051 4.93523597,0.290039727 5.45669218,0.74888409 C5.97675702,1.20649168 6.29028006,1.76613338 6.38906764,2.41188571 L6.42988129,2.678875 L4.90508953,2.678875 L4.85963796,2.50588078 C4.78543133,2.22250419 4.62588706,1.98519756 4.37250232,1.78035632 C4.12561066,1.5806168 3.78688829,1.47935566 3.36530184,1.47935566 C2.83750714,1.47935566 2.43076202,1.66904637 2.1218769,2.059095 C1.80433434,2.46027462 1.6433987,3.01713358 1.6433987,3.71421216 C1.6433987,4.42845103 1.80572572,4.99829615 2.12589643,5.40766942 C2.43694591,5.80544791 2.84229966,5.99884895 3.36530184,5.99884895 C3.76524469,5.99884895 4.09901995,5.91011019 4.35750639,5.73557 C4.61058194,5.56458554 4.77476412,5.32511454 4.85979256,5.00293407 L4.90539872,4.83024904 L6.43065427,4.83024904 L6.38906764,5.09785672 C6.28564214,5.76216071 5.96732659,6.32180242 5.44308763,6.76070374 C4.92054924,7.19867749 4.22347066,7.42067901 3.37148573,7.42067901" id="Fill-19"></path>
                    </g>
                    <path d="M55.641032,13.829566 C55.9831555,13.392829 56.1541399,12.7806243 56.1541399,11.993261 C56.1541399,11.2018781 55.9831555,10.5889004 55.641032,10.1540186 C55.2989085,9.71913679 54.8127004,9.50177318 54.181944,9.50177318 C53.5513422,9.50177318 53.0649795,9.71913679 52.722856,10.1540186 C52.3807325,10.5889004 52.2097481,11.2018781 52.2097481,11.993261 C52.2097481,12.7806243 52.3807325,13.392829 52.722856,13.829566 C53.0649795,14.266303 53.5513422,14.4849034 54.181944,14.4849034 C54.8127004,14.4849034 55.2989085,14.266303 55.641032,13.829566 M51.9345651,14.5187601 C51.3843538,13.9028451 51.1093255,13.0609089 51.1093255,11.993261 C51.1093255,10.9215935 51.3843538,10.0788844 51.9345651,9.46466986 C52.4847764,8.85060996 53.2339542,8.54358 54.181944,8.54358 C55.1299338,8.54358 55.8791116,8.85060996 56.4293229,9.46466986 C56.9795341,10.0788844 57.2547171,10.9215935 57.2547171,11.993261 C57.2547171,13.0609089 56.9795341,13.9028451 56.4293229,14.5187601 C55.8791116,15.1349844 55.1299338,15.4430965 54.181944,15.4430965 C53.2339542,15.4430965 52.4847764,15.1349844 51.9345651,14.5187601" id="Fill-22" fill="#FEFEFE"></path>
                    <g id="Group-26" transform="translate(50.862465, 8.254251)">
                        <mask id="mask-6" fill="white">
                            <use xlink:href="#path-5"></use>
                        </mask>
                        <g id="Clip-25"></g>
                        <path d="M3.31955654,1.47938658 C2.75883265,1.47938658 2.34111113,1.66366639 2.04258402,2.04304781 C1.73509028,2.43417862 1.57910174,3.00464213 1.57910174,3.73897863 C1.57910174,4.46975939 1.73524487,5.03929532 2.04289322,5.43228129 C2.34157492,5.81351788 2.75914185,5.99872528 3.31955654,5.99872528 C3.87997124,5.99872528 4.29738356,5.81351788 4.59606527,5.43228129 C4.90371361,5.03929532 5.05985674,4.46975939 5.05985674,3.73897863 C5.05985674,3.00464213 4.90386821,2.43417862 4.59637446,2.04304781 C4.29784735,1.66366639 3.88028043,1.47938658 3.31955654,1.47938658 M3.31955654,6.46251675 C2.61706706,6.46251675 2.06469141,6.21206935 1.67788933,5.71828603 C1.30469179,5.24181759 1.11531027,4.57581304 1.11531027,3.73897863 C1.11531027,2.89827929 1.30469179,2.23103796 1.67819852,1.75627009 C2.06484601,1.26480572 2.61706706,1.01559511 3.31955654,1.01559511 C4.02189143,1.01559511 4.57411247,1.26480572 4.96075996,1.75627009 C5.33426669,2.23103796 5.52364821,2.89827929 5.52364821,3.73897863 C5.52364821,4.57581304 5.33426669,5.24181759 4.96106916,5.71828603 C4.57426707,6.21206935 4.02204602,6.46251675 3.31955654,6.46251675 M3.31955654,0.521193396 C2.43232345,0.521193396 1.75364193,0.797149322 1.24486269,1.36513928 C0.736547236,1.93266544 0.478679178,2.73146895 0.478679178,3.73897863 C0.478679178,4.74293257 0.736547236,5.5408085 1.24501729,6.11003523 L1.24517188,6.11003523 C1.75379653,6.67988035 2.43247805,6.95691846 3.31955654,6.95691846 C4.20663503,6.95691846 4.88516195,6.67988035 5.3937866,6.11003523 C5.90256584,5.5406539 6.1604339,4.74293257 6.1604339,3.73897863 C6.1604339,2.73146895 5.90256584,1.93282004 5.39409579,1.36513928 C4.88531655,0.797149322 4.20663503,0.521193396 3.31955654,0.521193396 M3.31955654,7.42070993 C2.30694516,7.42070993 1.49268193,7.08368813 0.899338043,6.41892035 C0.312487234,5.76219163 0.0148877062,4.86042641 0.0148877062,3.73897863 C0.0148877062,2.61366592 0.312487234,1.71081852 0.89949264,1.05563577 C1.49299113,0.393341547 2.30709976,0.0574019245 3.31955654,0.0574019245 C4.33185873,0.0574019245 5.14596736,0.393341547 5.73946584,1.05563577 C6.32647125,1.71097312 6.62422537,2.61382052 6.62422537,3.73897863 C6.62422537,4.86042641 6.32662585,5.76203703 5.73962044,6.41892035 C5.14643115,7.08368813 4.33216792,7.42070993 3.31955654,7.42070993" id="Fill-24" fill="#FEFEFE" mask="url(#mask-6)"></path>
                    </g>
                    <path d="M58.923949,15.3255563 L58.923949,12.9855737 L58.923949,11.00101 L58.923949,8.66102746 L59.9379517,8.66102746 L59.9379517,9.65014007 L60.0367393,9.65014007 C60.1358361,9.32471306 60.3583014,9.05865135 60.704599,8.85257334 C61.0507421,8.64649533 61.4443464,8.54353362 61.8854121,8.54353362 C61.9719865,8.54353362 62.0656724,8.54647097 62.1667789,8.55250026 C62.2677309,8.55883874 62.3512134,8.56610481 62.4172263,8.57429846 L62.4172263,9.6377723 C62.3759489,9.62540453 62.2790165,9.61210917 62.1265837,9.59757704 C61.9739963,9.58304491 61.8442893,9.57593344 61.7369988,9.57593344 C61.2300748,9.57593344 60.8117349,9.72836624 60.4819791,10.0333864 C60.1520688,10.3385612 59.9874228,10.7258271 59.9874228,11.1958025 L59.9874228,15.3255563 L58.923949,15.3255563 Z" id="Fill-27" fill="#FEFEFE"></path>
                    <path d="M59.1558447,15.0936606 L59.7555271,15.0936606 L59.7555271,11.1958025 C59.7555271,10.6608963 59.9469184,10.2125645 60.3245992,9.86317496 C60.6970238,9.51857789 61.1722554,9.3440377 61.7369988,9.3440377 C61.8510915,9.3440377 61.989456,9.35161296 62.1483819,9.36676349 C62.1612134,9.36800026 62.1735812,9.36923704 62.1853306,9.37031922 L62.1853306,8.78609656 C62.1743542,8.78532358 62.1633778,8.78470519 62.1522468,8.7840868 C62.0568604,8.77821211 61.9676578,8.77542936 61.8854121,8.77542936 C61.4887158,8.77542936 61.1311326,8.86834225 60.8231751,9.05184908 C60.5257301,9.22886282 60.3411411,9.44669022 60.2585862,9.71769903 L60.2086514,9.88203581 L59.706056,9.88203581 L59.706056,8.8929232 L59.1558447,8.8929232 L59.1558447,15.0936606 Z M60.2193186,15.5574521 L58.6920532,15.5574521 L58.6920532,8.42913173 L60.1698475,8.42913173 L60.1698475,8.9799614 C60.2854861,8.85860263 60.4243144,8.74945704 60.5858684,8.6532976 C60.9667958,8.42650357 61.4039966,8.31163789 61.8854121,8.31163789 C61.9761606,8.31163789 62.074639,8.31472983 62.1805381,8.32106831 C62.2878285,8.32771599 62.3759489,8.33560045 62.4455176,8.34425789 L62.6491221,8.36930263 L62.6491221,9.94959477 L62.3504404,9.85992842 C62.3434835,9.85791865 62.2966406,9.84678766 62.1046309,9.8283906 C61.9600825,9.81478605 61.8364048,9.80782917 61.7369988,9.80782917 C61.2863481,9.80782917 60.9273735,9.937227 60.6395136,10.2035979 C60.3567554,10.4651763 60.2193186,10.7896757 60.2193186,11.1958025 L60.2193186,15.5574521 Z" id="Fill-29" fill="#FEFEFE"></path>
                    <polygon id="Fill-31" fill="#FEFEFE" points="70.794568 15.3255563 70.794568 12.917551 70.794568 10.6701721 70.794568 8.42294784 70.794568 5.70543901 71.8578873 5.70543901 71.8578873 15.3255563"></polygon>
                    <mask id="mask-8" fill="white">
                        <use xlink:href="#path-7"></use>
                    </mask>
                    <g id="Clip-34"></g>
                    <path d="M71.0264174,15.0936297 L71.6259452,15.0936297 L71.6259452,5.93730383 L71.0264174,5.93730383 L71.0264174,15.0936297 Z M70.5626259,15.5574211 L72.0897366,15.5574211 L72.0897366,5.47351235 L70.5626259,5.47351235 L70.5626259,15.5574211 Z" id="Fill-33" fill="#FEFEFE" mask="url(#mask-8)"></path>
                    <path d="M73.9476543,15.3255563 L73.9476543,12.9855737 L73.9476543,11.00101 L73.9476543,8.66102746 L75.0111282,8.66102746 L75.0111282,15.3255563 L73.9476543,15.3255563 Z M74.033765,7.31989712 C73.9088505,7.19498262 73.8465478,7.04641475 73.8465478,6.87419352 C73.8465478,6.69841655 73.9088505,6.5489211 74.033765,6.42601636 C74.1583703,6.30280242 74.3070927,6.24127276 74.479314,6.24127276 C74.6550909,6.24127276 74.8045864,6.30280242 74.9276457,6.42601636 C75.0507051,6.5489211 75.1122347,6.69841655 75.1122347,6.87419352 C75.1122347,7.04641475 75.0507051,7.19498262 74.9276457,7.31989712 C74.8045864,7.44465703 74.6550909,7.50711428 74.479314,7.50711428 C74.3070927,7.50711428 74.1583703,7.44465703 74.033765,7.31989712 L74.033765,7.31989712 Z" id="Fill-35" fill="#FEFEFE" mask="url(#mask-8)"></path>
                    <path d="M74.4793913,6.43909528 C74.3583417,6.43909528 74.2607909,6.47975433 74.1728251,6.56663793 C74.0850139,6.65305774 74.0443549,6.75076315 74.0443549,6.87413168 C74.0443549,6.99471746 74.0853231,7.09180448 74.1735981,7.17992486 L74.1735981,7.18007945 C74.2617185,7.26819983 74.3589601,7.30932268 74.4793913,7.30932268 C74.6029144,7.30932268 74.7006198,7.26850903 74.7867304,7.18100704 C74.8739232,7.09273206 74.9144277,6.99518125 74.9144277,6.87413168 C74.9144277,6.75029936 74.8742324,6.65228476 74.787658,6.56586495 C74.7013928,6.47944514 74.6035328,6.43909528 74.4793913,6.43909528 L74.4793913,6.43909528 Z M74.4793913,7.7049368 C74.2533702,7.7049368 74.0562588,7.62238192 73.8937772,7.45974571 C73.731141,7.2971095 73.6487407,7.09999813 73.6487407,6.87413168 C73.6487407,6.64424571 73.7314502,6.44605215 73.8948594,6.28511651 C74.0571864,6.12479926 74.253834,6.04348115 74.4793913,6.04348115 C74.7088134,6.04348115 74.9068524,6.12526305 75.0676334,6.28619869 C75.2285691,6.44713433 75.3100418,6.6448641 75.3100418,6.87413168 C75.3100418,7.09937974 75.2288783,7.29602732 75.068561,7.45881813 C74.9076254,7.62207273 74.7092772,7.7049368 74.4793913,7.7049368 L74.4793913,7.7049368 Z M74.1454614,15.1277647 L74.8133211,15.1277647 L74.8133211,8.85869539 L74.1454614,8.85869539 L74.1454614,15.1277647 Z M73.7498473,15.5233788 L75.2089352,15.5233788 L75.2089352,8.46323586 L73.7498473,8.46323586 L73.7498473,15.5233788 Z" id="Fill-36" fill="#FEFEFE" mask="url(#mask-8)"></path>
                    <path d="M49.8356304,8.15974618 L49.8356304,7.26957575 L48.3516523,7.26957575 L48.3516523,5.73164323 L47.2883331,6.11411659 L47.2883331,7.26957575 L47.2946716,7.26957575 L47.2946716,8.15974618 L47.2883331,8.15974618 L47.2883331,13.5944546 C47.2883331,14.2292306 47.4376739,14.6848284 47.7366648,14.9607843 C48.0353465,15.2370494 48.5268109,15.3751047 49.2112125,15.3751047 C49.3181937,15.3751047 49.4233198,15.370003 49.5264361,15.359645 C49.6293978,15.3494416 49.7325141,15.3339819 49.8356304,15.3131112 L49.8356304,14.4167569 C49.7365337,14.4251052 49.6532058,14.4311345 49.585183,14.4354632 C49.5171603,14.4396373 49.4356876,14.4414925 49.3410741,14.4414925 C48.9947765,14.4414925 48.7434015,14.3530629 48.58664,14.17574 C48.4300331,13.9985716 48.3516523,13.7142674 48.3516523,13.3225182 L48.3516523,8.15974618 L49.8356304,8.15974618 Z" id="Fill-37" fill="#FEFEFE" mask="url(#mask-8)"></path>
                    <path d="M47.5202906,8.39164192 L47.5202906,13.5944546 C47.5202906,14.1591981 47.6459781,14.5614599 47.893952,14.7904183 C48.1471821,15.0244784 48.5902576,15.143209 49.2112743,15.143209 C49.3100619,15.143209 49.4083857,15.1384165 49.503463,15.128986 C49.536856,15.1255849 49.5704035,15.1215654 49.6037965,15.1172366 L49.6037965,14.6665859 C49.6024052,14.6667405 49.6008592,14.6667405 49.5994678,14.6668951 C49.5275801,14.6713784 49.4413149,14.6733882 49.3409814,14.6733882 C48.9269702,14.6733882 48.6146839,14.5575949 48.41278,14.3292549 C48.2156687,14.1060166 48.1198184,13.7767247 48.1198184,13.3225182 L48.1198184,7.92785044 L49.6037965,7.92785044 L49.6037965,7.50147148 L48.1198184,7.50147148 L48.1198184,6.06155356 L47.5202906,6.277062 L47.5202906,8.39164192 Z M49.2112743,15.6070004 C48.4593138,15.6070004 47.9254898,15.4513211 47.5791922,15.1311504 C47.2324307,14.8108251 47.0564992,14.2938522 47.0564992,13.5944546 L47.0564992,7.92785044 L47.0628377,7.92785044 L47.0564992,5.95101659 L48.5836099,5.40173289 L48.5836099,7.03768001 L50.067588,7.03768001 L50.067588,8.39164192 L48.5836099,8.39164192 L48.5836099,13.3225182 C48.5836099,13.6539746 48.6431298,13.889426 48.7603144,14.022225 C48.870233,14.1465211 49.0656438,14.2095967 49.3409814,14.2095967 C49.4301839,14.2095967 49.5068641,14.2078962 49.5708673,14.2040312 C49.6373441,14.1998571 49.7189714,14.1938278 49.8159038,14.1857888 L50.067588,14.1641452 L50.067588,15.5029566 L49.881453,15.5405237 C49.7723074,15.5626311 49.6606883,15.5793275 49.5493783,15.5903039 C49.4391506,15.6014349 49.3253671,15.6070004 49.2112743,15.6070004 L49.2112743,15.6070004 Z" id="Fill-38" fill="#FEFEFE" mask="url(#mask-8)"></path>
                    <path d="M67.7032278,12.840237 C67.7032278,13.3142318 67.5228129,13.7110827 67.1622923,14.0304805 C66.8016172,14.3500328 66.3472561,14.5097317 65.7990546,14.5097317 C65.4116341,14.5097317 65.0900721,14.4149636 64.834523,14.2252729 C64.5789738,14.0355822 64.4512766,13.7718394 64.4512766,13.43389 C64.4512766,12.7743786 64.9374847,12.4118482 65.91021,12.3456806 L67.7032278,12.2281868 L67.7032278,12.840237 Z M68.1081178,9.13377011 C67.6692164,8.74032034 67.0437163,8.54351816 66.2317721,8.54351816 L64.2114964,8.54351816 L64.2114964,9.48609703 L66.1946687,9.48934357 C67.2003232,9.48934357 67.7032278,9.91386737 67.7032278,10.762915 L67.7032278,11.3687812 L65.7803484,11.4862751 C64.1606339,11.5810431 63.3506994,12.2385448 63.3506994,13.4586256 C63.3506994,14.0685114 63.5640435,14.5519367 63.9905771,14.9082831 C64.4171106,15.2649388 64.9540266,15.4430347 65.6011703,15.4430347 C66.0462555,15.4430347 66.4460437,15.3482666 66.800535,15.1588851 C67.1550263,14.9691944 67.4394851,14.697258 67.6537567,14.3427667 L67.7526989,14.3427667 L67.7526989,15.3255409 L68.7667016,15.3255409 L68.7667016,10.762915 C68.7667016,10.0704743 68.5471737,9.52752907 68.1081178,9.13377011 L68.1081178,9.13377011 Z" id="Fill-39" fill="#FEFEFE" mask="url(#mask-8)"></path>
                    <path d="M67.5486306,12.3932038 L65.9204134,12.4998759 C64.6058738,12.5893876 64.6058738,13.2249365 64.6058738,13.4337973 C64.6058738,13.7227394 64.7108452,13.9410306 64.9266629,14.1011932 C65.1537661,14.2697041 65.4471915,14.3550417 65.7990546,14.3550417 C66.3129356,14.3550417 66.7252462,14.2111118 67.0597944,13.914749 C67.3887772,13.6233334 67.5486306,13.2719341 67.5486306,12.8402988 L67.5486306,12.3932038 Z M65.7990546,14.6642361 C65.3794779,14.6642361 65.0239045,14.558337 64.7425376,14.3493216 C64.4466387,14.1299483 64.2966794,13.8218361 64.2966794,13.4337973 C64.2966794,12.9168244 64.5747997,12.2814301 65.899852,12.1912999 L67.857825,12.0631389 L67.857825,12.8402988 C67.857825,13.3581993 67.65824,13.7975644 67.2647903,14.146181 C66.8765968,14.4900051 66.3835865,14.6642361 65.7990546,14.6642361 L65.7990546,14.6642361 Z M64.3660936,9.33171631 L66.1949779,9.33480825 C67.5693467,9.33480825 67.857825,10.1113498 67.857825,10.7629768 L67.857825,11.5141644 L65.7897788,11.6406249 C64.2524647,11.7306004 63.5052966,12.3253357 63.5052966,13.4586874 C63.5052966,14.0259044 63.6963787,14.46125 64.0896738,14.7896144 C64.4857518,15.1207615 64.9942218,15.2884994 65.6011703,15.2884994 C66.018428,15.2884994 66.3973456,15.198833 66.7277197,15.0225923 C67.0557749,14.8471245 67.3227642,14.5914208 67.5214215,14.2627472 L67.5664093,14.1880768 L67.907296,14.1880768 L67.907296,15.1710055 L68.6121045,15.1710055 L68.6121045,10.7629768 C68.6121045,10.1105768 68.4134471,9.6152475 68.0048469,9.24885223 C67.5971742,8.88353915 67.0005837,8.69817716 66.2317721,8.69817716 L64.3660936,8.69817716 L64.3660936,9.33171631 Z M65.6011703,15.5976937 C64.919706,15.5976937 64.3442954,15.4055294 63.8914803,15.026921 C63.4300078,14.6415103 63.1961023,14.1138702 63.1961023,13.4586874 C63.1961023,12.1475489 64.0624647,11.4319187 65.7713817,11.3320489 L67.5486306,11.2235217 L67.5486306,10.7629768 C67.5486306,9.99957603 67.1183868,9.64400257 66.1946687,9.64400257 L64.0568992,9.64029224 L64.0568992,8.38898284 L66.2317721,8.38898284 C67.0791191,8.38898284 67.7451236,8.60093555 68.2113887,9.01881166 C68.6824462,9.4411711 68.9212988,10.0280219 68.9212988,10.7629768 L68.9212988,15.4801999 L67.5981017,15.4801999 L67.5981017,14.6925273 C67.3983622,14.9422017 67.1556447,15.1442602 66.8735049,15.2951471 C66.4976792,15.4958142 66.0697542,15.5976937 65.6011703,15.5976937 L65.6011703,15.5976937 Z" id="Fill-40" fill="#FEFEFE" mask="url(#mask-8)"></path>
                    <path d="M80.9985833,12.840237 C80.9985833,13.3142318 80.8181684,13.7110827 80.4576479,14.0304805 C80.0969727,14.3500328 79.6426117,14.5097317 79.0944101,14.5097317 C78.7069897,14.5097317 78.3854276,14.4149636 78.1298785,14.2252729 C77.8743294,14.0355822 77.7466321,13.7718394 77.7466321,13.43389 C77.7466321,12.7743786 78.2328402,12.4118482 79.2055655,12.3456806 L80.9985833,12.2281868 L80.9985833,12.840237 Z M81.4034733,9.13377011 C80.964572,8.74032034 80.3390719,8.54351816 79.5271276,8.54351816 L77.5068519,8.54351816 L77.5068519,9.48609703 L79.4900243,9.48934357 C80.4956788,9.48934357 80.9985833,9.91386737 80.9985833,10.762915 L80.9985833,11.3687812 L79.0757039,11.4862751 C77.4559895,11.5810431 76.646055,12.2385448 76.646055,13.4586256 C76.646055,14.0685114 76.859399,14.5519367 77.2859326,14.9082831 C77.7124662,15.2649388 78.2493821,15.4430347 78.8965258,15.4430347 C79.341611,15.4430347 79.7413992,15.3482666 80.0958905,15.1588851 C80.4503818,14.9691944 80.7348406,14.697258 80.9491122,14.3427667 L81.0480544,14.3427667 L81.0480544,15.3255409 L82.0620572,15.3255409 L82.0620572,10.762915 C82.0620572,10.0704743 81.8425292,9.52752907 81.4034733,9.13377011 L81.4034733,9.13377011 Z" id="Fill-41" fill="#FEFEFE" mask="url(#mask-8)"></path>
                    <path d="M80.8439862,12.3932038 L79.2157689,12.4998759 C77.9012293,12.5893876 77.9012293,13.2249365 77.9012293,13.4337973 C77.9012293,13.7227394 78.0062008,13.9410306 78.2220184,14.1011932 C78.4491216,14.2697041 78.742547,14.3550417 79.0944101,14.3550417 C79.6082911,14.3550417 80.0206017,14.2111118 80.35515,13.914749 C80.6841327,13.6233334 80.8439862,13.2719341 80.8439862,12.8402988 L80.8439862,12.3932038 Z M79.0944101,14.6642361 C78.6748335,14.6642361 78.31926,14.558337 78.0378932,14.3493216 C77.7419942,14.1299483 77.592035,13.8218361 77.592035,13.4337973 C77.592035,12.9168244 77.8701553,12.2814301 79.1952075,12.1912999 L81.1531805,12.0631389 L81.1531805,12.8402988 C81.1531805,13.3581993 80.9535956,13.7975644 80.5601458,14.146181 C80.1719523,14.4900051 79.678942,14.6642361 79.0944101,14.6642361 L79.0944101,14.6642361 Z M77.6614491,9.33171631 L79.4903335,9.33480825 C80.8647022,9.33480825 81.1531805,10.1113498 81.1531805,10.7629768 L81.1531805,11.5141644 L79.0851343,11.6406249 C77.5478202,11.7306004 76.8006521,12.3253357 76.8006521,13.4586874 C76.8006521,14.0259044 76.9917342,14.46125 77.3850294,14.7896144 C77.7809527,15.1207615 78.2895773,15.2884994 78.8965258,15.2884994 C79.3137835,15.2884994 79.6927011,15.198833 80.0230753,15.0225923 C80.3511304,14.8471245 80.6181197,14.5914208 80.8167771,14.2627472 L80.8617648,14.1880768 L81.2026516,14.1880768 L81.2026516,15.1710055 L81.90746,15.1710055 L81.90746,10.7629768 C81.90746,10.1105768 81.7088027,9.6152475 81.3002024,9.24885223 C80.8925297,8.88353915 80.2959392,8.69817716 79.5271276,8.69817716 L77.6614491,8.69817716 L77.6614491,9.33171631 Z M78.8965258,15.5976937 C78.2150615,15.5976937 77.6396509,15.4055294 77.1868358,15.026921 C76.7253633,14.6415103 76.4914578,14.1138702 76.4914578,13.4586874 C76.4914578,12.1475489 77.3578203,11.4319187 79.0667373,11.3320489 L80.8439862,11.2235217 L80.8439862,10.7629768 C80.8439862,9.99957603 80.4137423,9.64400257 79.4900243,9.64400257 L77.3522548,9.64029224 L77.3522548,8.38898284 L79.5271276,8.38898284 C80.3744746,8.38898284 81.0404792,8.60093555 81.5067442,9.01881166 C81.9778017,9.4411711 82.2166543,10.0280219 82.2166543,10.7629768 L82.2166543,15.4801999 L80.8934573,15.4801999 L80.8934573,14.6925273 C80.6937177,14.9422017 80.4510002,15.1442602 80.1688604,15.2951471 C79.7930347,15.4958142 79.3651098,15.5976937 78.8965258,15.5976937 L78.8965258,15.5976937 Z" id="Fill-42" fill="#FEFEFE" mask="url(#mask-8)"></path>
                    <path d="M83.9825867,13.6298265 L83.9825867,13.8056034 L83.9825867,13.9541713 L83.9825867,14.1297937 L84.3041488,14.1297937 C84.3880951,14.1297937 84.4528713,14.1083047 84.4984775,14.0650175 C84.5440836,14.0218849 84.5668094,13.9602006 84.5668094,13.8798101 C84.5668094,13.8012747 84.5430014,13.7400542 84.4952309,13.6959941 C84.447615,13.6519339 84.3814474,13.6298265 84.2968828,13.6298265 L83.9825867,13.6298265 Z M83.9825867,14.2748058 L83.9825867,14.5334469 L83.9825867,14.7920879 L83.8194867,14.7920879 L83.8194867,13.4849689 L84.318681,13.4849689 C84.4448322,13.4849689 84.5459388,13.5203717 84.6216914,13.5913318 C84.697444,13.6622919 84.7353203,13.7565961 84.7353203,13.8743992 C84.7353203,13.9656115 84.7121307,14.0444561 84.665597,14.1107782 C84.6190632,14.177255 84.5547508,14.2234796 84.4726597,14.2494519 L84.7752064,14.7920879 L84.5841243,14.7920879 L84.3041488,14.2748058 L83.9825867,14.2748058 Z" id="Fill-43" fill="#FEFEFE" mask="url(#mask-8)"></path>
                    <path d="M84.2597794,13.2045297 C83.6771028,13.2045297 83.2032625,13.67837 83.2032625,14.2608921 C83.2032625,14.8435688 83.6771028,15.317409 84.2597794,15.317409 C84.8423015,15.317409 85.3161418,14.8435688 85.3161418,14.2608921 C85.3161418,13.67837 84.8423015,13.2045297 84.2597794,13.2045297 M84.2597794,15.4720062 C83.5920743,15.4720062 83.0486653,14.9285972 83.0486653,14.2608921 C83.0486653,13.593187 83.5920743,13.0499325 84.2597794,13.0499325 C84.9274846,13.0499325 85.470739,13.593187 85.470739,14.2608921 C85.470739,14.9285972 84.9274846,15.4720062 84.2597794,15.4720062" id="Fill-44" fill="#FEFEFE" mask="url(#mask-8)"></path>
                </g>
            </g>
        </g>
    </g>
</svg>