<?xml version="1.0" encoding="UTF-8"?>
<svg width="65px" height="558px" viewBox="0 0 65 558" version="1.1" xmlns="http://www.w3.org/2000/svg" xmlns:xlink="http://www.w3.org/1999/xlink">
    <!-- Generator: Sketch 46.2 (44496) - http://www.bohemiancoding.com/sketch -->
    <title>Group 22</title>
    <desc>Created with Sketch.</desc>
    <defs></defs>
    <g id="DR.JUANRIESTRA-All-web" stroke="none" stroke-width="1" fill="none" fill-rule="evenodd">
        <g id="MODAL" transform="translate(0.000000, -216.000000)">
            <g id="Group-22" transform="translate(-5.000000, 216.000000)">
                <g id="POP_UP-Mensaje-enviado" fill="#B0E1F4">
                    <rect id="Rectangle-5" x="0" y="0" width="70" height="558" rx="8"></rect>
                </g>
                <text id="MASTERS" transform="translate(33.000000, 257.500000) rotate(90.000000) translate(-33.000000, -257.500000) " font-family="Aspira-Demi, Aspira" font-size="24" font-weight="500" letter-spacing="3" fill="#FFFFFF">
                    <tspan x="-34.5" y="264.5">MASTERS</tspan>
                    <tspan x="93.7475248" y="264.5"> </tspan>
                </text>
                <g id="Page-1" transform="translate(35.000000, 350.596814) rotate(-270.000000) translate(-35.000000, -350.596814) translate(19.500000, 332.596814)" fill="#FFFFFF">
                    <path d="M29.0760816,5.28694783 C28.6060258,8.18439099 27.0369289,10.807193 24.7579089,12.6128215 C25.3377285,10.4835439 25.6437346,8.15542218 25.6437346,5.75178467 L25.6437346,4.21882855 L28.1527327,4.21882855 C28.4288607,4.21882855 28.6899092,4.33990691 28.8691785,4.55105576 C29.0457124,4.7593218 29.1192156,5.02060356 29.0760816,5.28694783 L29.0760816,5.28694783 Z M15.3754498,20.8390485 C13.1593423,20.8390485 11.0430393,19.3276784 9.4162199,16.5834465 C7.70902391,13.7034408 6.76870196,9.85663644 6.76870196,5.75185498 L6.76870196,1.76562064 C6.76870196,1.71084709 6.81316859,1.66633919 6.8677349,1.66633919 L23.8822529,1.66633919 C23.9370296,1.66633919 23.9814261,1.7109174 23.9814261,1.76562064 L23.9814261,5.75178467 C23.9814261,9.85649581 23.0412444,13.7033002 21.3339783,16.5833761 C19.7073693,19.3276784 17.5912066,20.8390485 15.3754498,20.8390485 L15.3754498,20.8390485 Z M17.7742632,26.0389493 L13.0630447,26.0389493 C13.2685451,25.812191 13.456371,25.5665187 13.6242781,25.3034791 C14.1781472,24.4358915 14.4688635,23.4501786 14.481909,22.4435829 C14.7771141,22.483872 15.0750545,22.5055283 15.3755199,22.5055283 C15.7023567,22.5055283 16.0263178,22.4802861 16.3471228,22.4326844 C16.3659896,23.7854293 16.8912429,25.0658927 17.7742632,26.0389493 L17.7742632,26.0389493 Z M10.8834083,30.69456 L19.9460443,30.69456 L19.9460443,27.7052885 L10.8834083,27.7052885 L10.8834083,30.69456 Z M23.9814962,33.1940336 L23.9814962,34.3336608 L6.84795636,34.3336608 L6.84795636,33.1940336 C6.84795636,32.7346108 7.22080275,32.3608991 7.67907556,32.3608991 L23.1504472,32.3608991 C23.60872,32.3608991 23.9814962,32.7346108 23.9814962,33.1940336 L23.9814962,33.1940336 Z M1.67397632,5.28694783 C1.63077215,5.02060356 1.70420522,4.7593218 1.88080928,4.55105576 C2.0600084,4.3398366 2.32105698,4.21882855 2.59725507,4.21882855 L5.10646356,4.21882855 L5.10646356,5.75178467 C5.10646356,8.15549249 5.41246972,10.4838252 5.99242961,12.6131028 C3.71319917,10.8074742 2.14403209,8.18453161 1.67397632,5.28694783 L1.67397632,5.28694783 Z M30.1353553,3.47161616 C29.6397698,2.88745876 28.917152,2.55248936 28.1527327,2.55248936 L25.6437346,2.55248936 L25.6437346,1.76576126 C25.6437346,0.79207186 24.8535051,0 23.8823932,0 L6.86780503,0 C5.89662296,0 5.10660383,0.79207186 5.10660383,1.76562064 L5.10660383,2.55241905 L2.59725507,2.55241905 C1.83276568,2.55241905 1.11014786,2.88738845 0.61463249,3.47154584 C0.124237093,4.04958603 -0.0877158375,4.80875158 0.0333400057,5.55448741 C0.692624435,9.61855785 3.24384477,13.208932 6.86457875,15.1783187 C7.19541328,15.9757343 7.57015336,16.7310327 7.9873261,17.4347216 C9.32006256,19.6829681 10.9768303,21.2367368 12.8005934,21.9881679 C12.9854736,23.8615779 11.7419509,25.6363391 9.8693026,26.0592696 C9.86537495,26.0601134 9.86249935,26.06159 9.85864183,26.062504 C9.49308966,26.1501136 9.22109976,26.4788955 9.22109976,26.8720134 L9.22109976,30.6944193 L7.67907556,30.6944193 C6.30425712,30.6944193 5.1857881,31.815695 5.1857881,33.1939633 L5.1857881,35.1667952 C5.1857881,35.6269211 5.55786298,36 6.0169073,36 L24.8126154,36 C25.2716597,36 25.6437346,35.6269211 25.6437346,35.1667952 L25.6437346,33.1939633 C25.6437346,31.815695 24.5251955,30.6944193 23.1504472,30.6944193 L21.6082126,30.6944193 L21.6082126,26.8720134 C21.6082126,26.478122 21.3352407,26.1488479 20.9687067,26.0620118 C20.96527,26.0611681 20.9620437,26.0599728 20.958607,26.0591993 C19.0717209,25.633386 17.826024,23.8408356 18.0302619,21.9532929 C19.8221128,21.1897679 21.449844,19.6497806 22.7629422,17.4347216 C23.1801851,16.7309624 23.554855,15.9755937 23.8856896,15.1780375 C27.5062833,13.2085805 30.0573633,9.61834691 30.7167179,5.5544171 C30.8376335,4.80875158 30.6257507,4.04965635 30.1353553,3.47161616 L30.1353553,3.47161616 Z" id="Fill-1"></path>
                </g>
            </g>
        </g>
    </g>
</svg>