<?xml version="1.0" encoding="UTF-8"?>
<svg width="15px" height="15px" viewBox="0 0 15 15" version="1.1" xmlns="http://www.w3.org/2000/svg" xmlns:xlink="http://www.w3.org/1999/xlink">
    <!-- Generator: Sketch 46.2 (44496) - http://www.bohemiancoding.com/sketch -->
    <title>Page 1</title>
    <desc>Created with Sketch.</desc>
    <defs>
        <polygon id="path-1" points="14.8324648 7.41627465 14.8324648 14.8325704 0 14.8325704 0 7.41627465 0 -2.11267606e-05 14.8324648 -2.11267606e-05 14.8324648 7.41627465"></polygon>
    </defs>
    <g id="Symbols" stroke="none" stroke-width="1" fill="none" fill-rule="evenodd">
        <g id="footer-web" transform="translate(-59.000000, -354.000000)">
            <g id="Page-1" transform="translate(59.000000, 354.000000)">
                <mask id="mask-2" fill="white">
                    <use xlink:href="#path-1"></use>
                </mask>
                <g id="Clip-2"></g>
                <path d="M9.77239437,13.8187817 C10.1142254,13.4881479 10.4311268,13.0808239 10.7148592,12.6012465 C11.0402113,12.0513169 11.3076761,11.4304014 11.5119718,10.759838 L13.3624648,10.759838 C13.0605634,11.2949789 12.6840845,11.7918803 12.2380986,12.2380775 C11.5278169,12.9483592 10.6880282,13.4822324 9.77239437,13.8187817 L9.77239437,13.8187817 Z M2.5943662,12.2380775 C2.14838028,11.7918803 1.77190141,11.2949789 1.47,10.759838 L3.44852113,10.759838 C3.65323944,11.4304014 3.92049296,12.0513169 4.24584507,12.6012465 C4.55028169,13.1161056 4.89316901,13.5477254 5.2643662,13.8904014 C4.26908451,13.5606127 3.35746479,13.0009648 2.5943662,12.2380775 L2.5943662,12.2380775 Z M2.5943662,2.59455634 C3.35746479,1.83166901 4.26908451,1.27180986 5.2643662,0.942232394 C4.89316901,1.28490845 4.55028169,1.71652817 4.24584507,2.23117606 C3.92049296,2.7813169 3.65323944,3.40202113 3.44852113,4.07258451 L1.47,4.07258451 C1.77190141,3.5378662 2.14838028,3.04054225 2.5943662,2.59455634 L2.5943662,2.59455634 Z M12.2380986,2.59455634 C12.6840845,3.04054225 13.0605634,3.5378662 13.3624648,4.07258451 L11.5119718,4.07258451 C11.3076761,3.40202113 11.0402113,2.7813169 10.7148592,2.23117606 C10.4311268,1.75180986 10.1142254,1.34448592 9.77239437,1.01385211 C10.6880282,1.35019014 11.5278169,1.88427465 12.2380986,2.59455634 L12.2380986,2.59455634 Z M11.9860563,7.71483803 L14.2284507,7.71483803 C14.1919014,8.57026056 13.9983803,9.39716197 13.6614085,10.1625845 L11.6744366,10.1625845 C11.8597183,9.39061268 11.9657746,8.56540141 11.9860563,7.71483803 L11.9860563,7.71483803 Z M2.97464789,7.11758451 L0.604225352,7.11758451 C0.64056338,6.26216197 0.834084507,5.43526056 1.17105634,4.66983803 L3.28647887,4.66983803 C3.10119718,5.44202113 2.99492958,6.26723239 2.97464789,7.11758451 L2.97464789,7.11758451 Z M14.2284507,7.11758451 L11.9860563,7.11758451 C11.9657746,6.26723239 11.8597183,5.44202113 11.6744366,4.66983803 L13.6614085,4.66983803 C13.9983803,5.43526056 14.1919014,6.26216197 14.2284507,7.11758451 L14.2284507,7.11758451 Z M11.0596479,4.66983803 C11.2552817,5.43547183 11.3674648,6.2619507 11.3885915,7.11758451 L3.57211268,7.11758451 C3.59323944,6.2619507 3.7056338,5.43547183 3.90105634,4.66983803 L11.0596479,4.66983803 Z M7.45690141,0.597866197 C7.49366197,0.598077465 7.53042254,0.598288732 7.56697183,0.599133803 C8.55021127,0.636950704 9.48253521,1.32124648 10.2008451,2.53540141 C10.4742254,2.99744366 10.703662,3.5150493 10.8861972,4.07258451 L4.07450704,4.07258451 C4.25704225,3.5150493 4.48626761,2.99744366 4.75985915,2.53540141 C5.49359155,1.29526056 6.4506338,0.608429577 7.45690141,0.597866197 L7.45690141,0.597866197 Z M0.604225352,7.71483803 L2.97464789,7.71483803 C2.99492958,8.56540141 3.10119718,9.39061268 3.28647887,10.1625845 L1.17105634,10.1625845 C0.834084507,9.39716197 0.64056338,8.57026056 0.604225352,7.71483803 L0.604225352,7.71483803 Z M3.90105634,10.1625845 C3.7056338,9.3969507 3.59323944,8.57047183 3.57211268,7.71483803 L11.3885915,7.71483803 C11.3674648,8.57047183 11.2552817,9.3969507 11.0596479,10.1625845 L3.90105634,10.1625845 Z M7.56697183,14.2335 C7.53042254,14.2343451 7.49366197,14.2345563 7.45690141,14.2347676 C6.45042254,14.2242042 5.49359155,13.5373732 4.75985915,12.2972324 C4.48626761,11.8349789 4.25704225,11.3175845 4.07450704,10.759838 L10.8861972,10.759838 C10.703662,11.3175845 10.4742254,11.8349789 10.2008451,12.2972324 C9.48253521,13.5113873 8.55021127,14.1954718 7.56697183,14.2335 L7.56697183,14.2335 Z M14.8324648,7.4163169 C14.8324648,5.43526056 14.0611268,3.57293662 12.6604225,2.17223239 C11.298169,0.809978873 9.49922535,0.0430774648 7.57922535,0.0020915493 C7.54647887,0.000823943662 7.51352113,-2.11267606e-05 7.48035211,-2.11267606e-05 C7.47232394,-2.11267606e-05 7.46429577,0.000401408451 7.45605634,0.000612676056 C7.44295775,0.000401408451 7.42964789,-2.11267606e-05 7.41633803,-2.11267606e-05 C5.43528169,-2.11267606e-05 3.57295775,0.771316901 2.17204225,2.17223239 C0.771549296,3.57293662 0,5.43526056 0,7.4163169 C0,9.39716197 0.771549296,11.2596972 2.17204225,12.6604014 C3.57295775,14.0611056 5.43528169,14.8326549 7.41633803,14.8326549 C7.42964789,14.8326549 7.44295775,14.8322324 7.45605634,14.8320211 C7.46429577,14.8322324 7.47232394,14.8326549 7.48035211,14.8326549 C7.51352113,14.8326549 7.54647887,14.8318099 7.57922535,14.8305423 C9.49922535,14.7895563 11.298169,14.0226549 12.6604225,12.6604014 C14.0611268,11.2596972 14.8324648,9.39716197 14.8324648,7.4163169 L14.8324648,7.4163169 Z" id="Fill-1" fill="#FEFEFE" mask="url(#mask-2)"></path>
            </g>
        </g>
    </g>
</svg>