<?xml version="1.0" encoding="UTF-8"?>
<svg width="13px" height="13px" viewBox="0 0 13 13" version="1.1" xmlns="http://www.w3.org/2000/svg" xmlns:xlink="http://www.w3.org/1999/xlink">
    <!-- Generator: Sketch 46.2 (44496) - http://www.bohemiancoding.com/sketch -->
    <title>INSTAGRAM</title>
    <desc>Created with Sketch.</desc>
    <defs>
        <polygon id="path-1" points="5.78382938e-05 12.4352332 12.3928666 12.4352332 12.3928666 0.144219786 5.78382938e-05 0.144219786"></polygon>
    </defs>
    <g id="Symbols" stroke="none" stroke-width="1" fill="none" fill-rule="evenodd">
        <g id="HEADER" transform="translate(-738.000000, -88.000000)">
            <g id="REDES" transform="translate(695.000000, 86.000000)">
                <g id="INSTAGRAM" transform="translate(43.264249, 2.331606)">
                    <g id="Group-16">
                        <g id="Group-3">
                            <mask id="mask-2" fill="white">
                                <use xlink:href="#path-1"></use>
                            </mask>
                            <g id="Clip-2"></g>
                            <path d="M3.34166526,1.01598747 C1.97971804,1.01598747 0.871825521,2.12387999 0.871825521,3.48568261 L0.871825521,9.09368358 C0.871825521,10.4554862 1.97971804,11.5633787 3.34166526,11.5633787 L9.05117243,11.5633787 C10.4131197,11.5633787 11.5210122,10.4554862 11.5210122,9.09368358 L11.5210122,3.48568261 C11.5210122,2.12387999 10.4131197,1.01598747 9.05117243,1.01598747 L3.34166526,1.01598747 Z M9.05117243,12.435291 L3.34166526,12.435291 C1.49908182,12.435291 5.78382938e-05,10.9361224 5.78382938e-05,9.09368358 L5.78382938e-05,3.48568261 C5.78382938e-05,1.64324376 1.49908182,0.144219786 3.34166526,0.144219786 L9.05117243,0.144219786 C10.8937559,0.144219786 12.3929244,1.64324376 12.3929244,3.48568261 L12.3929244,9.09368358 C12.3929244,10.9361224 10.8937559,12.435291 9.05117243,12.435291 L9.05117243,12.435291 Z" id="Fill-1" fill="#FEFEFE" mask="url(#mask-2)"></path>
                        </g>
                        <path d="M6.42487047,3.81479914 C4.9856138,3.81479914 3.81491135,4.98555193 3.81491135,6.42471899 C3.81491135,7.86403753 4.9856138,9.03494179 6.42487047,9.03494179 C7.86412713,9.03494179 9.03482959,7.86403753 9.03482959,6.42471899 C9.03482959,4.98555193 7.86412713,3.81479914 6.42487047,3.81479914 M6.42487047,9.94818653 C4.48213147,9.94818653 2.9015544,8.36769299 2.9015544,6.42471899 C2.9015544,4.48204795 4.48213147,2.9015544 6.42487047,2.9015544 C8.36760946,2.9015544 9.94818653,4.48204795 9.94818653,6.42471899 C9.94818653,8.36769299 8.36760946,9.94818653 6.42487047,9.94818653" id="Fill-4" fill="#FEFEFE"></path>
                        <path d="M10.3626943,2.48704663 C10.3626943,2.9449214 9.99159456,3.31606218 9.53377043,3.31606218 C9.07576295,3.31606218 8.70466321,2.9449214 8.70466321,2.48704663 C8.70466321,2.02917187 9.07576295,1.65803109 9.53377043,1.65803109 C9.99159456,1.65803109 10.3626943,2.02917187 10.3626943,2.48704663" id="Fill-6" fill="#FEFEFE"></path>
                    </g>
                </g>
            </g>
        </g>
    </g>
</svg>