<?xml version="1.0" encoding="UTF-8"?>
<svg width="85px" height="16px" viewBox="0 0 85 16" version="1.1" xmlns="http://www.w3.org/2000/svg" xmlns:xlink="http://www.w3.org/1999/xlink">
    <!-- Generator: Sketch 46.2 (44496) - http://www.bohemiancoding.com/sketch -->
    <title>INTERMED</title>
    <desc>Created with Sketch.</desc>
    <defs>
        <polygon id="path-1" points="0.11321364 9.19319023 12.6650592 9.19319023 12.6650592 0.117519615 0.11321364 0.117519615 0.11321364 9.19319023"></polygon>
        <polygon id="path-3" points="0 11.9170984 64.4464313 11.9170984 64.4464313 0.0108956329 0 0.0108956329"></polygon>
        <polygon id="path-5" points="11.5816792 7.43876797 11.5816792 14.8774046 0 14.8774046 0 7.43876797 0 0.000131358097 11.5816792 0.000131358097"></polygon>
    </defs>
    <g id="Symbols" stroke="none" stroke-width="1" fill="none" fill-rule="evenodd">
        <g id="HEADER" transform="translate(-910.000000, -88.000000)">
            <g id="REDES" transform="translate(695.000000, 86.000000)">
                <g id="INTERMED" transform="translate(215.284974, 2.331606)">
                    <g transform="translate(20.207254, 1.554404)">
                        <g id="Page-1" transform="translate(0.000000, 3.108808)" fill="#FFFFFF">
                            <polygon id="Fill-1" points="0 8.5492228 2.33160622 8.5492228 2.33160622 0 0 0"></polygon>
                        </g>
                        <path d="M2.83457485,2.83320503 L4.64145921,2.83320503 L4.64145921,4.38174685 L4.67479656,4.41596595 C4.96483151,3.92634345 5.34404386,3.54159141 5.81226694,3.26290155 C6.28082339,2.98353072 6.79938587,2.84410067 7.36812106,2.84410067 C8.3160686,2.84410067 9.06349199,3.09470022 9.61022453,3.59623982 C10.1566237,4.09709845 10.4294899,4.8492376 10.4294899,5.85163583 L10.4294899,11.9170984 L8.5224268,11.9170984 L8.5224268,6.36407106 C8.49992409,5.66964471 8.3550733,5.16487047 8.08804113,4.85196151 C7.81984215,4.53837158 7.40195847,4.38174685 6.83272322,4.38174685 C6.50935093,4.38174685 6.2191493,4.44150259 5.96295176,4.56118431 C5.70642085,4.68069578 5.48889465,4.84617321 5.31053982,5.05710585 C5.13168494,5.26786825 4.99266819,5.51557365 4.89232277,5.80005181 C4.79181066,6.08521095 4.74163795,6.38722428 4.74163795,6.70592154 L4.74163795,11.9170984 L2.83457485,11.9170984 L2.83457485,2.83320503 Z" id="Fill-2" fill="#FFFFFF"></path>
                        <path d="M21.7439197,6.62296151 C21.7220838,6.32299112 21.6595763,6.03459734 21.5562305,5.75692894 C21.4528847,5.47977128 21.311701,5.23802443 21.1328461,5.03305033 C20.9534912,4.82739526 20.735965,4.66123686 20.4804342,4.53355366 C20.2252368,4.40570022 19.9397024,4.34168838 19.624331,4.34168838 C19.2984584,4.34168838 19.0027562,4.39991192 18.736224,4.51652924 C18.4698586,4.63314656 18.2416645,4.79436788 18.0518082,4.99968246 C17.8612853,5.20516728 17.709267,5.44657365 17.5952532,5.72373131 C17.4812395,6.00156995 17.4183986,6.30119985 17.4078973,6.62296151 L21.7439197,6.62296151 Z M17.4078973,7.87136269 C17.4078973,8.20470096 17.4542363,8.52629238 17.5462473,8.83698816 C17.6385918,9.14819467 17.7769418,9.41990452 17.9622975,9.65296891 C18.146653,9.88603331 18.3803478,10.0717698 18.6632152,10.2105189 C18.9454159,10.3496084 19.2824565,10.4187276 19.6736703,10.4187276 C20.2169024,10.4187276 20.6541218,10.2992161 20.9861618,10.0605337 C21.3168683,9.82219171 21.5645648,9.46450851 21.7275844,8.98680311 L23.4881299,8.98680311 C23.3897847,9.45344264 23.2212644,9.86917913 22.9827357,10.2358853 C22.7433735,10.6020807 22.4556722,10.9098823 22.1187982,11.1594604 C21.782091,11.409379 21.4043788,11.5981799 20.9861618,11.7256928 C20.5674447,11.8528653 20.1300586,11.9170474 19.6736703,11.9170474 C19.0105904,11.9170474 18.4236864,11.8060481 17.9132916,11.5845603 C17.4023967,11.3622213 16.9701779,11.0513553 16.6171354,10.6516218 C16.2637595,10.252399 15.9977274,9.77503405 15.8185392,9.22003775 C15.6388509,8.6652117 15.5493401,8.05454552 15.5493401,7.38854996 C15.5493401,6.77856477 15.6443515,6.19803183 15.8348745,5.64899408 C16.0247307,5.0994456 16.2962634,4.61646262 16.6501394,4.20038564 C17.0028485,3.78379793 17.4293999,3.45403479 17.9291268,3.20990452 C18.4288537,2.965604 18.9942551,2.84353886 19.624331,2.84353886 C20.2875776,2.84353886 20.8823159,2.98552258 21.4098795,3.2682983 C21.9366096,3.55124426 22.3739957,3.92544115 22.7215375,4.39191044 C23.0694128,4.85803923 23.3222766,5.39362768 23.4796289,5.99850555 C23.6369812,6.60338342 23.6778194,7.22800962 23.6019769,7.87136269 L17.4078973,7.87136269 Z" id="Fill-4" fill="#FFFFFF"></path>
                        <path d="M24.3366821,2.83311991 L26.1282313,2.83311991 L26.1282313,4.78258697 L26.1620687,4.78258697 C26.2177421,4.54339378 26.3265885,4.30930792 26.4884414,4.08135085 C26.6497942,3.85356403 26.8453177,3.64535529 27.074512,3.45740563 C27.3032062,3.26945596 27.5570701,3.11810881 27.8359371,3.00353442 C28.1149707,2.89015174 28.400005,2.83311991 28.6898733,2.83311991 C28.9134002,2.83311991 29.0669187,2.8392487 29.1509288,2.84997409 C29.2342722,2.86172095 29.3204493,2.87312731 29.4101267,2.88419319 L29.4101267,4.76556255 C29.2764439,4.74292006 29.1394274,4.72283124 28.9999106,4.70563657 C28.8602271,4.68827165 28.7237107,4.67992968 28.5895279,4.67992968 C28.2659889,4.67992968 27.9617856,4.74581421 27.6772513,4.87639156 C27.3922169,5.00764989 27.1443537,5.20121762 26.9318281,5.45828645 C26.7196359,5.71467432 26.5526158,6.03064767 26.429601,6.40705774 C26.3065861,6.78295707 26.2454121,7.2169097 26.2454121,7.70670244 L26.2454121,11.9136084 L24.3366821,11.9136084 L24.3366821,2.83311991 Z" id="Fill-6" fill="#FFFFFF"></path>
                        <g id="Group-10" transform="translate(30.170302, 2.723908)">
                            <mask id="mask-2" fill="white">
                                <use xlink:href="#path-1"></use>
                            </mask>
                            <g id="Clip-9"></g>
                            <path d="M0.11321364,0.117519615 L1.92126481,0.117519615 L1.92126481,1.58740859 L1.97143752,1.58740859 C2.11595493,1.37085788 2.27264048,1.17133161 2.43999398,0.989170244 C2.60734747,0.807008882 2.79353657,0.653108068 2.99989477,0.52780829 C3.2070864,0.402508512 3.44394827,0.302404885 3.7114805,0.228859363 C3.98001285,0.154632865 4.28654979,0.117519615 4.63259148,0.117519615 C5.15715468,0.117519615 5.64521348,0.237201332 6.09693457,0.476224278 C6.54832229,0.715757957 6.86969434,1.08603923 7.05871711,1.58740859 C7.38258947,1.13183494 7.75630116,0.772619541 8.17985219,0.51061362 C8.60423666,0.248437454 9.13363377,0.117519615 9.77054384,0.117519615 C10.684654,0.117519615 11.3957396,0.345476684 11.9038009,0.801390822 C12.4110286,1.25713472 12.6650592,2.02068024 12.6650592,3.09117617 L12.6650592,9.1932413 L10.7571627,9.1932413 L10.7571627,4.03143523 C10.7571627,3.67851887 10.7463281,3.35624648 10.7233253,3.06598001 C10.7013226,2.77503257 10.6369816,2.52494375 10.5311355,2.31367061 C10.424956,2.10307846 10.2667703,1.94066543 10.0545781,1.82694226 C9.84305258,1.71287861 9.55251757,1.65550629 9.18463992,1.65550629 C8.53689521,1.65550629 8.06883882,1.86082087 7.7784705,2.27127979 C7.48843555,2.68105774 7.34391814,3.26227165 7.34391814,4.0147513 L7.34391814,9.1932413 L5.43552155,9.1932413 L5.43552155,3.51865951 C5.43552155,2.90356699 5.32634173,2.43897039 5.10931558,2.12589119 C4.89228943,1.81230126 4.49290798,1.65550629 3.91217135,1.65550629 C3.66697514,1.65550629 3.42977989,1.70692006 3.20125236,1.80940711 C2.97172471,1.91223464 2.77186729,2.06034715 2.59884645,2.25391488 C2.42565891,2.44782309 2.28614211,2.68684604 2.18046271,2.97200518 C2.07444993,3.25665359 2.0207768,3.58164989 2.0207768,3.94614286 L2.0207768,9.1932413 L0.11321364,9.1932413 L0.11321364,0.117519615 Z" id="Fill-8" fill="#FFFFFF" mask="url(#mask-2)"></path>
                        </g>
                        <path d="M49.7100225,6.62071429 C49.6876865,6.32091414 49.625679,6.03252036 49.5228333,5.75485196 C49.4189874,5.4776943 49.2778038,5.23611769 49.0986155,5.0311436 C48.9199273,4.82565877 48.701901,4.65950037 48.4472037,4.53181717 C48.192173,4.40396373 47.9063052,4.34012213 47.5914339,4.34012213 C47.2650613,4.34012213 46.9695256,4.39834567 46.7031602,4.51479275 C46.4366281,4.63123982 46.2086006,4.79246114 46.0185777,4.99794597 C45.8290549,5.20326055 45.6760365,5.44466691 45.561856,5.72165433 C45.4483424,5.99949297 45.3863349,6.29895263 45.3746668,6.62071429 L49.7100225,6.62071429 Z M45.3746668,7.86894523 C45.3746668,8.20211325 45.4213391,8.52370466 45.5138503,8.8342302 C45.6056947,9.14543671 45.743878,9.41697631 45.9287336,9.65004071 C46.1135892,9.88310511 46.3469506,10.0686714 46.6296514,10.2074204 C46.9125188,10.34651 47.248726,10.4156292 47.6402731,10.4156292 C48.1833386,10.4156292 48.6205579,10.2961177 48.9519312,10.0576055 C49.282971,9.81926351 49.5306676,9.46158031 49.6936872,8.98404515 L51.4533992,8.98404515 C51.3563875,9.45068468 51.1873672,9.86608068 50.948505,10.2327868 C50.7096429,10.5989822 50.4216082,10.9066136 50.084901,11.1561917 C49.7481938,11.40594 49.3701482,11.5947409 48.9519312,11.7222539 C48.5337141,11.8494264 48.0969948,11.9136084 47.6402731,11.9136084 C46.9776933,11.9136084 46.3902892,11.8026092 45.8802277,11.5811214 C45.3691662,11.3589526 44.9374475,11.0480866 44.5845716,10.6485233 C44.2315291,10.2493005 43.9648303,9.7719356 43.7854754,9.21727979 C43.6067872,8.66245374 43.516943,8.05195781 43.516943,7.38613249 C43.516943,6.7761473 43.6117878,6.1957846 43.8023107,5.64708734 C43.992667,5.09753886 44.2636996,4.61455588 44.6165755,4.19864915 C44.9697847,3.78223168 45.3970029,3.45263879 45.896063,3.20850851 C46.3957899,2.96420799 46.9615247,2.8423131 47.5914339,2.8423131 C48.2540137,2.8423131 48.8490854,2.98412657 49.3761489,3.26690229 C49.9027124,3.54950777 50.3399317,3.92387491 50.687807,4.39017395 C51.0355155,4.85613249 51.2875459,5.39172095 51.4453982,5.99642857 C51.6024172,6.60130644 51.6442555,7.22559215 51.5680797,7.86894523 L45.3746668,7.86894523 Z" id="Fill-11" fill="#FFFFFF"></path>
                        <path d="M54.160592,7.46919467 C54.160592,7.83539008 54.2070976,8.19630792 54.2994421,8.55092672 C54.3912865,8.90690748 54.5326369,9.22288083 54.7226598,9.50037898 C54.9128493,9.7773664 55.1543784,9.99953516 55.4482472,10.166034 C55.7414492,10.3323627 56.0888244,10.4156121 56.4907061,10.4156121 C56.9042559,10.4156121 57.2599655,10.3269149 57.5585014,10.1490096 C57.8573708,9.97212583 58.1015669,9.73906144 58.2925899,9.45066765 C58.4817793,9.16142265 58.6232964,8.83710733 58.7159742,8.47635973 C58.808152,8.11578238 58.8543242,7.74652258 58.8543242,7.36943153 C58.8543242,6.41487195 58.644799,5.671245 58.2262485,5.13872095 C57.8088649,4.60653738 57.2411299,4.33976462 56.5238768,4.33976462 C56.0888244,4.33976462 55.7227803,4.43101554 55.4230775,4.61436862 C55.1250416,4.79789193 54.8805121,5.03640415 54.6906559,5.33075648 C54.5001329,5.62476832 54.3646166,5.95759585 54.2831068,6.32923908 C54.2010969,6.70071207 54.160592,7.08086751 54.160592,7.46919467 L54.160592,7.46919467 Z M60.647707,11.9135914 L58.8868281,11.9135914 L58.8868281,10.5157158 L58.8543242,10.5157158 C58.6042941,11.0148719 58.2405836,11.3727254 57.7623593,11.5891058 C57.2844684,11.8056566 56.7794076,11.9135914 56.2463433,11.9135914 C55.5840969,11.9135914 55.0056939,11.7942502 54.5109676,11.5559082 C54.016408,11.3175662 53.6070253,10.9930807 53.2811527,10.582111 C52.9551135,10.1718224 52.7099173,9.68594523 52.5467309,9.12550111 C52.383878,8.56522724 52.3027015,7.96341377 52.3027015,7.31972021 C52.3027015,6.54306588 52.4057139,5.87128201 52.6124055,5.30556033 C52.818597,4.73932791 53.0934635,4.27336936 53.4351713,3.9070037 C53.7773792,3.54080829 54.168593,3.27165211 54.608646,3.09953516 C55.048699,2.92809919 55.4970864,2.84195559 55.9538081,2.84195559 C56.2140061,2.84195559 56.4808716,2.86681125 56.7524043,2.91652258 C57.0226035,2.96657439 57.2844684,3.04709993 57.5341652,3.1577587 C57.7838619,3.26943893 58.0147231,3.41023094 58.2262485,3.58234789 C58.4392742,3.75446484 58.6151287,3.95688527 58.7564791,4.18994967 L58.7891497,4.18994967 L58.7891497,0.0581213916 L60.647707,0.0581213916 L60.647707,11.9135914 Z" id="Fill-13" fill="#FFFFFF"></path>
                        <path d="M63.2344353,10.1610289 C63.2344353,10.209208 63.2177666,10.2464915 63.1829291,10.275433 C63.1582594,10.2963731 63.0992523,10.3212287 62.9589021,10.3212287 L62.7458764,10.3212287 L62.7458764,10.0055959 L62.9429001,10.0055959 C63.0642481,10.0055959 63.1172545,10.0164915 63.1399239,10.0255144 C63.1700942,10.0376018 63.1934303,10.0559882 63.2097656,10.0799926 C63.2262676,10.1041673 63.2344353,10.1305551 63.2344353,10.1610289 M63.2687727,10.5597409 C63.2626053,10.5537824 63.2562712,10.5481643 63.2497705,10.5427165 C63.3206123,10.5202443 63.3812863,10.48245 63.4311256,10.4293338 C63.5071348,10.348638 63.5456394,10.2522798 63.5456394,10.1426425 C63.5456394,10.0648409 63.5226367,9.99027387 63.4767978,9.92149519 C63.4307923,9.85220577 63.368118,9.80300518 63.290442,9.77474463 C63.2169332,9.74852702 63.0992523,9.73524796 62.9415667,9.73524796 L62.4473404,9.73524796 L62.4473404,11.1646188 L62.7458764,11.1646188 L62.7458764,10.5951517 L62.8267195,10.5951517 C62.8907272,10.5951517 62.9388997,10.6077498 62.9710702,10.6327757 C63.0060744,10.6588231 63.0704155,10.7318579 63.1795953,10.9307032 L63.3087776,11.1646188 L63.6711546,11.1646188 L63.469797,10.8341747 C63.3907874,10.7058105 63.3254462,10.6160918 63.2687727,10.5597409" id="Fill-15" fill="#FFFFFF"></path>
                        <path d="M64.120292,10.429436 C64.120292,10.6214715 64.0712861,10.8094212 63.9752745,10.9876669 C63.879263,11.1643805 63.7424131,11.3039808 63.5690589,11.4022117 C63.2208503,11.6008868 62.8219689,11.6008868 62.4735936,11.4022117 C62.299906,11.3038105 62.1632229,11.1642102 62.0667113,10.9874967 C61.9695329,10.8095914 61.9201936,10.621812 61.9201936,10.429436 C61.9201936,10.2360385 61.9703663,10.0463864 62.0693782,9.86541673 C62.1677234,9.68649001 62.3059067,9.54688971 62.4800944,9.45087195 C62.6546154,9.35434345 62.8369707,9.3053131 63.0213263,9.3053131 C63.2046817,9.3053131 63.3865369,9.35434345 63.5617247,9.45087195 C63.7362457,9.54705996 63.874429,9.68649001 63.9721075,9.86541673 C64.0716195,10.0480888 64.120292,10.2326336 64.120292,10.429436 M64.2556416,9.69942857 C64.1291264,9.46636417 63.9496048,9.28471355 63.721744,9.15975426 C63.268356,8.91017617 62.7732964,8.91085714 62.3204085,9.15975426 C62.0935478,9.28437306 61.9133594,9.46602369 61.785344,9.69925833 C61.6586621,9.93130126 61.5944877,10.177134 61.5944877,10.429436 C61.5944877,10.6802058 61.6579953,10.9234848 61.7831771,11.1528038 C61.9081922,11.3836551 62.0862136,11.5654759 62.3120741,11.6933294 C62.5371013,11.8203316 62.77563,11.8848542 63.0213263,11.8848542 C63.2666892,11.8848542 63.5052179,11.8203316 63.730245,11.6933294 C63.9552721,11.5663272 64.1332936,11.384336 64.2584753,11.1528038 C64.383157,10.9229741 64.4463313,10.679695 64.4463313,10.429436 C64.4463313,10.1766232 64.3819902,9.93096077 64.2556416,9.69942857" id="Fill-17" fill="#FFFFFF"></path>
                        <mask id="mask-4" fill="white">
                            <use xlink:href="#path-3"></use>
                        </mask>
                        <g id="Clip-20"></g>
                        <polygon id="Fill-19" fill="#FFFFFF" mask="url(#mask-4)" points="-0.000166686747 2.05280533 1.96140298 2.05280533 1.96140298 0.0493708364 -0.000166686747 0.0493708364"></polygon>
                        <path d="M14.4103529,10.2676699 C14.1798251,10.2518372 13.9379626,10.1753975 13.7954454,9.98983124 C13.7259371,9.89926129 13.6849321,9.78877276 13.6597624,9.67641155 C13.58392,9.33830644 13.6429271,8.99015692 13.6402601,8.64779571 C13.6377598,8.35395411 13.633926,8.06011251 13.633926,7.76610067 L13.633926,6.20938712 L13.633926,4.8196832 L13.633926,4.27830644 L15.4011389,4.26741081 L15.4011389,2.78952036 L13.6150904,2.78952036 L13.633926,0.0109637306 L11.6770235,0.0109637306 L11.6770235,2.78526425 L10.7169079,2.79615988 L10.7175746,4.27830644 L11.6770235,4.27830644 L11.6770235,9.56439082 C11.6951924,10.167396 11.7320302,10.8182398 12.1539143,11.2835174 C12.9336749,12.1434212 14.3926841,11.8814152 15.4011389,11.7729697 L15.4011389,10.2307269 C15.0757664,10.2634138 14.7372256,10.2901421 14.4103529,10.2676699" id="Fill-21" fill="#FFFFFF" mask="url(#mask-4)"></path>
                    </g>
                    <g id="Page-1">
                        <mask id="mask-6" fill="white">
                            <use xlink:href="#path-5"></use>
                        </mask>
                        <g id="Clip-2"></g>
                        <path d="M9.82065971,7.0304167 C9.82065971,7.11711304 9.74989053,7.18771802 9.66352259,7.18771802 L7.18200394,7.18771802 L7.18200394,9.66940086 C7.18200394,9.7564256 7.11139896,9.82653798 7.02437422,9.82653798 L4.55697657,9.82653798 C4.47028023,9.82653798 4.39967525,9.7564256 4.39967525,9.66940086 L4.39967525,7.18771802 L1.91815661,7.18771802 C1.83129607,7.18771802 1.76101948,7.11711304 1.76101948,7.0304167 L1.76101948,4.56351164 C1.76101948,4.47599431 1.83129607,4.40588192 1.91815661,4.40588192 L4.39967525,4.40588192 L4.39967525,1.92436328 C4.39967525,1.83717434 4.47028023,1.76689776 4.55697657,1.76689776 L7.02437422,1.76689776 C7.11139896,1.76689776 7.18200394,1.83717434 7.18200394,1.92436328 L7.18200394,4.40588192 L9.66352259,4.40588192 C9.74989053,4.40588192 9.82065971,4.47599431 9.82065971,4.56351164 L9.82065971,7.0304167 Z M10.3978143,0.000131358097 L1.18419324,0.000131358097 C0.532985478,0.000131358097 0,0.53278844 0,1.1841604 L0,5.77939502 L0,10.5297964 C0,11.1810042 0.532985478,11.7138254 1.18419324,11.7138254 L1.72243304,11.7138254 C1.8427899,11.7138254 1.93671094,11.8177625 1.92488871,11.9376268 L1.64066263,14.7936802 C1.63360213,14.8652704 1.72029847,14.905663 1.77054295,14.8542691 L4.72987667,11.8276144 C4.80097424,11.7548748 4.89817923,11.7138254 4.99998176,11.7138254 L10.3978143,11.7138254 C11.0488579,11.7138254 11.5816792,11.1811684 11.5816792,10.5299606 L11.5816792,5.77988762 L11.5816792,1.1841604 C11.5816792,0.53278844 11.0490221,0.000131358097 10.3978143,0.000131358097 L10.3978143,0.000131358097 Z" id="Fill-1" fill="#FEFEFE" mask="url(#mask-6)"></path>
                    </g>
                </g>
            </g>
        </g>
    </g>
</svg>