<?xml version="1.0" encoding="UTF-8"?>
<svg width="10px" height="14px" viewBox="0 0 10 14" version="1.1" xmlns="http://www.w3.org/2000/svg" xmlns:xlink="http://www.w3.org/1999/xlink">
    <!-- Generator: Sketch 46.2 (44496) - http://www.bohemiancoding.com/sketch -->
    <title>Group 2</title>
    <desc>Created with Sketch.</desc>
    <defs></defs>
    <g id="Symbols" stroke="none" stroke-width="1" fill="none" fill-rule="evenodd">
        <g id="INFO" transform="translate(-307.000000, -17.000000)" fill="#F5F4F4">
            <g id="Group-2" transform="translate(307.000000, 17.000000)">
                <g id="fi-marker">
                    <g id="Layer_1">
                        <path d="M5,0.0718965517 C2.31362069,0.0718965517 0.137758621,2.24896552 0.137758621,4.93413793 C0.137758621,6.025 0.496896552,7.03206897 1.10362069,7.84327586 L4.22241379,13.2453448 C4.24051724,13.2801724 4.25862069,13.3148276 4.28086207,13.3467241 L4.28775862,13.3586207 L4.28965517,13.3575862 C4.44896552,13.577931 4.70534483,13.7215517 5.00258621,13.7215517 C5.27086207,13.7215517 5.50465517,13.5994828 5.66551724,13.4113793 L5.67362069,13.4160345 L5.70448276,13.3625862 C5.75,13.3012069 5.79034483,13.2356897 5.81948276,13.1634483 L8.875,7.87068966 C9.49431034,7.05465517 9.86224138,6.03758621 9.86224138,4.93413793 C9.86224138,2.24896552 7.68637931,0.0718965517 5,0.0718965517 L5,0.0718965517 Z M4.94724138,7.44948276 C3.62362069,7.44948276 2.55155172,6.37689655 2.55155172,5.0537931 C2.55155172,3.73086207 3.62362069,2.65810345 4.94724138,2.65810345 C6.27086207,2.65810345 7.34293103,3.73086207 7.34293103,5.0537931 C7.34293103,6.37672414 6.27086207,7.44948276 4.94724138,7.44948276 L4.94724138,7.44948276 Z" id="Shape"></path>
                    </g>
                </g>
            </g>
        </g>
    </g>
</svg>