<?xml version="1.0" encoding="UTF-8"?>
<svg width="16px" height="16px" viewBox="0 0 16 16" version="1.1" xmlns="http://www.w3.org/2000/svg" xmlns:xlink="http://www.w3.org/1999/xlink">
    <!-- Generator: Sketch 46.2 (44496) - http://www.bohemiancoding.com/sketch -->
    <title>fi-telephone copy</title>
    <desc>Created with Sketch.</desc>
    <defs></defs>
    <g id="Symbols" stroke="none" stroke-width="1" fill="none" fill-rule="evenodd">
        <g id="footer-web" transform="translate(-60.000000, -291.000000)" fill="#F5F4F4">
            <g id="fi-telephone-copy" transform="translate(60.000000, 291.000000)">
                <g id="Layer_1">
                    <path d="M15.9912575,12.6236003 C15.9530852,12.3877093 15.8051962,12.1861047 15.5837054,12.0663306 L12.3070598,10.1357725 L12.2800877,10.1206865 C12.1477419,10.0527992 11.9945955,10.017827 11.8373348,10.017827 C11.5628143,10.017827 11.300637,10.1218294 11.11869,10.3042335 L10.1515824,11.2717983 C10.11021,11.3111134 9.97534979,11.368029 9.93443457,11.3700862 C9.92323432,11.3691719 8.80915193,11.2889415 6.75813403,9.23769503 C4.71077335,7.19079151 4.62391424,6.07328047 4.62322851,6.07328047 C4.6243714,6.01613632 4.68060124,5.88173327 4.72060215,5.84013233 L5.54530655,5.01565651 C5.83582742,4.72444991 5.92291511,4.24169611 5.75056834,3.86774478 L3.92926993,0.4406957 C3.79692408,0.168232383 3.53977539,0 3.25451178,0 C3.05267864,0 2.85793137,0.0836590385 2.70569935,0.235662483 L0.457648411,2.47868474 C0.242100669,2.69308959 0.0564964638,3.06795523 0.0160384042,3.36967635 C-0.00361918412,3.51390819 -0.402485365,6.95672906 4.31762159,11.6775217 C8.3247981,15.6842411 11.4494403,15.9955624 12.312317,15.9955624 L12.312317,15.9955624 C12.4979212,15.9955624 12.606038,15.982305 12.6268384,15.9793335 C12.9276453,15.939104 13.3020537,15.753957 13.51623,15.5393235 L15.7624523,13.2933298 C15.9457708,13.109097 16.0294298,12.865663 15.9912575,12.6236003 L15.9912575,12.6236003 Z" id="Shape"></path>
                </g>
            </g>
        </g>
    </g>
</svg>