<?xml version="1.0" encoding="UTF-8"?>
<svg width="14px" height="13px" viewBox="0 0 14 13" version="1.1" xmlns="http://www.w3.org/2000/svg" xmlns:xlink="http://www.w3.org/1999/xlink">
    <!-- Generator: Sketch 46.2 (44496) - http://www.bohemiancoding.com/sketch -->
    <title>Shape</title>
    <desc>Created with Sketch.</desc>
    <defs></defs>
    <g id="DR.JUANRIESTRA-All-web" stroke="none" stroke-width="1" fill="none" fill-rule="evenodd">
        <g id="1.-INICIO" transform="translate(-205.000000, -2302.000000)" fill="#DFB81D">
            <g id="Group-13" transform="translate(147.000000, 2162.000000)">
                <g id="Group-7" transform="translate(58.000000, 140.000000)">
                    <path d="M13.6638283,4.63096495 L8.93003749,4.63096495 L7.31686406,0.216814911 C7.26912609,0.0869535061 7.14221706,8.8817842e-16 6.99984362,8.8817842e-16 C6.85763827,8.8817842e-16 6.73056115,0.0867909762 6.68299128,0.216814911 L5.06964975,4.63096495 L0.336363215,4.63096495 C0.193317409,4.63096495 0.0659041064,4.71856858 0.0185023235,4.84924263 C-0.0282270936,4.97991669 0.0154766778,5.12521843 0.127929843,5.21103423 L3.82358799,8.04051757 L2.16956833,12.5663257 C2.12233464,12.695537 2.1643575,12.839701 2.27378502,12.9263294 C2.38371681,13.0134455 2.53819284,13.024335 2.65989103,12.9534719 L6.99967553,10.4362086 L11.33946,12.9534719 C11.392745,12.9845151 11.4532579,12.999793 11.5129304,12.999793 C11.5880673,12.999793 11.6638765,12.9750884 11.7257341,12.9263294 C11.8351617,12.839701 11.8771845,12.695537 11.8299508,12.5663257 L10.1759312,8.04051757 L13.8725979,5.21103423 C13.9847148,5.12521843 14.0284186,4.97991669 13.9811849,4.84924263 C13.9344555,4.71856858 13.8070422,4.63096495 13.6638283,4.63096495 Z" id="Shape"></path>
                </g>
            </g>
        </g>
    </g>
</svg>