<?xml version="1.0" encoding="UTF-8"?>
<svg width="27px" height="27px" viewBox="0 0 27 27" version="1.1" xmlns="http://www.w3.org/2000/svg" xmlns:xlink="http://www.w3.org/1999/xlink">
    <!-- Generator: Sketch 46.2 (44496) - http://www.bohemiancoding.com/sketch -->
    <title>Group</title>
    <desc>Created with Sketch.</desc>
    <defs></defs>
    <g id="Symbols" stroke="none" stroke-width="1" fill="none" fill-rule="evenodd">
        <g id="INFO" transform="translate(-1123.000000, -9.000000)" fill="#FFFFFF">
            <g id="Group" transform="translate(1123.000000, 9.000000)">
                <path d="M18.9643158,16.4524737 L16.0112368,13.4996974 L18.9634079,10.5472237 C19.0856711,10.4249605 19.0856711,10.2264342 18.9634079,10.1041711 L16.8955263,8.03568421 C16.7729605,7.91342105 16.5747368,7.91342105 16.4524737,8.03568421 L13.4996974,10.9881579 L10.5475263,8.03568421 C10.4301053,7.91826316 10.2221974,7.91826316 10.1044737,8.03568421 L8.03598684,10.1041711 C7.97727632,10.1631842 7.94398684,10.2427763 7.94398684,10.3256974 C7.94398684,10.4086184 7.97727632,10.4885132 8.03598684,10.5472237 L10.9884605,13.4996974 L8.03538158,16.4527763 C7.97667105,16.5111842 7.94338158,16.5913816 7.94338158,16.6743026 C7.94338158,16.7569211 7.97667105,16.8371184 8.03538158,16.8955263 L10.1032632,18.9637105 C10.1619737,19.0224211 10.2421711,19.0557105 10.3250921,19.0557105 C10.4080132,19.0557105 10.4879079,19.0224211 10.5463158,18.9637105 L13.4990921,16.0109342 L16.4521711,18.9634079 C16.5133026,19.0248421 16.5931974,19.0554079 16.6736974,19.0554079 C16.7541974,19.0554079 16.8340921,19.0248421 16.8952237,18.9634079 L18.9637105,16.8952237 C19.0865789,16.7732632 19.0865789,16.5747368 18.9643158,16.4524737 L18.9643158,16.4524737 Z" id="Shape"></path>
                <path d="M13.5,4.00147018 C18.7372881,4.00147018 22.9985298,8.26374588 22.9985298,13.5006893 C22.9985298,18.738322 18.7372881,22.9988745 13.5,22.9988745 C8.26271193,22.9988745 4.00147018,18.738322 4.00147018,13.5006893 C4.00147018,8.26374588 8.26271193,4.00147018 13.5,4.00147018 L13.5,4.00147018 Z M13.5,0.575657895 C6.36231667,0.575657895 0.575657895,6.36335061 0.575657895,13.5006893 C0.575657895,20.6383726 6.36231667,26.4243421 13.5,26.4243421 C20.6373387,26.4243421 26.4243421,20.6383726 26.4243421,13.5006893 C26.4243421,6.36335061 20.6373387,0.575657895 13.5,0.575657895 L13.5,0.575657895 L13.5,0.575657895 Z" id="Shape"></path>
            </g>
        </g>
    </g>
</svg>